<svg width="31" height="27" viewBox="0 0 31 27" fill="none" xmlns="http://www.w3.org/2000/svg">
<g clip-path="url(#clip0_14748_214)">
<path d="M26.2238 12.4602C25.9935 12.4602 25.7641 12.4602 25.5338 12.4602C17.3805 12.4602 9.22822 12.4622 1.07493 12.4553C0.78534 12.4553 0.671641 12.5105 0.691077 12.8317C0.721202 13.3343 0.710512 13.8398 0.693992 14.3433C0.686218 14.5719 0.765904 14.634 0.97581 14.6163C1.17308 14.5995 1.37327 14.6123 1.57249 14.6123C9.65872 14.6123 17.7459 14.6123 25.8322 14.6123C25.9624 14.6123 26.0916 14.6123 26.3142 14.6123C26.0625 14.8774 25.871 15.0833 25.6747 15.2834C22.5825 18.4199 19.4903 21.5574 16.3922 24.689C16.2163 24.8664 16.1716 24.9679 16.3796 25.1581C16.7557 25.503 17.1114 25.8735 17.4583 26.2489C17.6128 26.4165 17.7022 26.4302 17.8723 26.2568C19.6536 24.4358 21.4436 22.6236 23.2326 20.8095C25.5377 18.4731 27.8409 16.1358 30.1527 13.8073C30.3588 13.6003 30.3782 13.4929 30.1586 13.2722C26.0878 9.16306 22.0247 5.04605 17.9694 0.921161C17.7352 0.683679 17.6011 0.632437 17.365 0.907364C17.0472 1.27787 16.6896 1.61488 16.3388 1.95485C16.1979 2.09182 16.1823 2.16966 16.3349 2.32339C18.9869 5.00171 21.6302 7.68791 24.2773 10.3712C24.9381 11.0412 25.6038 11.7074 26.2675 12.3745C26.2539 12.4031 26.2384 12.4316 26.2238 12.4602Z" fill="#103E13"/>
</g>
<defs>
<clipPath id="clip0_14748_214">
<rect width="31" height="27" fill="white" transform="matrix(1 0 0 -1 0 27)"/>
</clipPath>
</defs>
</svg>
