<svg width="52" height="45" viewBox="0 0 52 45" fill="none" xmlns="http://www.w3.org/2000/svg">
<path d="M43.9881 20.6879C43.6018 20.6879 43.2171 20.6879 42.8307 20.6879C29.1542 20.6879 15.4794 20.6911 1.80289 20.6797C1.31712 20.6797 1.1264 20.7713 1.159 21.3046C1.20953 22.139 1.1916 22.9783 1.16389 23.8143C1.15085 24.1939 1.28452 24.297 1.63662 24.2675C1.96753 24.2397 2.30332 24.261 2.63749 24.261C16.2015 24.261 29.7672 24.261 43.3312 24.261C43.5496 24.261 43.7664 24.261 44.1397 24.261C43.7175 24.7011 43.3964 25.043 43.0671 25.3751C37.8801 30.5826 32.6932 35.7918 27.4964 40.9912C27.2014 41.2856 27.1264 41.4542 27.4752 41.7699C28.1061 42.3425 28.7027 42.9577 29.2846 43.581C29.5438 43.8591 29.6938 43.882 29.9791 43.5941C32.967 40.5707 35.9697 37.562 38.9707 34.5501C42.8372 30.671 46.7006 26.7903 50.5786 22.9243C50.9241 22.5808 50.9567 22.4024 50.5883 22.036C43.7599 15.2137 36.9445 8.37827 30.1421 1.52979C29.7492 1.13551 29.5243 1.05043 29.1282 1.50689C28.5951 2.12204 27.9952 2.68157 27.4068 3.246C27.1704 3.47341 27.1443 3.60266 27.4003 3.85788C31.8488 8.30465 36.2826 12.7645 40.723 17.2194C41.8315 18.332 42.9481 19.4379 44.0614 20.5455C44.0386 20.593 44.0125 20.6404 43.9881 20.6879Z" fill="#4CAF4F"/>
</svg>
