<svg width="28" height="28" viewBox="0 0 28 28" fill="none" xmlns="http://www.w3.org/2000/svg">
<path d="M25.6421 9.13735C25.5826 8.67535 25.2746 7.76651 24.493 7.29518C24.0776 7.04435 23.3683 6.82735 22.3498 7.20885C22.4443 7.09918 20.5146 8.29035 19.9955 8.59951C19.9838 8.60535 19.145 9.01368 17.6656 9.21901C18.3353 8.45601 18.6666 7.34885 18.6666 5.83451C18.6666 2.60635 17.2281 1.16785 14 1.16785C10.7718 1.16785 9.33331 2.60635 9.33331 5.83451C9.33331 7.35235 9.66464 8.46068 10.3378 9.22368C8.83047 9.02068 7.97414 8.60418 7.96131 8.59951C7.45731 8.29035 5.55914 7.09801 5.65014 7.20885C4.62931 6.82735 3.92114 7.04435 3.50697 7.29518C1.97864 8.43385 2.03697 10.1068 3.04847 11.424C4.58264 13.3362 6.59864 14.1458 8.16897 14.4842C8.13514 14.8972 8.23664 15.3102 8.17364 15.6637C7.92514 15.834 4.72731 18.0868 4.66664 21.4188C4.70514 23.6542 6.40847 25.2233 7.07464 25.9082C7.62414 26.4973 8.40114 26.8357 9.20847 26.8357C9.67514 26.8357 10.6155 26.6455 11.1813 25.9315C11.4823 25.5523 11.7891 24.8768 11.5406 23.8163C11.4963 23.6262 11.2781 23.1292 10.7753 22.0138C10.6866 21.8178 10.6061 21.6417 10.5513 21.518C10.7251 21.2683 11.137 20.8192 11.5815 20.4855C11.9653 20.7118 12.705 21.0035 14.0011 21.0035C15.3265 21.0035 16.0696 20.699 16.4243 20.489C16.87 20.825 17.283 21.2742 17.451 21.5133C17.1185 22.2483 16.4196 23.8 16.4605 23.8163C16.212 24.8768 16.5176 25.5523 16.8198 25.9315C17.3856 26.6455 18.3271 26.8357 18.7926 26.8357C19.6 26.8357 20.377 26.4973 20.9253 25.9093C21.5915 25.2257 23.296 23.6542 23.3345 21.4188C23.2726 18.0857 20.0748 15.8352 19.8275 15.6648C19.7645 15.3113 19.866 14.8972 19.8321 14.4853C21.4025 14.147 23.4231 13.3327 24.9946 11.3727C25.5103 10.7543 25.7471 9.93885 25.6433 9.13851L25.6421 9.13735ZM14 2.33335C16.5841 2.33335 17.5 3.24918 17.5 5.83335C17.5 8.41751 16.5841 9.33335 14 9.33335C11.4158 9.33335 10.5 8.41751 10.5 5.83335C10.5 3.24918 11.4158 2.33335 14 2.33335ZM9.34381 21.3547C9.31931 21.4515 9.32047 21.553 9.34731 21.6498C9.47564 22.0022 10.3261 23.8187 10.4043 24.08C10.5186 24.5665 10.4731 24.9445 10.2678 25.2035C10.0006 25.5418 9.47564 25.6667 9.20847 25.6667C8.71731 25.6667 8.26231 25.4695 7.92864 25.109C7.33014 24.4883 5.88114 23.1887 5.83447 21.4165C5.83447 19.2372 7.79914 17.4463 8.51781 16.8642C8.82231 17.633 9.39047 18.6562 10.6388 19.7423C10.1045 20.1927 9.46281 20.8752 9.34381 21.3547ZM15.9355 19.4075C15.9355 19.4075 15.4256 19.8333 14 19.8333C12.5743 19.8333 12.0691 19.411 12.0166 19.3667C10.4381 18.1825 9.85714 17.1127 9.56197 16.3333H18.4391C18.1416 17.1138 17.5525 18.1907 15.9355 19.4075ZM22.1666 21.4177C22.1176 23.1933 20.671 24.4883 20.0713 25.1113C19.7376 25.4707 19.2838 25.6678 18.7926 25.6678C18.5255 25.6678 18.0005 25.543 17.7333 25.2047C17.528 24.9457 17.4825 24.5677 17.5933 24.094C17.675 23.8198 18.5231 22.0092 18.6538 21.651C18.6806 21.5542 18.6818 21.4527 18.6573 21.3558C18.5383 20.8775 17.8978 20.195 17.3646 19.7447C18.6165 18.6445 19.18 17.6283 19.4845 16.8653C20.202 17.4475 22.1666 19.2383 22.1666 21.4177ZM24.0415 10.6937C22.5738 12.523 20.573 13.1892 19.1543 13.426C18.8941 13.4692 18.6958 13.6815 18.669 13.9428C18.6421 14.3407 18.683 14.7782 18.6515 15.1678H9.34847C9.31697 14.7782 9.35664 14.3407 9.33097 13.9428C9.30414 13.6815 9.10581 13.4692 8.84564 13.426C7.42581 13.1892 5.42497 12.523 3.90247 10.626C3.58864 10.2503 3.45097 9.77435 3.51397 9.28668C3.54781 9.02185 3.73914 8.51785 4.10781 8.29501C4.38897 8.12351 4.77047 8.12585 5.22664 8.29618C5.38881 8.36851 6.23231 8.89818 6.68497 9.18168C7.09447 9.43835 7.43047 9.64018 7.43747 9.64135C7.50747 9.67635 9.16997 10.5 11.9991 10.5H15.9588C18.7868 10.5 20.4505 9.67635 20.4796 9.65885C20.5263 9.63901 20.8646 9.43951 21.2776 9.18518C21.742 8.89935 22.6076 8.36735 22.7593 8.29968C23.2283 8.12468 23.6098 8.12235 23.891 8.29268C24.2596 8.51551 24.451 9.01951 24.4848 9.28435C24.5478 9.77085 24.4101 10.2468 24.0415 10.6913V10.6937Z" fill="white"/>
</svg>
