<svg width="28" height="28" viewBox="0 0 28 28" fill="none" xmlns="http://www.w3.org/2000/svg">
<g clip-path="url(#clip0_13144_461)">
<path d="M17.5 16.3334C17.5 14.4037 15.9297 12.8334 14 12.8334H3.5C1.57033 12.8334 0 14.4037 0 16.3334C0 17.8547 0.975333 19.1509 2.33333 19.6327V23.3334H0.583333C0.261333 23.3334 0 23.5947 0 23.9167C0 24.2387 0.261333 24.5001 0.583333 24.5001H2.33333V27.4167C2.33333 27.7387 2.59467 28.0001 2.91667 28.0001C3.23867 28.0001 3.5 27.7387 3.5 27.4167V24.5001H14V27.4167C14 27.7387 14.2613 28.0001 14.5833 28.0001C14.9053 28.0001 15.1667 27.7387 15.1667 27.4167V24.5001H16.9167C17.2387 24.5001 17.5 24.2387 17.5 23.9167C17.5 23.5947 17.2387 23.3334 16.9167 23.3334H15.1667V19.6327C16.5247 19.1509 17.5 17.8547 17.5 16.3334ZM14 23.3334H3.5V19.8334H14V23.3334ZM14 18.6667H3.5C2.21317 18.6667 1.16667 17.6202 1.16667 16.3334C1.16667 15.0466 2.21317 14.0001 3.5 14.0001H14C15.2868 14.0001 16.3333 15.0466 16.3333 16.3334C16.3333 17.6202 15.2868 18.6667 14 18.6667ZM27.8472 15.1994C27.4132 16.9039 26.0085 18.2281 24.269 18.5734C23.6215 18.7017 23.0288 18.7122 22.428 18.7122C21.5705 18.7122 21 18.9479 21 20.1017V27.4167C21 27.7387 20.7387 28.0001 20.4167 28.0001C20.0947 28.0001 19.8333 27.7387 19.8333 27.4167V20.1017C19.8333 19.1474 20.1705 17.5456 22.428 17.5456C22.9682 17.5456 23.4978 17.5362 24.0415 17.4289C25.3225 17.1746 26.3982 16.1631 26.7167 14.9124C26.9372 14.0467 26.8438 13.1822 26.4483 12.4111C26.208 11.9467 26.2103 11.3856 26.4518 10.9119C26.705 10.4172 26.8333 9.88639 26.8333 9.33222C26.8333 8.19822 26.3212 7.16455 25.4637 6.56605C24.8768 6.15539 24.5128 5.47172 24.4638 4.69005C24.3868 3.47089 23.702 2.39755 22.5832 1.74772C21.3348 1.01739 19.7855 0.975386 18.4427 1.62872C17.2982 2.18522 16.5188 3.40789 16.3578 4.90122C16.2855 5.56972 15.9262 6.17755 15.3697 6.56605C14.5122 7.16572 14 8.19939 14 9.33339C14 9.50372 14.0117 9.66939 14.0362 9.83272C14.0828 10.1501 13.8623 10.4476 13.5438 10.4942C13.2207 10.5316 12.929 10.3204 12.8823 10.0007C12.8508 9.78255 12.8333 9.55972 12.8333 9.33339C12.8333 7.81905 13.5322 6.42722 14.7023 5.61055C14.9812 5.41572 15.1632 5.11122 15.1982 4.77639C15.4012 2.88172 16.4232 1.31255 17.9317 0.579886C19.6268 -0.244947 21.5845 -0.185447 23.1712 0.73972C24.6307 1.59022 25.5267 3.00305 25.6282 4.61772C25.655 5.04355 25.8393 5.40522 26.1322 5.61055C27.3012 6.42722 28 7.82022 28 9.33339C28 10.0731 27.8285 10.7824 27.4913 11.4439C27.4202 11.5816 27.419 11.7484 27.4855 11.8791C28.0152 12.9057 28.14 14.0537 27.8483 15.2006L27.8472 15.1994Z" fill="white"/>
</g>
<defs>
<clipPath id="clip0_13144_461">
<rect width="28" height="28" fill="white"/>
</clipPath>
</defs>
</svg>
