<svg width="41" height="41" viewBox="0 0 41 41" fill="none" xmlns="http://www.w3.org/2000/svg">
<path d="M30.75 20.5C25.0886 20.5 20.5 25.0886 20.5 30.75C20.5 36.4114 25.0886 41 30.75 41C36.4114 41 41 36.4114 41 30.75C41 25.0886 36.4114 20.5 30.75 20.5ZM37.0418 30.258L32.4242 34.7236C31.652 35.4855 30.627 35.8699 29.6003 35.8699C28.5736 35.8699 27.5452 35.4855 26.7593 34.7185L24.4463 32.443C23.7715 31.7818 23.7629 30.7005 24.4223 30.0274C25.0818 29.3526 26.1631 29.3423 26.8379 30.0035L29.151 32.2772C29.397 32.5198 29.8002 32.5147 30.0428 32.2738L34.6775 27.7912C35.3557 27.1403 36.4388 27.1591 37.0931 27.8407C37.7456 28.5206 37.7234 29.602 37.0435 30.2563L37.0418 30.258ZM1.51204e-05 23.9167V18.7917C1.51204e-05 8.43062 8.43064 0 18.7917 0C22.8934 0 26.7918 1.30346 30.0684 3.76858C30.8218 4.33746 30.9738 5.40688 30.4066 6.16025C29.8395 6.91363 28.7683 7.06567 28.015 6.4985C25.3346 4.48267 22.1451 3.41667 18.7917 3.41667C10.3149 3.41667 3.41668 10.3149 3.41668 18.7917V23.9167C3.41668 24.8614 2.65135 25.625 1.70835 25.625C0.765348 25.625 1.51204e-05 24.8614 1.51204e-05 23.9167ZM10.25 18.7917C10.25 18.3133 10.2893 17.8316 10.3679 17.3669C10.5251 16.4359 9.8981 15.5544 8.96706 15.3989C8.01722 15.2537 7.15281 15.8704 6.99906 16.7997C6.88972 17.454 6.83335 18.122 6.83335 18.7917C6.83335 23.7253 5.88864 29.7865 1.38718 30.6424C0.461265 30.82 -0.146902 31.7135 0.0290568 32.6411C0.186223 33.4594 0.902015 34.0283 1.70493 34.0283C6.30547 33.116 10.25 30.0667 10.25 18.7917ZM1.70493 34.0283C1.59731 34.0505 1.81085 34.0283 1.70493 34.0283V34.0283ZM20.5103 18.8395C20.5359 19.7603 21.2824 20.5 22.2083 20.5C23.1513 20.5 23.9167 19.7347 23.9167 18.7917C23.9167 15.9661 21.6173 13.6667 18.7917 13.6667C15.9661 13.6667 13.6701 15.9627 13.6667 18.7865C13.6667 18.7882 13.6667 18.79 13.6667 18.7917L13.6769 20.5C13.6769 27.1181 11.4151 30.6185 11.3895 30.656C9.54789 33.2134 7.46372 36.1142 2.09272 37.6483C1.1856 37.9079 0.66114 38.8543 0.919098 39.7598C1.13264 40.5097 1.81768 41 2.56081 41C2.71626 41 2.87514 40.9778 3.0306 40.9351C9.54276 39.073 12.2129 35.3608 14.2236 32.5643C14.3415 32.3917 17.0919 28.2524 17.0919 20.4863L17.0816 18.7934C17.0816 17.8504 17.847 17.085 18.79 17.085C19.733 17.085 20.4983 17.8504 20.4983 18.8344L20.5068 18.8395H20.5103ZM18.7934 6.83333C15.4041 6.83333 12.1565 8.28712 9.88785 10.8172C9.25747 11.521 9.31556 12.6007 10.0177 13.2293C10.7232 13.8614 11.8012 13.8016 12.4298 13.0995C14.0528 11.287 16.3727 10.25 18.7934 10.25C22.4851 10.25 25.6763 12.5767 26.855 15.9541C27.1335 16.7502 27.921 17.2473 28.753 17.1073C29.7746 16.9347 30.4425 15.8909 30.1094 14.9103C28.4831 10.1321 23.9936 6.83333 18.7934 6.83333ZM34.0966 17.3088C34.1786 18.1596 34.9269 18.7917 35.7828 18.7917C36.8009 18.7917 37.5919 17.905 37.4894 16.892C37.2212 14.2543 36.3961 11.6935 35.0636 9.39412C34.5921 8.57583 33.5431 8.29738 32.73 8.77229C31.9117 9.24379 31.6332 10.291 32.1081 11.1059C33.21 13.0072 33.8848 15.1256 34.0966 17.3088ZM15.9183 36.4422C15.4263 36.9888 14.8864 37.4979 14.3141 37.954C13.5744 38.5417 13.4531 39.618 14.0391 40.3543C14.3756 40.7796 14.8745 41 15.3767 41C15.7491 41 16.125 40.8787 16.4393 40.6293C17.1619 40.0536 17.8418 39.413 18.462 38.7245C19.0923 38.0224 19.0343 36.9427 18.3321 36.3123C17.6317 35.682 16.5521 35.7418 15.92 36.4422H15.9183Z" fill="url(#paint0_linear_15646_295)"/>
<defs>
<linearGradient id="paint0_linear_15646_295" x1="20.4994" y1="5.12847e-07" x2="3.29201" y2="38.0706" gradientUnits="userSpaceOnUse">
<stop stop-color="#00AD4D"/>
<stop offset="1" stop-color="#7FC241"/>
</linearGradient>
</defs>
</svg>
