<svg width="14" height="11" viewBox="0 0 14 11" fill="none" xmlns="http://www.w3.org/2000/svg">
<path d="M14 5.48012C14.001 6.09099 13.745 6.67058 13.278 7.10481L9.36 10.8592C9.262 10.9531 9.131 11 9 11C8.875 11 8.751 10.9577 8.653 10.8712C8.454 10.6964 8.448 10.4039 8.639 10.2208L12.562 6.46174C12.725 6.30994 12.844 6.13239 12.917 5.94011H0.5C0.224 5.94011 0 5.73404 0 5.48012C0 5.22621 0.224 5.02013 0.5 5.02013H12.911C12.836 4.82878 12.715 4.65398 12.553 4.50586L8.599 0.780865C8.406 0.599629 8.41 0.307995 8.607 0.130439C8.805 -0.0461971 9.122 -0.0434373 9.314 0.138719L13.262 3.8582C13.731 4.28323 13.995 4.86649 14 5.48012Z" fill="black"/>
</svg>
