<svg width="18" height="18" viewBox="0 0 18 18" fill="none" xmlns="http://www.w3.org/2000/svg">
<g clip-path="url(#clip0_12958_1418)">
<path d="M8.8028 18C8.61905 18 8.4323 17.9595 8.25155 17.8763C7.66205 17.604 7.37555 16.9778 7.55405 16.3538L8.8703 12H4.8758C4.27655 12 3.72755 11.724 3.37055 11.2425C3.01355 10.761 2.9078 10.1558 3.08105 9.582L5.34755 1.341C5.5913 0.5355 6.3128 0 7.14455 0H10.4243C10.9403 0 11.424 0.2535 11.718 0.67725C12.012 1.101 12.0795 1.64325 11.8988 2.12625L10.2788 6.75H13.125C13.8315 6.75 14.451 7.12275 14.7818 7.7475C15.1125 8.37225 15.0735 9.093 14.6768 9.678L9.8693 17.412C9.61505 17.7938 9.2183 18 8.8028 18ZM7.1453 0.75C6.6458 0.75 6.21305 1.071 6.0683 1.5495L3.8018 9.7905C3.6953 10.1438 3.7583 10.5068 3.9728 10.7955C4.1873 11.0843 4.51655 11.25 4.87655 11.25H9.3758C9.4943 11.25 9.60605 11.3063 9.67655 11.4015C9.74705 11.4968 9.7688 11.6198 9.7343 11.733L8.27405 16.5645C8.18255 16.8855 8.3648 17.1015 8.5673 17.1945C8.76905 17.2875 9.0518 17.2875 9.2393 17.0048L14.0483 9.2685C14.2943 8.9055 14.3183 8.47275 14.1195 8.09775C13.9208 7.72275 13.5495 7.49925 13.125 7.49925H9.75005C9.62855 7.49925 9.51455 7.44 9.44405 7.341C9.37355 7.242 9.35555 7.11525 9.39605 6.99975L11.1938 1.86975C11.2928 1.605 11.2583 1.329 11.1015 1.104C10.9455 0.87825 10.698 0.74925 10.4243 0.74925H7.14455L7.1453 0.75Z" fill="#00AD4D"/>
</g>
<defs>
<clipPath id="clip0_12958_1418">
<rect width="18" height="18" fill="white"/>
</clipPath>
</defs>
</svg>
