<svg width="30" height="30" viewBox="0 0 30 30" fill="none" xmlns="http://www.w3.org/2000/svg">
<g clip-path="url(#clip0_13142_415)">
<path d="M29.3513 22.81L24.9451 18.3425C26.1601 16.48 26.8738 14.2613 26.8738 11.875C26.8751 5.3275 21.5476 0 15.0001 0C8.45258 0 3.12508 5.3275 3.12508 11.875C3.12508 14.26 3.83883 16.4787 5.05383 18.3425L0.64883 22.81C0.0650804 23.4 -0.0986696 24.2425 0.22258 25.0087C0.54258 25.775 1.25758 26.2512 2.08758 26.2512H3.74883V28.045C3.74883 28.8525 4.21133 29.5462 4.95633 29.8575C5.20758 29.9625 5.46883 30.0137 5.72508 30.0137C6.22633 30.0137 6.71383 29.8175 7.09508 29.4425L13.0388 23.5737C13.6788 23.6812 14.3301 23.75 15.0001 23.75C15.6701 23.75 16.3213 23.6812 16.9613 23.5737L22.9051 29.4425C23.2863 29.8175 23.7726 30.0137 24.2751 30.0137C24.5313 30.0137 24.7926 29.9625 25.0438 29.8575C25.7888 29.5462 26.2513 28.8513 26.2513 28.045V26.2512H27.9126C28.7426 26.2512 29.4576 25.775 29.7776 25.0087C30.0988 24.2437 29.9338 23.4 29.3513 22.81ZM6.21633 28.5525C5.90133 28.865 5.54133 28.7462 5.43883 28.7037C5.33508 28.66 4.99883 28.4862 4.99883 28.0437V25H2.08883C1.61133 25 1.42258 24.6363 1.37633 24.5263C1.33008 24.4163 1.20508 24.0263 1.54008 23.6875L5.79883 19.3687C7.28133 21.1862 9.29008 22.555 11.5913 23.2463L6.21633 28.5525ZM4.37383 11.875C4.37508 6.01625 9.14133 1.25 15.0001 1.25C20.8588 1.25 25.6251 6.01625 25.6251 11.875C25.6251 17.7337 20.8588 22.5 15.0001 22.5C9.14133 22.5 4.37383 17.7337 4.37383 11.875ZM28.6226 24.5263C28.5763 24.6375 28.3876 25 27.9101 25H24.9988V28.0437C24.9988 28.4862 24.6626 28.66 24.5588 28.7037C24.4563 28.7462 24.0951 28.865 23.7813 28.5525L18.4076 23.2463C20.7088 22.555 22.7176 21.1862 24.2001 19.3687L28.4601 23.6875C28.7938 24.0263 28.6688 24.415 28.6226 24.5263ZM17.7676 11.6463C18.3701 11.0763 18.7476 10.2687 18.7476 9.37625C18.7476 7.65375 17.3463 6.25125 15.6226 6.25125H12.8726C11.9763 6.25125 11.2476 6.98 11.2476 7.87625V15.8763C11.2476 16.7725 11.9763 17.5013 12.8726 17.5013H16.2476C17.9713 17.5013 19.3726 16.0988 19.3726 14.3763C19.3726 13.2038 18.7238 12.1813 17.7676 11.6463ZM12.4976 7.875C12.4976 7.6675 12.6663 7.5 12.8726 7.5H15.6226C16.6563 7.5 17.4976 8.34125 17.4976 9.375C17.4976 10.4088 16.6563 11.25 15.6226 11.25H12.4976V7.875ZM16.2476 16.25H12.8726C12.6663 16.25 12.4976 16.0825 12.4976 15.875V12.5H16.2476C17.2813 12.5 18.1226 13.3412 18.1226 14.375C18.1226 15.4088 17.2813 16.25 16.2476 16.25Z" fill="white"/>
</g>
<defs>
<clipPath id="clip0_13142_415">
<rect width="30" height="30" fill="white"/>
</clipPath>
</defs>
</svg>
