<svg width="22" height="22" viewBox="0 0 22 22" fill="none" xmlns="http://www.w3.org/2000/svg">
<path d="M17.9566 2.32268C17.7938 2.48554 17.6316 2.64771 17.4687 2.81056C11.7035 8.57581 5.94032 14.3418 0.170192 20.1021C-0.0345812 20.3069 -0.075958 20.4263 0.164936 20.6397C0.541598 20.9738 0.891489 21.3388 1.23586 21.7065C1.39202 21.8737 1.49227 21.8612 1.62815 21.7003C1.7558 21.5489 1.90641 21.4164 2.04728 21.2756C7.76511 15.5577 13.4836 9.83922 19.2015 4.12138C19.2935 4.0293 19.3849 3.93791 19.5423 3.78055C19.5518 4.14596 19.562 4.42696 19.5647 4.70721C19.596 9.11161 19.628 13.5167 19.6517 17.9217C19.6528 18.1715 19.6929 18.2749 19.9745 18.2623C20.4843 18.2403 20.9978 18.2508 21.5086 18.2709C21.7363 18.2801 21.8092 18.2267 21.8069 17.9838C21.7788 15.4366 21.7631 12.8894 21.7454 10.3416C21.7233 7.05959 21.699 3.77826 21.6873 0.49701C21.6866 0.205008 21.6244 0.115316 21.3131 0.114534C15.529 0.0874442 9.7448 0.0492855 3.96056 5.39016e-05C3.62703 -0.00226586 3.49597 0.0563284 3.52339 0.41771C3.56068 0.9044 3.54611 1.39557 3.53844 1.88403C3.53565 2.08052 3.5797 2.14656 3.79629 2.14738C7.5654 2.16598 11.3339 2.19635 15.1031 2.22188C16.0441 2.22842 16.9859 2.22875 17.9269 2.23114C17.9375 2.26097 17.9467 2.29217 17.9566 2.32268Z" fill="black"/>
</svg>
