<svg width="28" height="28" viewBox="0 0 28 28" fill="none" xmlns="http://www.w3.org/2000/svg">
<g clip-path="url(#clip0_13143_438)">
<path d="M12.25 15.1666H11.0833C10.7613 15.1666 10.5 15.428 10.5 15.75C10.5 16.072 10.7613 16.3333 11.0833 16.3333H12.25C12.572 16.3333 12.8333 16.072 12.8333 15.75C12.8333 15.428 12.572 15.1666 12.25 15.1666Z" fill="white"/>
<path d="M16.9167 15.1666H15.7501C15.4281 15.1666 15.1667 15.428 15.1667 15.75C15.1667 16.072 15.4281 16.3333 15.7501 16.3333H16.9167C17.2387 16.3333 17.5001 16.072 17.5001 15.75C17.5001 15.428 17.2387 15.1666 16.9167 15.1666Z" fill="white"/>
<path d="M21.5833 15.1666H20.4166C20.0946 15.1666 19.8333 15.428 19.8333 15.75C19.8333 16.072 20.0946 16.3333 20.4166 16.3333H21.5833C21.9053 16.3333 22.1666 16.072 22.1666 15.75C22.1666 15.428 21.9053 15.1666 21.5833 15.1666Z" fill="white"/>
<path d="M12.25 21H11.0833C10.7613 21 10.5 21.2613 10.5 21.5833C10.5 21.9053 10.7613 22.1667 11.0833 22.1667H12.25C12.572 22.1667 12.8333 21.9053 12.8333 21.5833C12.8333 21.2613 12.572 21 12.25 21Z" fill="white"/>
<path d="M7.58325 15.1666H6.41659C6.09459 15.1666 5.83325 15.428 5.83325 15.75C5.83325 16.072 6.09459 16.3333 6.41659 16.3333H7.58325C7.90525 16.3333 8.16659 16.072 8.16659 15.75C8.16659 15.428 7.90525 15.1666 7.58325 15.1666Z" fill="white"/>
<path d="M7.58325 21H6.41659C6.09459 21 5.83325 21.2613 5.83325 21.5833C5.83325 21.9053 6.09459 22.1667 6.41659 22.1667H7.58325C7.90525 22.1667 8.16659 21.9053 8.16659 21.5833C8.16659 21.2613 7.90525 21 7.58325 21Z" fill="white"/>
<path d="M16.9167 21H15.7501C15.4281 21 15.1667 21.2613 15.1667 21.5833C15.1667 21.9053 15.4281 22.1667 15.7501 22.1667H16.9167C17.2387 22.1667 17.5001 21.9053 17.5001 21.5833C17.5001 21.2613 17.2387 21 16.9167 21Z" fill="white"/>
<path d="M21.5833 21H20.4166C20.0946 21 19.8333 21.2613 19.8333 21.5833C19.8333 21.9053 20.0946 22.1667 20.4166 22.1667H21.5833C21.9053 22.1667 22.1666 21.9053 22.1666 21.5833C22.1666 21.2613 21.9053 21 21.5833 21Z" fill="white"/>
<path d="M22.75 2.33333H21V0.583333C21 0.261333 20.7387 0 20.4167 0C20.0947 0 19.8333 0.261333 19.8333 0.583333V2.33333H8.16667V0.583333C8.16667 0.261333 7.90533 0 7.58333 0C7.26133 0 7 0.261333 7 0.583333V2.33333H5.25C2.3555 2.33333 0 4.68883 0 7.58333V22.75C0 25.6445 2.3555 28 5.25 28H22.75C25.6445 28 28 25.6445 28 22.75V7.58333C28 4.68883 25.6445 2.33333 22.75 2.33333ZM5.25 3.5H22.75C25.0017 3.5 26.8333 5.33167 26.8333 7.58333V9.33333H1.16667V7.58333C1.16667 5.33167 2.99833 3.5 5.25 3.5ZM22.75 26.8333H5.25C2.99833 26.8333 1.16667 25.0017 1.16667 22.75V10.5H26.8333V22.75C26.8333 25.0017 25.0017 26.8333 22.75 26.8333Z" fill="white"/>
</g>
<defs>
<clipPath id="clip0_13143_438">
<rect width="28" height="28" fill="white"/>
</clipPath>
</defs>
</svg>
