<svg width="17" height="17" viewBox="0 0 17 17" fill="none" xmlns="http://www.w3.org/2000/svg">
<g clip-path="url(#clip0_12958_1420)">
<path d="M5.3125 8.5H3.89583C3.31004 8.5 2.83333 8.97671 2.83333 9.5625V10.9792C2.83333 11.565 3.31004 12.0417 3.89583 12.0417H5.3125C5.89829 12.0417 6.375 11.565 6.375 10.9792V9.5625C6.375 8.97671 5.89829 8.5 5.3125 8.5ZM5.66667 10.9792C5.66667 11.1747 5.50729 11.3333 5.3125 11.3333H3.89583C3.70104 11.3333 3.54167 11.1747 3.54167 10.9792V9.5625C3.54167 9.367 3.70104 9.20833 3.89583 9.20833H5.3125C5.50729 9.20833 5.66667 9.367 5.66667 9.5625V10.9792ZM13.8125 1.41667H12.75V0.354167C12.75 0.158667 12.5913 0 12.3958 0C12.2003 0 12.0417 0.158667 12.0417 0.354167V1.41667H4.95833V0.354167C4.95833 0.158667 4.79967 0 4.60417 0C4.40867 0 4.25 0.158667 4.25 0.354167V1.41667H3.1875C1.43012 1.41667 0 2.84679 0 4.60417V13.8125C0 15.5699 1.43012 17 3.1875 17H13.8125C15.5699 17 17 15.5699 17 13.8125V4.60417C17 2.84679 15.5699 1.41667 13.8125 1.41667ZM3.1875 2.125H13.8125C15.1796 2.125 16.2917 3.23708 16.2917 4.60417V5.66667H0.708333V4.60417C0.708333 3.23708 1.82042 2.125 3.1875 2.125ZM13.8125 16.2917H3.1875C1.82042 16.2917 0.708333 15.1796 0.708333 13.8125V6.375H16.2917V13.8125C16.2917 15.1796 15.1796 16.2917 13.8125 16.2917Z" fill="#00AD4D"/>
</g>
<defs>
<clipPath id="clip0_12958_1420">
<rect width="17" height="17" fill="white"/>
</clipPath>
</defs>
</svg>
