<svg width="37" height="37" viewBox="0 0 37 37" fill="none" xmlns="http://www.w3.org/2000/svg">
<path d="M30.1217 3.7562C29.8485 4.02938 29.5765 4.3014 29.3033 4.57458C19.6326 14.2453 9.96531 23.9172 0.286477 33.5799C-0.0570128 33.9233 -0.127088 34.123 0.2731 34.4771C0.89883 35.0313 1.47962 35.6375 2.05118 36.2482C2.31035 36.5258 2.47775 36.5042 2.7059 36.2344C2.92022 35.9808 3.1727 35.7584 3.409 35.5221C13.0002 25.9309 22.5926 16.3385 32.1838 6.74729C32.3382 6.59284 32.4915 6.43954 32.7555 6.17558C32.7681 6.78531 32.7829 7.25416 32.7849 7.72184C32.7994 15.0719 32.8151 22.423 32.8169 29.7742C32.8165 30.191 32.8827 30.3632 33.3526 30.3398C34.2036 30.2986 35.0604 30.3117 35.9127 30.341C36.2926 30.3544 36.4149 30.2646 36.413 29.8592C36.3879 25.6086 36.3836 21.3579 36.3759 17.1061C36.3671 11.6291 36.3548 6.15326 36.3633 0.677455C36.3647 0.190155 36.2617 0.0410035 35.742 0.0423684C26.0895 0.0467247 16.4369 0.0326078 6.78429 1.51572e-05C6.2277 -0.000999065 6.00848 0.0979091 6.05115 0.700766C6.10921 1.51266 6.08068 2.33248 6.06369 3.1477C6.05736 3.47564 6.1303 3.58548 6.49174 3.58498C12.7817 3.58374 19.0705 3.60212 25.3604 3.61242C26.9309 3.61528 28.5025 3.60775 30.0729 3.60368C30.0903 3.65337 30.1054 3.70536 30.1217 3.7562Z" fill="white"/>
</svg>
