<svg width="56" height="56" viewBox="0 0 56 56" fill="none" xmlns="http://www.w3.org/2000/svg">
<g clip-path="url(#clip0_12745_460)">
<path d="M16.3333 36.1667C16.3333 37.2633 16.4453 38.332 16.618 39.382C7.21 37.8373 0 29.673 0 19.8333C0 8.897 8.897 0 19.8333 0C29.673 0 37.8373 7.21 39.382 16.618C38.332 16.4453 37.2633 16.3333 36.1667 16.3333C25.2303 16.3333 16.3333 25.2303 16.3333 36.1667ZM39.382 16.618C39.5547 17.668 39.6667 18.7367 39.6667 19.8333C39.6667 30.7697 30.7697 39.6667 19.8333 39.6667C18.7367 39.6667 17.668 39.5547 16.618 39.382C18.1627 48.79 26.327 56 36.1667 56C47.103 56 56 47.103 56 36.1667C56 26.327 48.79 18.1627 39.382 16.618Z" fill="url(#paint0_linear_12745_460)"/>
</g>
<defs>
<linearGradient id="paint0_linear_12745_460" x1="28" y1="7.00474e-07" x2="4.49676" y2="51.9983" gradientUnits="userSpaceOnUse">
<stop stop-color="#00AD4D"/>
<stop offset="1" stop-color="#7FC241"/>
</linearGradient>
<clipPath id="clip0_12745_460">
<rect width="56" height="56" fill="white"/>
</clipPath>
</defs>
</svg>
