<svg width="24" height="24" viewBox="0 0 24 24" fill="none" xmlns="http://www.w3.org/2000/svg">
<path d="M22.696 19.134L21.722 18.572C21.888 18.075 22 17.553 22 17C22 16.447 21.889 15.925 21.722 15.428L22.696 14.866C23.174 14.59 23.338 13.978 23.062 13.5C22.786 13.022 22.175 12.857 21.696 13.134L20.723 13.696C20.018 12.902 19.079 12.321 18 12.102V11.001C18 10.449 17.552 10.001 17 10.001C16.448 10.001 16 10.449 16 11.001V12.102C14.921 12.322 13.982 12.903 13.277 13.696L12.304 13.134C11.824 12.857 11.214 13.023 10.938 13.5C10.662 13.979 10.826 14.59 11.304 14.866L12.278 15.428C12.112 15.925 12 16.447 12 17C12 17.553 12.111 18.075 12.278 18.572L11.304 19.134C10.826 19.41 10.662 20.022 10.938 20.5C11.216 20.982 11.834 21.139 12.304 20.866L13.277 20.304C13.982 21.098 14.921 21.679 16 21.898V22.999C16 23.552 16.448 23.999 17 23.999C17.552 23.999 18 23.552 18 22.999V21.898C19.079 21.678 20.018 21.097 20.723 20.304L21.696 20.866C22.166 21.139 22.784 20.982 23.062 20.5C23.338 20.021 23.174 19.41 22.696 19.134ZM17 20C15.346 20 14 18.654 14 17C14 15.346 15.346 14 17 14C18.654 14 20 15.346 20 17C20 18.654 18.654 20 17 20ZM9.914 21.939C9.457 21.978 8.984 22 8.5 22C4.294 22 2 20.537 2 19.786V17.458C3.426 18.344 5.515 18.916 7.969 18.992H8C8.538 18.992 8.982 18.564 8.999 18.022C9.016 17.47 8.582 17.009 8.03 16.992C4.294 16.878 1.999 15.464 1.999 14.5V12.458C3.425 13.344 5.514 13.916 7.968 13.992H7.999C8.537 13.992 8.981 13.564 8.998 13.022C9.015 12.47 8.581 12.009 8.029 11.992C4.293 11.877 1.998 10.463 1.998 9.499V7.458C3.533 8.412 5.833 8.999 8.498 8.999C11.163 8.999 13.463 8.411 14.998 7.458V7.499C14.998 8.051 15.446 8.499 15.998 8.499C16.55 8.499 16.998 8.051 16.998 7.499V4.499C17 1.935 13.346 0 8.5 0C3.654 0 0 1.935 0 4.5V19.786C0 22.553 4.276 24 8.5 24C9.03 24 9.564 23.978 10.086 23.932C10.636 23.884 11.044 23.4 10.996 22.85C10.948 22.299 10.466 21.88 9.913 21.94L9.914 21.939ZM8.5 2C12.468 2 15 3.48 15 4.5C15 5.52 12.468 7 8.5 7C4.532 7 2 5.52 2 4.5C2 3.48 4.532 2 8.5 2Z" fill="#00AD4D"/>
</svg>
