<svg width="26" height="26" viewBox="0 0 26 26" fill="none" xmlns="http://www.w3.org/2000/svg">
<g clip-path="url(#clip0_13158_223)">
<path d="M22.75 13H13.5417V10.8333H16.7917C18.8825 10.8333 20.5833 9.1325 20.5833 7.04167V3.79167C20.5833 1.70083 18.8825 0 16.7917 0H9.20833C7.1175 0 5.41667 1.70083 5.41667 3.79167V7.04167C5.41667 9.1325 7.1175 10.8333 9.20833 10.8333H12.4583V13H0.541667C0.242667 13 0 13.2427 0 13.5417C0 13.8407 0.242667 14.0833 0.541667 14.0833H2.16667V25.4583C2.16667 25.7573 2.40933 26 2.70833 26C3.00733 26 3.25 25.7573 3.25 25.4583V14.0833H16.25V22.75C16.25 24.5418 17.7082 26 19.5 26H22.75C24.5418 26 26 24.5418 26 22.75V16.25C26 14.4582 24.5418 13 22.75 13ZM6.5 7.04167V3.79167C6.5 2.29883 7.71442 1.08333 9.20833 1.08333H16.7917C18.2856 1.08333 19.5 2.29883 19.5 3.79167V7.04167C19.5 8.5345 18.2856 9.75 16.7917 9.75H9.20833C7.71442 9.75 6.5 8.5345 6.5 7.04167ZM22.75 14.0833C23.9449 14.0833 24.9167 15.0551 24.9167 16.25V19.5H17.3333V14.0833H22.75ZM22.75 24.9167H19.5C18.3051 24.9167 17.3333 23.9449 17.3333 22.75V20.5833H24.9167V22.75C24.9167 23.9449 23.9449 24.9167 22.75 24.9167Z" fill="white"/>
</g>
<defs>
<clipPath id="clip0_13158_223">
<rect width="26" height="26" fill="white"/>
</clipPath>
</defs>
</svg>
