<svg width="56" height="56" viewBox="0 0 56 56" fill="none" xmlns="http://www.w3.org/2000/svg">
<g clip-path="url(#clip0_12742_448)">
<path d="M55.5053 50.7033L46.9863 36.442C48.0619 35.7583 49.1166 35.035 50.1246 34.2253C51.6319 33.0143 51.8723 30.8117 50.6589 29.3067C49.4456 27.797 47.2383 27.5613 45.7403 28.77C44.9866 29.3767 44.2003 29.9227 43.3999 30.4407L36.1923 18.3773C36.8969 17.066 37.3333 15.589 37.3333 14C37.3333 10.0917 34.9159 6.75033 31.4999 5.35967V3.5C31.4999 1.56567 29.9319 0 27.9999 0C26.0679 0 24.4999 1.56567 24.4999 3.5V5.35967C21.0839 6.748 18.6666 10.0917 18.6666 14C18.6666 15.5913 19.1029 17.066 19.8076 18.3773L12.5976 30.4453C11.8276 29.9483 11.0739 29.421 10.3459 28.8423C8.84095 27.6383 6.63362 27.888 5.42962 29.3977C4.22328 30.9097 4.47295 33.11 5.98495 34.3163C6.95795 35.0933 7.97528 35.7887 9.01128 36.4467L0.494616 50.7033C-0.497051 52.3623 0.0466158 54.5137 1.70562 55.5053C2.26795 55.8413 2.88862 56 3.49995 56C4.68995 56 5.85195 55.391 6.50762 54.2967L15.2949 39.5897C19.3713 41.1437 23.6809 41.9487 27.9999 41.9487C32.3189 41.9487 36.6309 41.1437 40.7096 39.5897L49.4969 54.2967C50.1526 55.3933 51.3146 56 52.5046 56C53.1159 56 53.7343 55.8413 54.2989 55.5053C55.9579 54.5137 56.4993 52.3623 55.5099 50.7033H55.5053ZM24.4999 14C24.4999 12.0703 26.0679 10.5 27.9999 10.5C29.9319 10.5 31.4999 12.0703 31.4999 14C31.4999 15.9297 29.9319 17.5 27.9999 17.5C26.0679 17.5 24.4999 15.9297 24.4999 14ZM18.9349 33.4903L25.2746 22.8807C26.1426 23.149 27.0456 23.3333 27.9999 23.3333C28.9543 23.3333 29.8573 23.1467 30.7253 22.8807L37.0626 33.488C31.1989 35.4433 24.8009 35.4457 18.9373 33.4927L18.9349 33.4903Z" fill="url(#paint0_linear_12742_448)"/>
</g>
<defs>
<linearGradient id="paint0_linear_12742_448" x1="28.0018" y1="7.00474e-07" x2="4.50003" y2="52" gradientUnits="userSpaceOnUse">
<stop stop-color="#00AD4D"/>
<stop offset="1" stop-color="#7FC241"/>
</linearGradient>
<clipPath id="clip0_12742_448">
<rect width="56" height="56" fill="white"/>
</clipPath>
</defs>
</svg>
