<svg width="53" height="39" viewBox="0 0 53 39" fill="none" xmlns="http://www.w3.org/2000/svg">
<path d="M7.1582 0.00317383H25.502L40.4688 0.00415039L45.3779 0.00317383C46.3105 0.0033291 47.2365 0.0109424 48.168 0.0246582C50.2004 0.054663 51.9777 1.2714 52.6738 3.19263C52.7696 3.45652 52.8898 3.91045 53 4.14087V33.925C52.7588 34.564 52.635 35.0917 52.2773 35.6917C50.6514 38.4153 48.0189 38.0701 45.3008 38.0706L40.3027 38.0715L25.0137 38.0696L11.5547 38.0706H7.2002C6.41994 38.0705 5.42603 38.0937 4.66211 38.05C4.12297 38.0168 3.59114 37.9024 3.08594 37.7112C1.96204 37.2839 0.953322 36.3289 0.446289 35.2327C0.326041 34.9726 0.107162 34.1817 0 34.0286V4.02759C0.214883 3.65229 0.27942 3.20595 0.460938 2.81274C1.05671 1.54487 2.16457 0.590624 3.50684 0.189697C4.3022 -0.0400974 6.26329 0.00326535 7.1582 0.00317383ZM6.32324 3.12427C5.99526 3.124 5.12043 3.11208 4.81641 3.1604C2.8259 3.29513 3.10599 5.13139 3.10645 6.57642L3.10742 9.75903L3.1084 19.6838L3.10742 28.8147C3.10726 30.3216 3.08471 31.8394 3.12988 33.344C3.15865 34.302 4.04223 34.9096 4.94336 34.9241C6.80697 34.9539 8.67208 34.9341 10.5361 34.9338H21.8369L39.082 34.9348C42.0592 34.9352 45.2705 34.9961 48.2334 34.9221C48.8109 34.8089 49.1913 34.6987 49.5615 34.1799C49.7787 33.8757 49.8912 33.2662 49.8936 32.884C49.9057 30.8963 49.8937 28.8893 49.8945 26.9026L49.8984 14.6409V8.09399C49.8982 6.8984 49.966 5.63578 49.7969 4.45923C49.6479 3.42345 48.6841 3.1466 47.7793 3.13599C46.5727 3.12181 45.3673 3.12421 44.1602 3.12524L37.8154 3.12915L18.2344 3.13013L9.01562 3.12817L6.32324 3.12427ZM15.8643 13.3518C17.2583 13.1811 18.7588 13.5977 19.8906 14.4231C21.1076 15.308 21.9204 16.6428 22.1484 18.1301C22.4369 20.0312 21.8827 21.3774 20.7822 22.8625C21.2842 23.1274 21.8545 23.5868 22.2617 23.9827C23.7924 25.4782 24.6715 27.5178 24.707 29.6575C24.7248 31.7892 22.6004 31.4235 21.1133 31.4221L17.21 31.4172L12.8066 31.4192C12.6349 31.4198 12.4474 31.4301 12.2783 31.4211C10.539 31.3157 8.17867 32.0459 8.33008 29.4016C8.47412 26.8892 9.92486 24.0746 12.2314 22.8684C11.546 21.9071 11.1111 21.2205 10.9023 20.0295C10.6377 18.5119 10.9891 16.9512 11.8789 15.6936C12.8919 14.269 14.1879 13.6368 15.8643 13.3518ZM33.8447 28.2756C35.7799 28.2636 37.7192 28.2787 39.6533 28.2981C41.7007 28.3186 41.9855 30.8731 40.04 31.3899C38.6405 31.47 37.1232 31.4123 35.708 31.4182C34.3137 31.4241 32.7167 31.4713 31.3418 31.3899C29.681 31.2916 29.3182 28.7087 31.2539 28.3137C32.0652 28.2327 33.0228 28.2808 33.8447 28.2756ZM21.3799 28.3069C20.2918 25.626 18.5041 24.5985 15.6455 24.8459C13.5037 25.266 12.4723 26.3576 11.6318 28.304C13.4065 28.2135 15.6945 28.2795 17.5068 28.2805C18.5427 28.2793 20.4103 28.2249 21.3799 28.3069ZM41.0674 21.6223C41.7439 21.6226 43.3768 21.5156 43.9258 21.8752C45.1985 22.7103 44.7996 24.4457 43.2432 24.761C41.1602 24.868 38.3106 24.7854 36.1689 24.7854L33.3164 24.7922C32.5825 24.7949 31.2254 24.9076 30.6592 24.4934C29.3896 23.5648 29.8484 21.9064 31.3896 21.6379C32.0687 21.6005 32.9209 21.6239 33.6191 21.6243L37.5615 21.6233L41.0674 21.6223ZM19.043 18.469C18.7346 17.0744 17.3551 16.1925 15.96 16.4983C14.5613 16.8049 13.6772 18.1891 13.9863 19.5872C14.2955 20.9852 15.6806 21.8665 17.0781 21.5549C18.472 21.244 19.3513 19.8635 19.043 18.469ZM33.1855 14.9739L36.3594 14.9729C38.5394 14.9728 40.7002 14.9707 42.8984 14.9866C44.2134 14.9961 45.037 15.9227 44.5 17.2493C44.3172 17.7007 43.825 17.9366 43.3809 18.0891C42.8567 18.1606 42.011 18.1404 41.4658 18.1409L38.3564 18.1418L34.2266 18.1438C33.4862 18.1458 31.3423 18.2393 30.7598 17.9202C30.3933 17.7213 30.1204 17.3858 30 16.9866C29.7252 16.0522 30.298 15.2496 31.2051 15.0061C31.7885 14.9558 32.5888 14.9741 33.1855 14.9739ZM15.3389 6.65942L25.9561 6.6604L37.1484 6.65942C39.0441 6.65901 40.9627 6.64922 42.8594 6.66724C43.2364 6.67086 43.705 6.73817 44.0195 6.95532C44.3566 7.18663 44.5845 7.54678 44.6494 7.95044C44.8141 8.92562 44.1717 9.61036 43.2432 9.76587C41.6296 9.85623 39.3652 9.78751 37.6934 9.78735H15.749C13.8775 9.78735 12.028 9.79053 10.1328 9.78442C8.68417 9.77971 7.82728 8.66123 8.60742 7.30884C8.82235 6.93636 9.2599 6.76038 9.67188 6.68286C11.3306 6.59187 13.64 6.65932 15.3389 6.65942Z" fill="url(#paint0_linear_15648_234)"/>
<defs>
<linearGradient id="paint0_linear_15648_234" x1="26.5" y1="0.000244617" x2="13.9876" y2="38.5241" gradientUnits="userSpaceOnUse">
<stop stop-color="#00AD4D"/>
<stop offset="1" stop-color="#7FC241"/>
</linearGradient>
</defs>
</svg>
