<svg width="28" height="28" viewBox="0 0 28 28" fill="none" xmlns="http://www.w3.org/2000/svg">
<g clip-path="url(#clip0_13142_420)">
<path d="M9.33333 15.1667C12.5498 15.1667 15.1667 12.5499 15.1667 9.33339C15.1667 6.11689 12.5498 3.50006 9.33333 3.50006C6.11683 3.50006 3.5 6.11689 3.5 9.33339C3.5 12.5499 6.11683 15.1667 9.33333 15.1667ZM9.33333 4.66672C11.907 4.66672 14 6.75972 14 9.33339C14 11.9071 11.907 14.0001 9.33333 14.0001C6.75967 14.0001 4.66667 11.9071 4.66667 9.33339C4.66667 6.75972 6.75967 4.66672 9.33333 4.66672ZM27.7165 18.7496L20.8938 14.6557C20.9557 14.4457 20.9988 14.2287 20.9988 13.9989C20.9988 12.7121 19.9523 11.6656 18.6655 11.6656C17.3787 11.6656 16.3322 12.7121 16.3322 13.9989C16.3322 15.2857 17.3787 16.3322 18.6655 16.3322C19.3025 16.3322 19.8788 16.0744 20.3 15.6602L27.1145 19.7494C27.3863 19.9139 27.748 19.8276 27.9148 19.5499C28.0805 19.2734 27.9918 18.9152 27.7165 18.7496ZM18.6667 15.1667C18.0238 15.1667 17.5 14.6429 17.5 14.0001C17.5 13.3572 18.0238 12.8334 18.6667 12.8334C19.3095 12.8334 19.8333 13.3572 19.8333 14.0001C19.8333 14.6429 19.3095 15.1667 18.6667 15.1667ZM18.6667 26.8334V27.4167C18.6667 27.7387 18.4053 28.0001 18.0833 28.0001C17.7613 28.0001 17.5 27.7387 17.5 27.4167V26.8334C17.5 23.3427 15.295 20.3654 12.2068 19.1987L10.5537 21.6779L12.2255 27.2487C12.3177 27.5567 12.1427 27.8822 11.8347 27.9756C11.5337 28.0677 11.2 27.8962 11.1078 27.5847L9.35783 21.7514C9.30883 21.5846 9.3345 21.4049 9.43133 21.2602L11.039 18.8487C10.4883 18.7309 9.919 18.6667 9.33333 18.6667C8.74767 18.6667 8.17833 18.7309 7.62767 18.8487L9.23533 21.2602C9.33217 21.4049 9.35783 21.5846 9.30883 21.7514L7.55883 27.5847C7.46667 27.8962 7.133 28.0677 6.832 27.9756C6.52283 27.8822 6.34783 27.5579 6.44117 27.2487L8.113 21.6779L6.45983 19.1987C3.37283 20.3654 1.16667 23.3427 1.16667 26.8334V27.4167C1.16667 27.7387 0.905333 28.0001 0.583333 28.0001C0.261333 28.0001 0 27.7387 0 27.4167V26.8334C0 21.6872 4.18717 17.5001 9.33333 17.5001C14.4795 17.5001 18.6667 21.6872 18.6667 26.8334ZM26.082 22.5856C25.1732 24.5082 23.9692 26.2687 22.5062 27.8169C22.2845 28.0514 21.9158 28.0619 21.6813 27.8402C21.4468 27.6197 21.4363 27.2499 21.658 27.0154C23.037 25.5559 24.1698 23.8981 25.0262 22.0851C25.1638 21.7934 25.5103 21.6697 25.8032 21.8074C26.0948 21.9451 26.2185 22.2927 26.0808 22.5844L26.082 22.5856ZM26.2045 9.14089C26.1217 8.82939 26.3072 8.50972 26.6187 8.42806C26.9313 8.34756 27.2498 8.53072 27.3315 8.84222C27.7737 10.5164 27.9988 12.2512 27.9988 14.0001C27.9988 14.4014 27.9872 14.8016 27.9638 15.1971C27.9452 15.5062 27.6885 15.7454 27.3817 15.7454C27.37 15.7454 27.3583 15.7454 27.3467 15.7454C27.0258 15.7267 26.7797 15.4502 26.7995 15.1282C26.8217 14.7549 26.8322 14.3792 26.8322 14.0012C26.8322 12.3527 26.621 10.7194 26.2033 9.14206L26.2045 9.14089ZM21.6592 0.983556C21.4375 0.749056 21.448 0.380389 21.6825 0.158722C21.9182 -0.0629443 22.2857 -0.0512776 22.5073 0.182056C23.8618 1.61472 24.9947 3.23172 25.8743 4.98756C26.019 5.27572 25.9023 5.62572 25.6142 5.77039C25.333 5.91389 24.976 5.80072 24.8313 5.51022C24.0018 3.85589 22.9343 2.33339 21.6592 0.983556Z" fill="white"/>
</g>
<defs>
<clipPath id="clip0_13142_420">
<rect width="28" height="28" fill="white"/>
</clipPath>
</defs>
</svg>
