<svg width="54" height="54" viewBox="0 0 54 54" fill="none" xmlns="http://www.w3.org/2000/svg">
<g filter="url(#filter0_i_12654_667)">
<circle cx="27" cy="27" r="27" fill="#26272E"/>
</g>
<circle cx="27" cy="27" r="26.5" stroke="#307A33"/>
<path d="M23.6 24.8801L28.19 20.2901C28.3774 20.1038 28.6308 19.9993 28.895 19.9993C29.1592 19.9993 29.4127 20.1038 29.6 20.2901C29.6937 20.383 29.7681 20.4936 29.8189 20.6155C29.8697 20.7373 29.8958 20.868 29.8958 21.0001C29.8958 21.1321 29.8697 21.2628 29.8189 21.3846C29.7681 21.5065 29.6937 21.6171 29.6 21.7101L25 26.2901C24.9063 26.383 24.8319 26.4936 24.7811 26.6155C24.7304 26.7373 24.7042 26.868 24.7042 27.0001C24.7042 27.1321 24.7304 27.2628 24.7811 27.3846C24.8319 27.5065 24.9063 27.6171 25 27.7101L29.6 32.2901C29.7883 32.477 29.8946 32.7312 29.8956 32.9965C29.8965 33.2619 29.792 33.5168 29.605 33.7051C29.418 33.8934 29.1639 33.9997 28.8986 34.0006C28.6332 34.0016 28.3783 33.897 28.19 33.7101L23.6 29.1201C23.0382 28.5576 22.7227 27.7951 22.7227 27.0001C22.7227 26.2051 23.0382 25.4426 23.6 24.8801Z" fill="white"/>
<defs>
<filter id="filter0_i_12654_667" x="0" y="-4" width="54" height="58" filterUnits="userSpaceOnUse" color-interpolation-filters="sRGB">
<feFlood flood-opacity="0" result="BackgroundImageFix"/>
<feBlend mode="normal" in="SourceGraphic" in2="BackgroundImageFix" result="shape"/>
<feColorMatrix in="SourceAlpha" type="matrix" values="0 0 0 0 0 0 0 0 0 0 0 0 0 0 0 0 0 0 127 0" result="hardAlpha"/>
<feMorphology radius="1" operator="dilate" in="SourceAlpha" result="effect1_innerShadow_12654_667"/>
<feOffset dy="-4"/>
<feGaussianBlur stdDeviation="4.5"/>
<feComposite in2="hardAlpha" operator="arithmetic" k2="-1" k3="1"/>
<feColorMatrix type="matrix" values="0 0 0 0 0.298039 0 0 0 0 0.686275 0 0 0 0 0.309804 0 0 0 0.36 0"/>
<feBlend mode="normal" in2="shape" result="effect1_innerShadow_12654_667"/>
</filter>
</defs>
</svg>
