<svg width="244" height="169" viewBox="0 0 244 169" fill="none" xmlns="http://www.w3.org/2000/svg">
<rect width="244" height="169" rx="12" fill="#34373F"/>
<path d="M96.5355 80.5171C96.5128 78.6253 95.2467 77.3411 93.7318 77.3641C92.1378 77.387 90.9169 78.201 90.9508 80.4598L90.996 83.5211C91.0299 85.7798 92.1491 86.5709 93.8109 86.548C95.3597 86.5251 96.6033 85.1836 96.5807 83.716L96.5355 80.5171ZM93.7431 87.4997C91.2334 87.534 89.9898 86.2499 89.9559 83.716L89.9107 80.2993C89.8768 77.7195 91.109 76.4468 93.7318 76.4124C95.5293 76.3895 96.445 77.6736 96.5242 77.9259L96.5015 76.6073C96.5015 76.4927 96.8068 76.4927 97.0103 76.4812C97.2025 76.4812 97.5416 76.4697 97.5416 76.5844L97.6886 87.0869C97.7225 89.5291 96.8181 91.4324 94.1049 91.547C92.3526 91.6158 90.736 90.733 90.736 90.733C90.6455 90.6527 90.736 90.3775 90.8151 90.1826C90.8829 89.9992 91.0299 89.6896 91.1317 89.7354C91.1317 89.7354 92.7709 90.6871 94.0484 90.5954C95.8119 90.4807 96.6824 89.4603 96.6598 87.4538L96.6372 85.9518C96.6259 85.9633 95.6424 87.4767 93.7431 87.4997Z" fill="white"/>
<path d="M101.487 78.7284C101.024 79.3246 100.56 80.0355 100.56 80.0355L100.662 87.1098C100.662 87.2244 100.334 87.2359 100.142 87.2359C99.9383 87.2359 99.6331 87.2473 99.6331 87.1212L99.4861 76.5385C99.4861 76.4238 99.8139 76.4238 99.9948 76.4123C100.198 76.4123 100.515 76.4009 100.515 76.5155L100.549 78.9004C100.549 78.9004 101.08 78.1093 101.272 77.8226C102.007 76.7678 102.493 76.4123 103.42 76.4009H103.805C103.918 76.4009 103.929 76.7678 103.929 76.9627C103.929 77.1576 103.94 77.536 103.816 77.536C102.651 77.5704 102.312 77.6736 101.487 78.7284Z" fill="white"/>
<path d="M110.768 81.1936C110.768 81.1936 108.948 81.1592 107.807 81.3197C106.608 81.4688 105.172 81.8815 105.195 83.544L105.206 84.4842C105.229 85.7798 106.393 86.3531 107.547 86.3416C108.881 86.3187 110.203 85.39 110.814 84.6791L110.768 81.1936ZM111.379 87.0754C111.187 87.0754 110.87 87.0869 110.87 86.9608L110.859 85.883C110.859 85.883 109.638 87.2818 107.524 87.3048C105.466 87.3392 104.189 86.1353 104.166 84.3696L104.155 83.3262C104.11 80.4942 107.287 80.3107 108.858 80.2649L110.757 80.219C110.735 78.7399 110.361 77.1004 108.18 77.1348C107.219 77.1462 106.382 77.4329 105.546 77.903C105.455 77.9603 105.252 77.6507 105.172 77.4787C105.093 77.3067 104.969 76.9742 105.116 76.9169C105.161 76.9169 106.337 76.229 108.247 76.2061C110.26 76.1717 111.752 77.043 111.797 79.9668L111.899 86.9608C111.899 87.0754 111.571 87.0754 111.379 87.0754Z" fill="white"/>
<path d="M120.423 86.8233C120.423 86.938 120.106 86.9494 119.903 86.9494C119.711 86.9494 119.383 86.9609 119.372 86.8348L119.259 79.2904C119.236 77.5132 118.49 76.8826 117.303 77.0202C116.082 77.1578 114.612 79.4395 114.612 79.4395L114.725 86.9036C114.725 87.0182 114.397 87.0297 114.205 87.0297C114.013 87.0297 113.685 87.0412 113.685 86.915L113.538 76.3323C113.538 76.2176 113.843 76.2176 114.036 76.2062C114.228 76.2062 114.567 76.1947 114.567 76.3093L114.59 78.2356C115.132 77.4788 116.184 76.0571 117.563 76.0342C119.632 75.9998 120.106 77.6852 120.186 78.098C120.378 77.7999 121.474 75.9768 123.204 75.9539C125.16 75.9195 125.951 77.0088 125.974 78.8776L126.087 86.7316C126.087 86.8462 125.759 86.8577 125.567 86.8577C125.386 86.8577 125.047 86.8692 125.047 86.743L124.934 79.0382C124.911 77.6623 124.538 76.8138 123.023 76.917C121.689 77.0202 120.321 79.1184 120.321 79.1184L120.423 86.8233Z" fill="white"/>
<path d="M134.407 79.8176C134.373 77.5933 132.96 76.7907 131.434 76.8137C129.942 76.8366 128.642 77.6621 128.676 79.9094L128.687 80.9871L134.43 80.9069L134.407 79.8176ZM128.687 81.9502L128.698 82.9707C128.732 85.195 130.191 86.0205 131.728 85.9976C133.232 85.9747 134.136 85.5275 134.893 85.1033C135.006 85.0345 135.153 85.2982 135.244 85.4702C135.346 85.6422 135.481 85.9059 135.346 85.9747C134.362 86.5594 133.582 86.9148 131.785 86.9378C129.218 86.9722 127.692 85.539 127.658 83.0624L127.613 79.8062C127.579 77.2493 128.857 75.8964 131.411 75.862C134 75.8276 135.402 77.1003 135.436 79.6342L135.47 81.8471C135.47 81.8471 130.168 81.9273 128.687 81.9502Z" fill="white"/>
<path d="M143.508 79.6799C143.474 77.4556 142.072 76.653 140.546 76.676C139.042 76.6989 137.742 77.5244 137.776 79.7717L137.788 80.8494L143.53 80.7692L143.508 79.6799ZM137.799 81.8125L137.81 82.833C137.844 85.0573 139.314 85.8828 140.84 85.8599C142.355 85.837 143.259 85.3898 144.005 84.9656C144.118 84.8968 144.254 85.1605 144.356 85.3325C144.457 85.5045 144.593 85.7682 144.457 85.837C143.474 86.4217 142.683 86.7772 140.885 86.8001C138.33 86.8345 136.793 85.4013 136.759 82.9247L136.714 79.6685C136.68 77.1116 137.957 75.7587 140.512 75.7243C143.09 75.6899 144.503 76.9626 144.537 79.4965L144.571 81.7094C144.582 81.7094 139.28 81.7896 137.799 81.8125Z" fill="white"/>
<path d="M153.128 86.4562C152.936 86.4562 152.608 86.4677 152.608 86.3416L152.507 79.3705C152.473 77.1462 151.647 76.5041 150.144 76.527C148.64 76.55 147.205 78.9577 147.205 78.9577L147.318 86.4218C147.318 86.5365 146.99 86.548 146.809 86.548C146.605 86.548 146.278 86.5594 146.278 86.4333L146.131 75.8505C146.131 75.7359 146.458 75.7359 146.651 75.7244C146.843 75.7244 147.148 75.713 147.148 75.8276L147.171 77.7194C147.544 77.2035 148.437 75.5754 150.381 75.5524C152.394 75.518 153.524 76.7793 153.547 78.7857L153.66 86.3072C153.648 86.4562 153.321 86.4562 153.128 86.4562Z" fill="white"/>
<path d="M156.599 82.4202C156.622 84.3006 157.91 85.6077 159.403 85.5847C160.929 85.5618 162.218 84.7134 162.184 82.4776L162.138 79.4277C162.105 77.169 160.782 76.3779 159.267 76.4008C157.741 76.4237 156.531 77.7537 156.554 79.2328L156.599 82.4202ZM155.977 75.6097C156.169 75.6097 156.475 75.5982 156.475 75.7129L156.497 77.0543C156.497 77.0543 157.345 75.4606 159.244 75.4377C161.822 75.4033 163.133 76.676 163.167 79.2328L163.212 82.6381C163.246 85.1949 161.98 86.4905 159.391 86.5364C157.356 86.5708 156.622 85.0459 156.622 85.0459L156.689 90.1137C156.689 90.2283 156.362 90.2283 156.169 90.2283C155.977 90.2283 155.649 90.2398 155.649 90.1251L155.446 75.7243C155.457 75.6097 155.785 75.6097 155.977 75.6097Z" fill="white"/>
<path d="M171.804 86.181C171.612 86.181 171.284 86.1925 171.284 86.0664L171.183 79.0953C171.149 76.871 170.323 76.2289 168.82 76.2518C167.328 76.2748 165.892 78.6825 165.892 78.6825L166.005 86.1466C166.005 86.2613 165.677 86.2728 165.485 86.2728C165.281 86.2728 164.965 86.2842 164.953 86.1581L164.75 71.8261C164.75 71.7114 165.067 71.7 165.27 71.7C165.462 71.7 165.767 71.6885 165.779 71.8146L165.858 77.4557C166.242 76.9398 167.124 75.3116 169.069 75.2887C171.081 75.2543 172.211 76.5155 172.234 78.522L172.347 86.0434C172.324 86.181 171.997 86.181 171.804 86.181Z" fill="white"/>
<path d="M177.785 76.1257C176.292 76.1486 174.811 76.9856 174.845 79.2214L174.891 82.2827C174.924 84.507 176.405 85.3325 177.92 85.3096C179.424 85.2867 180.939 84.4612 180.905 82.191L180.86 79.1297C180.826 76.9053 179.311 76.1027 177.785 76.1257ZM173.85 82.4776L173.805 79.0609C173.771 76.504 175.218 75.2084 177.773 75.174C180.351 75.1396 181.866 76.4123 181.9 78.9462L181.945 82.363C181.979 84.8969 180.509 86.2154 177.932 86.2613C175.377 86.2957 173.884 85.0344 173.85 82.4776Z" fill="white"/>
<path d="M190.333 85.9057C190.13 85.9057 189.813 85.9172 189.813 85.791L189.712 78.82C189.678 76.5956 188.852 75.9536 187.337 75.9765C185.845 75.9994 184.409 78.4072 184.409 78.4072L184.523 85.8713C184.523 85.986 184.195 85.9974 184.002 85.9974C183.81 85.9974 183.482 86.0089 183.482 85.8828L183.313 75.3115C183.313 75.1968 183.652 75.1968 183.833 75.1854C184.036 75.1854 184.342 75.1739 184.342 75.2886L184.364 77.1804C184.737 76.6644 185.63 75.0363 187.575 75.0134C189.598 74.979 190.706 76.2402 190.74 78.2467L190.853 85.7681C190.853 85.9057 190.525 85.9057 190.333 85.9057Z" fill="white"/>
<path d="M199.117 78.8547C199.083 76.6304 197.682 75.8278 196.144 75.8508C194.652 75.8737 193.34 76.6992 193.374 78.9465L193.386 80.0242L199.129 79.944L199.117 78.8547ZM193.397 80.9874L193.408 82.0078C193.442 84.2321 194.912 85.0576 196.438 85.0347C197.953 85.0118 198.857 84.5646 199.603 84.1404C199.716 84.0716 199.852 84.3353 199.954 84.5073C200.056 84.6793 200.191 84.943 200.056 85.0118C199.083 85.5965 198.292 85.952 196.494 85.9749C193.928 86.0093 192.402 84.5761 192.368 82.0995L192.323 78.8433C192.289 76.2865 193.555 74.9335 196.121 74.8991C198.699 74.8647 200.112 76.1374 200.146 78.6713L200.18 80.8842C200.18 80.8842 194.878 80.9644 193.397 80.9874Z" fill="white"/>
<path d="M66.9389 77.1001C67.5946 77.1918 67.7302 77.0542 67.8094 76.4236C67.9337 75.4605 68.2503 73.8324 69.019 72.1584C69.8556 70.3583 71.1896 68.3633 73.0888 67.0218C74.6828 65.8982 77.3056 64.6484 79.3518 64.1783C81.025 63.7885 82.585 63.6968 83.9303 63.8C86.7001 64.0064 88.2376 64.786 89.0176 65.8065C89.3115 66.1848 89.4698 66.6664 89.4811 66.976C89.515 67.4919 89.3002 68.1684 88.5767 68.8334C87.8758 69.4755 86.3722 70.301 84.326 71.0348C82.1894 71.7915 79.284 72.5941 76.3673 73.3164C73.9367 73.9241 72.5462 74.4286 71.3931 74.8414C69.4712 75.5293 68.9173 77.4899 70.1269 78.0632C71.8792 78.9002 72.9758 79.783 73.9141 80.5283C75.3159 81.6634 76.9551 83.0049 78.99 85.4241C80.8441 87.6484 83.8738 91.9022 85.0043 96.0527C86.2479 100.616 85.5809 104.962 83.0372 106.211C80.5501 107.438 77.1925 105.776 74.8185 103.345C72.5575 101.04 70.9635 98.3114 69.4373 94.0921C68.1146 90.4575 67.5268 85.1719 67.4928 82.4087C67.4815 81.4914 67.4589 81.285 67.4815 80.4595C67.5607 79.7372 65.6162 79.1639 63.5587 80.5398C61.2185 82.1105 58.9462 84.9426 57.6122 86.5821C57.0244 87.293 56.2443 88.3478 55.3965 89.4485C54.2886 90.8932 53.0676 92.4067 51.9484 93.2551C50.264 94.5393 47.5395 95.1011 45.595 93.7367C44.521 92.9799 43.9332 91.5353 43.8879 90.0447C43.854 89.0014 44.1027 88.0497 44.6002 87.1096C45.2219 85.9515 46.262 84.7132 47.9238 83.28C49.6309 81.8124 52.378 80.1385 55.1364 78.969C59.3645 77.2033 63.9091 76.5956 66.9389 77.1001Z" fill="white"/>
</svg>
