<svg width="167" height="167" viewBox="0 0 167 167" fill="none" xmlns="http://www.w3.org/2000/svg">
<circle cx="83.5" cy="83.5" r="83" fill="#34373F" stroke="url(#paint0_linear_12938_710)"/>
<g clip-path="url(#clip0_12938_710)">
<path d="M83.9999 71.5C87.4449 71.5 90.2499 68.695 90.2499 65.25C90.2499 61.805 87.4449 59 83.9999 59C80.5549 59 77.7499 61.805 77.7499 65.25C77.7499 68.695 80.5549 71.5 83.9999 71.5ZM83.9999 61.5C86.0674 61.5 87.7499 63.1825 87.7499 65.25C87.7499 67.3175 86.0674 69 83.9999 69C81.9324 69 80.2499 67.3175 80.2499 65.25C80.2499 63.1825 81.9324 61.5 83.9999 61.5ZM85.2499 74H82.7499C77.9249 74 73.9999 77.925 73.9999 82.75V90.25C73.9999 93.7275 76.0549 96.7125 78.9999 98.1225V112.75C78.9999 113.44 79.5599 114 80.2499 114C80.9399 114 81.4999 113.44 81.4999 112.75V98.8725C81.9124 98.9325 82.3224 99 82.7499 99H85.2499C85.6774 99 86.0874 98.9325 86.4999 98.8725V112.75C86.4999 113.44 87.0599 114 87.7499 114C88.4399 114 88.9999 113.44 88.9999 112.75V98.1225C91.9449 96.7125 93.9999 93.7275 93.9999 90.25V82.75C93.9999 77.925 90.0749 74 85.2499 74ZM91.4999 90.25C91.4999 93.695 88.6949 96.5 85.2499 96.5H82.7499C79.3049 96.5 76.4999 93.695 76.4999 90.25V82.75C76.4999 79.305 79.3049 76.5 82.7499 76.5H85.2499C88.6949 76.5 91.4999 79.305 91.4999 82.75V90.25ZM104 66.5C107.445 66.5 110.25 63.695 110.25 60.25C110.25 56.805 107.445 54 104 54C100.555 54 97.7499 56.805 97.7499 60.25C97.7499 63.695 100.555 66.5 104 66.5ZM104 56.5C106.067 56.5 107.75 58.1825 107.75 60.25C107.75 62.3175 106.067 64 104 64C101.932 64 100.25 62.3175 100.25 60.25C100.25 58.1825 101.932 56.5 104 56.5ZM114 77.75V85.25C114 88.7275 111.945 91.7125 109 93.1225V107.75C109 108.44 108.44 109 107.75 109C107.06 109 106.5 108.44 106.5 107.75V93.8725C106.087 93.9325 105.677 94 105.25 94H101.5V107.75C101.5 108.44 100.94 109 100.25 109C99.5599 109 98.9999 108.44 98.9999 107.75V92.75C98.9999 92.06 99.5599 91.5 100.25 91.5H105.25C108.695 91.5 111.5 88.695 111.5 85.25V77.75C111.5 74.305 108.695 71.5 105.25 71.5H102.75C100.65 71.5 98.7024 72.545 97.5424 74.295C97.1599 74.8675 96.3849 75.025 95.8099 74.645C95.2349 74.2625 95.0799 73.4875 95.4599 72.9125C97.0874 70.465 99.8124 69.0025 102.752 69.0025H105.252C110.077 69.0025 114.002 72.9275 114.002 77.7525L114 77.75ZM63.9999 66.5C67.4449 66.5 70.2499 63.695 70.2499 60.25C70.2499 56.805 67.4449 54 63.9999 54C60.5549 54 57.7499 56.805 57.7499 60.25C57.7499 63.695 60.5549 66.5 63.9999 66.5ZM63.9999 56.5C66.0674 56.5 67.7499 58.1825 67.7499 60.25C67.7499 62.3175 66.0674 64 63.9999 64C61.9324 64 60.2499 62.3175 60.2499 60.25C60.2499 58.1825 61.9324 56.5 63.9999 56.5ZM72.5424 72.91C72.9249 73.485 72.7674 74.2625 72.1924 74.6425C71.6149 75.0225 70.8399 74.8675 70.4599 74.2925C69.2974 72.5425 67.3499 71.4975 65.2524 71.4975H62.7524C59.3074 71.4975 56.5024 74.3025 56.5024 77.7475V85.2475C56.5024 88.6925 59.3074 91.4975 62.7524 91.4975H67.7524C68.4424 91.4975 69.0024 92.0575 69.0024 92.7475V107.748C69.0024 108.438 68.4424 108.998 67.7524 108.998C67.0624 108.998 66.5024 108.438 66.5024 107.748V93.9975H62.7524C62.3249 93.9975 61.9149 93.93 61.5024 93.87V107.748C61.5024 108.438 60.9424 108.998 60.2524 108.998C59.5624 108.998 59.0024 108.438 59.0024 107.748V93.12C56.0574 91.71 54.0024 88.725 54.0024 85.2475V77.7475C54.0024 72.9225 57.9274 68.9975 62.7524 68.9975H65.2524C68.1899 68.9975 70.9174 70.46 72.5449 72.9075L72.5424 72.91Z" fill="white"/>
</g>
<defs>
<linearGradient id="paint0_linear_12938_710" x1="35.5413" y1="167" x2="131.459" y2="5.91043e-07" gradientUnits="userSpaceOnUse">
<stop stop-color="#4CAF4F"/>
<stop offset="0.298077" stop-color="#103E13"/>
<stop offset="0.697115" stop-color="#103E13"/>
<stop offset="1" stop-color="#00AD4D"/>
</linearGradient>
<clipPath id="clip0_12938_710">
<rect width="60" height="60" fill="white" transform="translate(54 54)"/>
</clipPath>
</defs>
</svg>
