<svg width="244" height="169" viewBox="0 0 244 169" fill="none" xmlns="http://www.w3.org/2000/svg">
<path d="M71.258 82.1536C71.258 81.5902 71.2007 81.0623 71.0841 80.5699C70.9675 80.0798 70.732 79.6961 70.3733 79.4233L73.2363 78.9863V87.5032C73.2363 87.5942 73.2826 87.6385 73.3706 87.6385C73.4234 87.6385 73.551 87.5254 73.7469 87.2947C73.9428 87.0685 74.2002 86.8201 74.5127 86.554C74.8252 86.2878 75.2037 86.0416 75.6439 85.8132C76.084 85.5847 76.5813 85.4694 77.1381 85.4694C77.9457 85.4694 78.6279 85.6646 79.1825 86.0571C79.7393 86.4497 80.1838 86.9487 80.5161 87.5609C80.8484 88.1708 81.0904 88.8451 81.2423 89.5837C81.3963 90.32 81.4712 91.0453 81.4712 91.755C81.4712 92.6666 81.3611 93.5316 81.1367 94.3522C80.9122 95.1707 80.5733 95.8915 80.1156 96.5125C79.66 97.1313 79.0747 97.6237 78.3572 97.9852C77.642 98.3512 76.7926 98.5331 75.8089 98.5331C75.3776 98.5331 74.9859 98.5109 74.6272 98.4643C74.2684 98.42 73.9163 98.3689 73.5664 98.3135C73.2187 98.258 72.8512 98.2093 72.4661 98.1627C72.081 98.1183 71.6475 98.0939 71.1633 98.0939C71.1919 96.9472 71.2162 95.805 71.2316 94.6672C71.247 93.5316 71.2536 92.3894 71.2536 91.2427V82.1536H71.258ZM79.1363 90.4686C79.0196 89.8587 78.8414 89.3086 78.5993 88.814C78.3572 88.3239 78.0338 87.9202 77.631 87.6119C77.2283 87.3036 76.7508 87.1461 76.194 87.1461C75.2433 87.1461 74.5149 87.5254 74.0044 88.2795C73.4938 89.0358 73.2385 90.0716 73.2385 91.3824V93.4872C73.2385 94.0351 73.265 94.5519 73.3178 95.0465C73.3706 95.5366 73.4916 95.9647 73.6809 96.3307C73.8701 96.6922 74.143 96.9849 74.4995 97.2045C74.8582 97.4241 75.3512 97.5328 75.9783 97.5328C76.6583 97.5328 77.2195 97.3664 77.6574 97.0293C78.0954 96.6922 78.4387 96.2641 78.6785 95.7451C78.9206 95.2261 79.0857 94.6561 79.1759 94.0373C79.2639 93.4185 79.3101 92.8263 79.3101 92.2607C79.3101 91.6752 79.2529 91.0786 79.1363 90.4686Z" fill="white"/>
<path d="M84.7677 84.2759C84.7677 83.6593 84.7457 83.0294 84.6995 82.384C84.6533 81.7408 84.4816 81.1819 84.1779 80.7095H87.787C87.4833 81.1797 87.3095 81.7364 87.2633 82.3818C87.217 83.025 87.195 83.6549 87.195 84.2715V88.51C87.5163 88.4568 87.8508 88.3015 88.2007 88.0486C88.5506 87.7958 88.9071 87.4875 89.2746 87.1238C89.6422 86.7622 90.0031 86.3674 90.3618 85.9416C90.7183 85.5158 91.0682 85.1032 91.4071 84.704C92.1399 83.8346 92.7209 83.1182 93.15 82.557C93.5791 81.9959 93.7948 81.5523 93.7948 81.2263C93.7948 81.1176 93.7948 81.0178 93.7948 80.9268C93.7948 80.8359 93.786 80.7649 93.7684 80.7095H97.0935C96.4686 81.2706 95.881 81.7874 95.3352 82.2576C94.7895 82.7278 94.2239 83.2912 93.6341 83.9432L89.4771 88.5078L93.929 94.9686C94.2855 95.4965 94.6794 96.0266 95.1086 96.5633C95.5377 97.1001 95.958 97.6058 96.3695 98.076H93.5527C93.3018 98.076 93.106 98.0072 92.9629 97.8719C92.8199 97.7366 92.6768 97.557 92.5338 97.3396L87.7078 89.9295C87.6528 89.8385 87.5845 89.7432 87.5053 89.6434C87.4261 89.5435 87.3601 89.4925 87.3051 89.4925C87.25 89.4925 87.2192 89.5214 87.2104 89.5746C87.2016 89.6278 87.1972 89.6833 87.1972 89.7387V94.5073C87.1972 95.1261 87.2192 95.756 87.2655 96.4036C87.3095 97.0468 87.4855 97.6058 87.7892 98.0782H84.1801C84.4838 97.6058 84.6577 97.0491 84.7017 96.4036C84.7457 95.7604 84.7699 95.1305 84.7699 94.514V84.2759H84.7677Z" fill="white"/>
<path d="M104.514 98.2579C104.391 97.75 104.314 97.3396 104.287 97.0313C104.261 96.723 104.195 96.57 104.089 96.57C104.034 96.57 103.999 96.5789 103.982 96.5966C103.964 96.6144 103.944 96.6321 103.929 96.6499C103.748 96.9049 103.572 97.1467 103.403 97.3729C103.231 97.6014 103.029 97.7987 102.795 97.9717C102.562 98.1447 102.283 98.28 101.961 98.3799C101.638 98.4797 101.242 98.5307 100.775 98.5307C99.8399 98.5307 99.0499 98.2756 98.4029 97.7677C97.7559 97.2598 97.4324 96.5057 97.4324 95.5054C97.4324 94.9043 97.5975 94.392 97.9276 93.9639C98.2599 93.5359 98.6714 93.1588 99.1643 92.8328C99.6573 92.5045 100.185 92.2184 100.751 91.9744C101.317 91.7282 101.823 91.4976 102.272 91.278C102.648 91.0961 102.963 90.9409 103.211 90.8122C103.462 90.6836 103.66 90.5372 103.803 90.3731C103.946 90.2089 104.045 89.9982 104.098 89.7432C104.151 89.4859 104.18 89.1399 104.18 88.7007C104.18 88.0243 104.028 87.4543 103.724 86.9885C103.42 86.5205 102.875 86.2876 102.087 86.2876C101.442 86.2876 100.997 86.4251 100.747 86.6957C100.496 86.9685 100.304 87.2679 100.17 87.5962C100.036 87.9245 99.8884 88.2239 99.7277 88.4967C99.5671 88.7695 99.2722 88.9048 98.843 88.9048C98.5372 88.9048 98.2951 88.8294 98.1168 88.6719C97.9386 88.5189 97.8506 88.2771 97.8506 87.9511C97.8506 87.4964 98.0024 87.1105 98.3061 86.7933C98.6098 86.4761 98.9927 86.2166 99.4592 86.017C99.9236 85.8174 100.439 85.6777 101.002 85.5956C101.565 85.5136 102.104 85.4736 102.624 85.4736C103.106 85.4736 103.561 85.5047 103.99 85.569C104.419 85.6333 104.794 85.7464 105.115 85.9106C105.436 86.0747 105.689 86.3031 105.876 86.5937C106.063 86.8865 106.158 87.2502 106.158 87.6871V93.6956C106.158 94.514 106.18 95.3102 106.224 96.0843C106.268 96.8583 106.497 97.5282 106.908 98.0915L104.514 98.2579ZM100.258 96.5123C100.643 96.8295 101.143 96.9892 101.752 96.9892C102.146 96.9892 102.498 96.9049 102.802 96.7319C103.108 96.5611 103.363 96.3349 103.57 96.0532C103.777 95.7715 103.931 95.4499 104.028 95.0884C104.127 94.7247 104.177 94.3543 104.177 93.975V91.2314L102.723 91.9656C102.219 92.2184 101.779 92.4491 101.402 92.6576C101.026 92.8683 100.707 93.0834 100.447 93.3096C100.188 93.5359 99.994 93.7909 99.8685 94.0726C99.7409 94.3543 99.6793 94.6825 99.6793 95.064C99.6793 95.7117 99.873 96.1952 100.258 96.5123Z" fill="white"/>
<path d="M166.658 87.5121L160.36 78.6248L170.978 76.8105L166.658 87.5121Z" fill="white"/>
<path d="M171.788 76.8105L175.747 81.0734H169.988L171.788 76.8105Z" fill="white"/>
<path d="M149.922 96.4905L166.029 88.4194L165.487 90.3247L149.922 96.4905Z" fill="white"/>
<path d="M111.292 89.3191C111.569 89.6828 111.913 90.0066 112.324 90.2905C112.736 90.5722 113.182 90.8384 113.664 91.0823C114.146 91.3285 114.593 91.6102 115.005 91.9274C115.416 92.2467 115.759 92.6149 116.037 93.0363C116.314 93.4555 116.453 93.9834 116.453 94.6199C116.453 95.2765 116.314 95.8465 116.037 96.33C115.759 96.8113 115.392 97.2172 114.934 97.5454C114.476 97.8737 113.966 98.1176 113.403 98.2818C112.839 98.4459 112.269 98.528 111.697 98.528C111.158 98.528 110.652 98.477 110.179 98.3771C109.703 98.2773 109.215 98.1265 108.713 97.9269C108.57 97.8737 108.458 97.8071 108.378 97.7362C108.299 97.663 108.257 97.5255 108.257 97.3258C108.257 96.9976 108.275 96.6693 108.31 96.3433C108.345 96.015 108.374 95.6779 108.392 95.3319C108.605 95.6757 108.81 95.984 109.008 96.2568C109.204 96.5296 109.428 96.758 109.679 96.9488C109.93 97.1395 110.214 97.2837 110.526 97.3835C110.839 97.4833 111.222 97.5343 111.668 97.5343C112.476 97.5343 113.099 97.3436 113.539 96.9621C113.979 96.5806 114.199 95.9973 114.199 95.2144C114.199 94.6687 114.069 94.2096 113.812 93.837C113.552 93.4644 113.227 93.1361 112.833 92.8545C112.439 92.5706 112.01 92.3066 111.545 92.0627C111.079 91.8165 110.652 91.5348 110.258 91.2176C109.864 90.9005 109.538 90.5168 109.279 90.0709C109.019 89.6251 108.889 89.0662 108.889 88.392C108.889 87.3562 109.25 86.6087 109.974 86.1563C110.698 85.7016 111.695 85.4731 112.962 85.4731C113.374 85.4731 113.781 85.5042 114.184 85.5685C114.587 85.6328 114.991 85.7105 115.403 85.8014C115.438 85.8191 115.506 85.8435 115.603 85.8702C115.702 85.8968 115.751 85.9567 115.751 86.0476C115.751 86.3027 115.744 86.6043 115.737 86.9503C115.729 87.2963 115.715 87.6135 115.698 87.9062C115.429 87.578 115.192 87.3074 114.987 87.0989C114.782 86.8882 114.571 86.7241 114.358 86.6065C114.142 86.489 113.92 86.4069 113.686 86.3603C113.453 86.316 113.185 86.2916 112.881 86.2916C112.362 86.2916 111.897 86.4246 111.486 86.6886C111.074 86.9525 110.87 87.3784 110.87 87.9572C110.874 88.5006 111.015 88.9553 111.292 89.3191Z" fill="white"/>
<path d="M128.107 95.1281C128.107 95.6382 128.125 96.1616 128.16 96.6984C128.197 97.2329 128.321 97.692 128.536 98.0757H126.129V90.5857C126.129 90.1488 126.107 89.7096 126.061 89.2727C126.017 88.8336 125.907 88.4432 125.735 88.0972C125.563 87.7512 125.321 87.4673 125.004 87.2499C124.687 87.0326 124.26 86.9217 123.719 86.9217C123.178 86.9217 122.746 87.0326 122.421 87.2499C122.095 87.4673 121.838 87.7601 121.65 88.1238C121.461 88.4876 121.334 88.8979 121.27 89.3548C121.206 89.8094 121.175 90.2641 121.175 90.721V95.1214C121.175 95.6316 121.193 96.155 121.23 96.694C121.268 97.2329 121.415 97.692 121.672 98.0735H118.715C118.966 97.692 119.107 97.2329 119.144 96.6962C119.179 96.1594 119.197 95.6382 119.197 95.1281V82.1465C119.197 81.5831 119.17 81.0552 119.118 80.5651C119.065 80.0749 118.858 79.6912 118.501 79.4184L121.177 78.9814V86.6932C121.177 86.8019 121.182 86.9017 121.188 86.9927C121.195 87.0836 121.221 87.128 121.268 87.128C121.32 87.128 121.424 87.0415 121.578 86.8685C121.732 86.6955 121.952 86.5047 122.24 86.2962C122.529 86.0877 122.885 85.897 123.31 85.724C123.732 85.551 124.234 85.4645 124.811 85.4645C125.836 85.4645 126.644 85.7373 127.229 86.2829C127.814 86.8285 128.107 87.7379 128.107 89.011V95.1281Z" fill="white"/>
<path d="M125.537 61.939L148.302 64.931L142.902 83.9765L125.537 61.939Z" fill="white"/>
<path d="M149.112 65.022L166.029 87.6938L146.502 97.1245L144.073 87.1482C144.073 87.1482 143.443 83.5196 144.431 80.7095L149.112 65.022Z" fill="white"/>
<path d="M142.902 85.9702L136.155 108.824L146.412 100.662L142.902 85.9702Z" fill="white"/>
<path d="M134.355 74.1819L127.786 65.7471L125.266 65.838L134.355 74.1819Z" fill="white"/>
<path d="M143.93 85.8882C143.987 86.6534 144.073 87.148 144.073 87.148L146.502 97.1243L166.029 87.6936L165.85 87.4541L143.93 85.8882Z" fill="white"/>
<rect width="244" height="169" rx="12" fill="#1C7142" fill-opacity="0.2"/>
</svg>
