<svg width="244" height="169" viewBox="0 0 244 169" fill="none" xmlns="http://www.w3.org/2000/svg">
<rect width="244" height="169" rx="12" fill="#34373F"/>
<path d="M88.7178 76.4302V88.161C88.7178 89.2106 87.8565 90.0726 86.8077 90.0726H85.3978C84.342 90.0726 83.4877 89.2141 83.4877 88.161V76.4302H81.0879C79.9211 76.4302 78.973 77.3791 78.973 78.5469V88.161C78.973 91.7132 81.8485 94.2019 85.3978 94.2019H86.8077C90.357 94.2019 93.2325 91.7132 93.2325 88.161V78.5469C93.2325 77.3791 92.2844 76.4302 91.1176 76.4302H88.7178Z" fill="white"/>
<path d="M108.913 86.9443C108.107 86.9443 107.398 87.4309 107.048 88.1574C106.495 89.3044 105.318 90.1003 103.964 90.1003H103.224C101.335 90.1003 99.8032 88.5675 99.8032 86.6767V83.5033C99.8032 81.6125 101.335 80.0796 103.224 80.0796H103.964C105.242 80.0796 106.363 80.7887 106.95 81.8349C107.298 82.4571 107.982 82.8186 108.697 82.8186H111.521C111.173 78.95 107.919 75.9087 103.964 75.9087H103.224C99.0322 75.9087 95.6357 79.308 95.6357 83.5033V86.6767C95.6357 90.872 99.0322 94.2713 103.224 94.2713H103.964C108.058 94.2713 111.406 91.011 111.545 86.9443H108.913Z" fill="white"/>
<path d="M125.784 84.5148C126.78 83.8753 127.44 82.7561 127.44 81.484V80.8166C127.44 78.314 125.412 76.2842 122.912 76.2842H115.212C114.136 76.2842 113.261 77.1601 113.261 78.241V91.8244C113.261 92.9367 114.16 93.8369 115.271 93.8369H122.78C125.579 93.8369 127.847 91.5672 127.847 88.7692V87.365C127.847 86.0338 126.978 84.9076 125.784 84.5148ZM117.515 80.2257H121.87C122.436 80.2257 122.898 80.6845 122.898 81.2511V81.6508C122.898 82.3181 122.356 82.7457 121.689 82.7457H117.515V80.2257ZM123.318 88.3521C123.318 89.1898 122.637 89.871 121.8 89.871H117.515V86.5517H122.102C122.773 86.5517 123.318 87.0974 123.318 87.7682V88.3521Z" fill="white"/>
<path d="M152.924 100.782C152.924 100.782 153.33 98.2408 151.955 96.8644C151.108 96.0163 142.69 87.3825 136.345 80.8723C132.42 76.8439 132.5 70.3963 136.522 66.4617C140.464 62.6105 146.774 62.687 150.622 66.632L162.44 78.7486C165.944 82.3391 165.878 88.095 162.294 91.6056L152.924 100.782Z" fill="white"/>
<path d="M151.709 98.9534C152.23 100.323 151.816 101.873 150.771 102.895C150.708 102.954 150.649 103.013 150.59 103.072C146.565 107 140.12 106.92 136.192 102.891C134.299 100.952 133.355 98.4355 133.355 95.9225C133.355 93.3296 134.362 90.7367 136.362 88.7798L139.335 85.874C144.777 91.4527 150.319 97.1391 151 97.8203C151.323 98.1505 151.552 98.5433 151.709 98.9534Z" fill="white"/>
</svg>
