<svg width="38" height="38" viewBox="0 0 38 38" fill="none" xmlns="http://www.w3.org/2000/svg">
<circle cx="19" cy="19" r="19" fill="#D9D9D9" fill-opacity="0.15"/>
<path d="M21.4 16.88L16.81 12.29C16.6226 12.1037 16.3692 11.9992 16.105 11.9992C15.8408 11.9992 15.5873 12.1037 15.4 12.29C15.3063 12.383 15.2319 12.4936 15.1811 12.6154C15.1303 12.7373 15.1042 12.868 15.1042 13C15.1042 13.132 15.1303 13.2627 15.1811 13.3846C15.2319 13.5064 15.3063 13.617 15.4 13.71L20 18.29C20.0937 18.383 20.1681 18.4936 20.2189 18.6154C20.2696 18.7373 20.2958 18.868 20.2958 19C20.2958 19.132 20.2696 19.2627 20.2189 19.3846C20.1681 19.5064 20.0937 19.617 20 19.71L15.4 24.29C15.2117 24.477 15.1054 24.7311 15.1044 24.9965C15.1035 25.2618 15.208 25.5167 15.395 25.705C15.582 25.8933 15.8361 25.9996 16.1014 26.0006C16.3668 26.0015 16.6217 25.897 16.81 25.71L21.4 21.12C21.9618 20.5575 22.2773 19.795 22.2773 19C22.2773 18.205 21.9618 17.4425 21.4 16.88Z" fill="white"/>
</svg>
