<svg width="155" height="38" viewBox="0 0 155 38" fill="none" xmlns="http://www.w3.org/2000/svg">
<circle cx="136" cy="19" r="19" fill="#D9D9D9" fill-opacity="0.15"/>
<path d="M138.4 16.88L133.81 12.29C133.623 12.1037 133.369 11.9992 133.105 11.9992C132.841 11.9992 132.587 12.1037 132.4 12.29C132.306 12.383 132.232 12.4936 132.181 12.6154C132.13 12.7373 132.104 12.868 132.104 13C132.104 13.132 132.13 13.2627 132.181 13.3846C132.232 13.5064 132.306 13.617 132.4 13.71L137 18.29C137.094 18.383 137.168 18.4936 137.219 18.6154C137.27 18.7373 137.296 18.868 137.296 19C137.296 19.132 137.27 19.2627 137.219 19.3846C137.168 19.5064 137.094 19.617 137 19.71L132.4 24.29C132.212 24.477 132.105 24.7311 132.104 24.9965C132.104 25.2618 132.208 25.5167 132.395 25.705C132.582 25.8933 132.836 25.9996 133.102 26.0006C133.367 26.0015 133.622 25.897 133.81 25.71L138.4 21.12C138.962 20.5575 139.277 19.795 139.277 19C139.277 18.205 138.962 17.4425 138.4 16.88Z" fill="white"/>
<circle cx="19" cy="19" r="19" fill="#D9D9D9" fill-opacity="0.15"/>
<path d="M15.6 16.88L20.19 12.29C20.3773 12.1037 20.6308 11.9992 20.895 11.9992C21.1591 11.9992 21.4126 12.1037 21.6 12.29C21.6937 12.383 21.7681 12.4936 21.8188 12.6154C21.8696 12.7373 21.8958 12.868 21.8958 13C21.8958 13.132 21.8696 13.2627 21.8188 13.3846C21.7681 13.5064 21.6937 13.617 21.6 13.71L17 18.29C16.9062 18.383 16.8318 18.4936 16.7811 18.6154C16.7303 18.7373 16.7042 18.868 16.7042 19C16.7042 19.132 16.7303 19.2627 16.7811 19.3846C16.8318 19.5064 16.9062 19.617 17 19.71L21.6 24.29C21.7883 24.477 21.8946 24.7311 21.8955 24.9965C21.8964 25.2618 21.7919 25.5167 21.605 25.705C21.418 25.8933 21.1639 25.9996 20.8985 26.0006C20.6331 26.0015 20.3783 25.897 20.19 25.71L15.6 21.12C15.0382 20.5575 14.7226 19.795 14.7226 19C14.7226 18.205 15.0382 17.4425 15.6 16.88Z" fill="white"/>
<rect x="81" y="16" width="25" height="6" rx="3" fill="url(#paint0_linear_13193_216)" fill-opacity="0.5"/>
<rect x="49" y="16" width="10" height="6" rx="3" fill="#D9D9D9"/>
<rect x="65" y="16" width="10" height="6" rx="3" fill="#D9D9D9"/>
<defs>
<linearGradient id="paint0_linear_13193_216" x1="102.274" y1="17.1719" x2="81.0665" y2="20.3828" gradientUnits="userSpaceOnUse">
<stop stop-color="#7FC241"/>
<stop offset="1" stop-color="#00A046"/>
</linearGradient>
</defs>
</svg>
