<svg width="244" height="169" viewBox="0 0 244 169" fill="none" xmlns="http://www.w3.org/2000/svg">
<rect width="244" height="169" rx="12" fill="#34373F"/>
<path d="M111.292 89.3191C111.569 89.6828 111.913 90.0066 112.324 90.2905C112.736 90.5722 113.182 90.8384 113.664 91.0823C114.146 91.3285 114.593 91.6102 115.005 91.9274C115.416 92.2467 115.759 92.6149 116.037 93.0363C116.314 93.4555 116.453 93.9834 116.453 94.6199C116.453 95.2765 116.314 95.8465 116.037 96.33C115.759 96.8113 115.392 97.2172 114.934 97.5454C114.476 97.8737 113.966 98.1176 113.403 98.2818C112.839 98.4459 112.269 98.528 111.697 98.528C111.158 98.528 110.652 98.477 110.179 98.3771C109.703 98.2773 109.215 98.1265 108.713 97.9269C108.57 97.8737 108.458 97.8071 108.378 97.7362C108.299 97.663 108.257 97.5255 108.257 97.3258C108.257 96.9976 108.275 96.6693 108.31 96.3433C108.345 96.015 108.374 95.6779 108.392 95.3319C108.605 95.6757 108.81 95.984 109.008 96.2568C109.204 96.5296 109.428 96.758 109.679 96.9488C109.93 97.1395 110.214 97.2837 110.526 97.3835C110.839 97.4833 111.222 97.5343 111.668 97.5343C112.476 97.5343 113.099 97.3436 113.539 96.9621C113.979 96.5806 114.199 95.9973 114.199 95.2144C114.199 94.6687 114.069 94.2096 113.812 93.837C113.552 93.4644 113.227 93.1361 112.833 92.8545C112.439 92.5706 112.01 92.3066 111.545 92.0627C111.079 91.8165 110.652 91.5348 110.258 91.2176C109.864 90.9005 109.538 90.5168 109.279 90.0709C109.019 89.6251 108.889 89.0662 108.889 88.392C108.889 87.3562 109.25 86.6087 109.974 86.1563C110.698 85.7016 111.695 85.4731 112.962 85.4731C113.374 85.4731 113.781 85.5042 114.184 85.5685C114.587 85.6328 114.991 85.7105 115.403 85.8014C115.438 85.8191 115.506 85.8435 115.603 85.8702C115.702 85.8968 115.751 85.9567 115.751 86.0476C115.751 86.3027 115.744 86.6043 115.737 86.9503C115.729 87.2963 115.715 87.6135 115.698 87.9062C115.429 87.578 115.192 87.3074 114.987 87.0989C114.782 86.8882 114.571 86.7241 114.358 86.6065C114.142 86.489 113.92 86.4069 113.686 86.3603C113.453 86.316 113.185 86.2916 112.881 86.2916C112.362 86.2916 111.897 86.4246 111.486 86.6886C111.074 86.9525 110.87 87.3784 110.87 87.9572C110.874 88.5006 111.015 88.9553 111.292 89.3191Z" fill="white"/>
<path d="M128.107 95.1281C128.107 95.6382 128.125 96.1616 128.16 96.6984C128.197 97.2329 128.321 97.692 128.536 98.0757H126.129V90.5857C126.129 90.1488 126.107 89.7096 126.061 89.2727C126.017 88.8336 125.907 88.4432 125.735 88.0972C125.563 87.7512 125.321 87.4673 125.004 87.2499C124.687 87.0326 124.26 86.9217 123.719 86.9217C123.178 86.9217 122.746 87.0326 122.421 87.2499C122.095 87.4673 121.838 87.7601 121.65 88.1238C121.461 88.4876 121.334 88.8979 121.27 89.3548C121.206 89.8094 121.175 90.2641 121.175 90.721V95.1214C121.175 95.6316 121.193 96.155 121.23 96.694C121.268 97.2329 121.415 97.692 121.672 98.0735H118.715C118.966 97.692 119.107 97.2329 119.144 96.6962C119.179 96.1594 119.197 95.6382 119.197 95.1281V82.1465C119.197 81.5831 119.17 81.0552 119.118 80.5651C119.065 80.0749 118.858 79.6912 118.501 79.4184L121.177 78.9814V86.6932C121.177 86.8019 121.182 86.9017 121.188 86.9927C121.195 87.0836 121.221 87.128 121.268 87.128C121.32 87.128 121.424 87.0415 121.578 86.8685C121.732 86.6955 121.952 86.5047 122.24 86.2962C122.529 86.0877 122.885 85.897 123.31 85.724C123.732 85.551 124.234 85.4645 124.811 85.4645C125.836 85.4645 126.644 85.7373 127.229 86.2829C127.814 86.8285 128.107 87.7379 128.107 89.011V95.1281Z" fill="white"/>
<path d="M125.537 61.939L148.302 64.931L142.902 83.9765L125.537 61.939Z" fill="white"/>
<path d="M149.112 65.022L166.029 87.6938L146.502 97.1245L144.073 87.1482C144.073 87.1482 143.443 83.5196 144.431 80.7095L149.112 65.022Z" fill="white"/>
<path d="M142.902 85.9702L136.155 108.824L146.412 100.662L142.902 85.9702Z" fill="white"/>
<path d="M134.355 74.1819L127.786 65.7471L125.266 65.838L134.355 74.1819Z" fill="white"/>
<path d="M143.93 85.8882C143.987 86.6534 144.073 87.148 144.073 87.148L146.502 97.1243L166.029 87.6936L165.85 87.4541L143.93 85.8882Z" fill="white"/>
<path d="M71.258 82.1531C71.258 81.5897 71.2007 81.0618 71.0841 80.5695C70.9675 80.0793 70.732 79.6956 70.3733 79.4228L73.2363 78.9858V87.5027C73.2363 87.5937 73.2825 87.638 73.3706 87.638C73.4234 87.638 73.551 87.5249 73.7469 87.2943C73.9427 87.068 74.2002 86.8196 74.5127 86.5535C74.8252 86.2873 75.2037 86.0411 75.6438 85.8127C76.084 85.5842 76.5813 85.4689 77.1381 85.4689C77.9457 85.4689 78.6279 85.6641 79.1825 86.0566C79.7392 86.4492 80.1838 86.9483 80.5161 87.5604C80.8484 88.1703 81.0904 88.8446 81.2423 89.5832C81.3963 90.3195 81.4711 91.0448 81.4711 91.7545C81.4711 92.6661 81.3611 93.5311 81.1366 94.3518C80.9122 95.1702 80.5733 95.891 80.1155 96.512C79.66 97.1308 79.0746 97.6232 78.3572 97.9848C77.642 98.3507 76.7926 98.5326 75.8089 98.5326C75.3776 98.5326 74.9858 98.5104 74.6271 98.4638C74.2684 98.4195 73.9163 98.3685 73.5664 98.313C73.2187 98.2576 72.8512 98.2088 72.4661 98.1622C72.081 98.1178 71.6475 98.0934 71.1633 98.0934C71.1919 96.9468 71.2161 95.8045 71.2315 94.6667C71.2469 93.5311 71.2535 92.3889 71.2535 91.2422V82.1531H71.258ZM79.1363 90.4681C79.0196 89.8582 78.8414 89.3082 78.5993 88.8135C78.3572 88.3234 78.0337 87.9197 77.631 87.6114C77.2283 87.3031 76.7508 87.1457 76.194 87.1457C75.2433 87.1457 74.5149 87.5249 74.0044 88.279C73.4938 89.0353 73.2385 90.0711 73.2385 91.3819V93.4868C73.2385 94.0346 73.2649 94.5514 73.3178 95.046C73.3706 95.5361 73.4916 95.9642 73.6809 96.3302C73.8701 96.6917 74.143 96.9845 74.4995 97.204C74.8582 97.4236 75.3511 97.5323 75.9783 97.5323C76.6583 97.5323 77.2195 97.3659 77.6574 97.0288C78.0954 96.6917 78.4387 96.2636 78.6785 95.7446C78.9206 95.2256 79.0856 94.6556 79.1759 94.0368C79.2639 93.418 79.3101 92.8258 79.3101 92.2602C79.3101 91.6747 79.2529 91.0781 79.1363 90.4681Z" fill="white"/>
<path d="M84.7678 84.2754C84.7678 83.6589 84.7457 83.029 84.6995 82.3835C84.6533 81.7403 84.4817 81.1814 84.178 80.709H87.787C87.4833 81.1792 87.3095 81.7359 87.2633 82.3813C87.2171 83.0245 87.1951 83.6544 87.1951 84.271V88.5095C87.5164 88.4563 87.8509 88.301 88.2008 88.0482C88.5507 87.7953 88.9072 87.487 89.2747 87.1233C89.6422 86.7618 90.0031 86.367 90.3618 85.9411C90.7183 85.5153 91.0682 85.1027 91.4071 84.7035C92.1399 83.8341 92.7209 83.1177 93.15 82.5565C93.5791 81.9954 93.7948 81.5518 93.7948 81.2258C93.7948 81.1171 93.7948 81.0173 93.7948 80.9263C93.7948 80.8354 93.786 80.7644 93.7684 80.709H97.0936C96.4686 81.2701 95.881 81.7869 95.3352 82.2571C94.7895 82.7273 94.2239 83.2907 93.6341 83.9427L89.4771 88.5073L93.929 94.9681C94.2855 95.496 94.6795 96.0261 95.1086 96.5628C95.5377 97.0996 95.958 97.6053 96.3695 98.0755H93.5527C93.3019 98.0755 93.106 98.0067 92.963 97.8714C92.8199 97.7361 92.6769 97.5565 92.5338 97.3391L87.7078 89.929C87.6528 89.838 87.5846 89.7427 87.5054 89.6429C87.4261 89.5431 87.3601 89.492 87.3051 89.492C87.2501 89.492 87.2193 89.5209 87.2105 89.5741C87.2017 89.6273 87.1973 89.6828 87.1973 89.7382V94.5068C87.1973 95.1256 87.2193 95.7555 87.2655 96.4032C87.3095 97.0464 87.4855 97.6053 87.7892 98.0777H84.1802C84.4839 97.6053 84.6577 97.0486 84.7017 96.4032C84.7457 95.76 84.77 95.1301 84.77 94.5135V84.2754H84.7678Z" fill="white"/>
<path d="M104.514 98.2574C104.391 97.7495 104.314 97.3391 104.287 97.0309C104.261 96.7226 104.195 96.5695 104.089 96.5695C104.034 96.5695 103.999 96.5784 103.981 96.5961C103.964 96.6139 103.944 96.6316 103.929 96.6494C103.748 96.9044 103.572 97.1462 103.403 97.3724C103.231 97.6009 103.029 97.7983 102.795 97.9713C102.562 98.1443 102.283 98.2796 101.961 98.3794C101.638 98.4792 101.242 98.5302 100.775 98.5302C99.8399 98.5302 99.0498 98.2751 98.4029 97.7672C97.7559 97.2593 97.4324 96.5052 97.4324 95.5049C97.4324 94.9038 97.5974 94.3915 97.9275 93.9634C98.2598 93.5354 98.6713 93.1583 99.1643 92.8323C99.6572 92.504 100.185 92.2179 100.751 91.9739C101.317 91.7277 101.823 91.4971 102.272 91.2775C102.648 91.0956 102.963 90.9404 103.211 90.8117C103.462 90.6831 103.66 90.5367 103.803 90.3726C103.946 90.2085 104.045 89.9977 104.098 89.7427C104.151 89.4854 104.18 89.1394 104.18 88.7003C104.18 88.0238 104.028 87.4538 103.724 86.988C103.42 86.52 102.875 86.2871 102.087 86.2871C101.442 86.2871 100.997 86.4246 100.747 86.6952C100.496 86.968 100.304 87.2675 100.17 87.5957C100.036 87.924 99.8883 88.2234 99.7276 88.4962C99.567 88.769 99.2721 88.9043 98.843 88.9043C98.5371 88.9043 98.295 88.8289 98.1168 88.6714C97.9385 88.5184 97.8505 88.2766 97.8505 87.9506C97.8505 87.4959 98.0023 87.11 98.306 86.7928C98.6097 86.4757 98.9926 86.2162 99.4592 86.0165C99.9235 85.8169 100.438 85.6772 101.002 85.5951C101.565 85.5131 102.104 85.4731 102.624 85.4731C103.106 85.4731 103.561 85.5042 103.99 85.5685C104.419 85.6328 104.794 85.746 105.115 85.9101C105.436 86.0742 105.689 86.3027 105.876 86.5932C106.063 86.886 106.158 87.2497 106.158 87.6867V93.6951C106.158 94.5135 106.18 95.3097 106.224 96.0838C106.268 96.8579 106.497 97.5277 106.908 98.091L104.514 98.2574ZM100.258 96.5119C100.643 96.829 101.143 96.9887 101.752 96.9887C102.146 96.9887 102.498 96.9044 102.802 96.7314C103.108 96.5606 103.363 96.3344 103.57 96.0527C103.777 95.7711 103.931 95.4495 104.028 95.0879C104.127 94.7242 104.177 94.3538 104.177 93.9745V91.2309L102.723 91.9651C102.219 92.2179 101.779 92.4486 101.402 92.6571C101.026 92.8678 100.707 93.0829 100.447 93.3091C100.188 93.5354 99.9939 93.7904 99.8685 94.0721C99.7409 94.3538 99.6792 94.682 99.6792 95.0635C99.6792 95.7112 99.8729 96.1947 100.258 96.5119Z" fill="white"/>
<path d="M166.658 87.5116L160.36 78.6243L170.978 76.8101L166.658 87.5116Z" fill="white"/>
<path d="M171.788 76.8101L175.747 81.0729H169.988L171.788 76.8101Z" fill="white"/>
<path d="M149.922 96.49L166.029 88.4189L165.487 90.3242L149.922 96.49Z" fill="white"/>
</svg>
