<svg width="33" height="43" viewBox="0 0 33 43" fill="none" xmlns="http://www.w3.org/2000/svg">
<path d="M11.63 12.8586H10.0078V15.1414H11.63V12.8586Z" fill="url(#paint0_linear_12937_351)"/>
<path d="M15.2863 12.8586H13.6641V15.1414H15.2863V12.8586Z" fill="url(#paint1_linear_12937_351)"/>
<path d="M18.943 12.8586H17.3208V15.1414H18.943V12.8586Z" fill="url(#paint2_linear_12937_351)"/>
<path d="M22.5992 12.8586H20.9771V15.1414H22.5992V12.8586Z" fill="url(#paint3_linear_12937_351)"/>
<path d="M11.63 16.97H10.0078V19.2528H11.63V16.97Z" fill="url(#paint4_linear_12937_351)"/>
<path d="M15.2863 16.97H13.6641V19.2528H15.2863V16.97Z" fill="url(#paint5_linear_12937_351)"/>
<path d="M18.943 16.97H17.3208V19.2528H18.943V16.97Z" fill="url(#paint6_linear_12937_351)"/>
<path d="M22.5992 16.97H20.9771V19.2528H22.5992V16.97Z" fill="url(#paint7_linear_12937_351)"/>
<path d="M11.63 21.0889H10.0078V23.3717H11.63V21.0889Z" fill="url(#paint8_linear_12937_351)"/>
<path d="M15.2863 21.0889H13.6641V23.3717H15.2863V21.0889Z" fill="url(#paint9_linear_12937_351)"/>
<path d="M18.943 21.0889H17.3208V23.3717H18.943V21.0889Z" fill="url(#paint10_linear_12937_351)"/>
<path d="M22.5992 21.0889H20.9771V23.3717H22.5992V21.0889Z" fill="url(#paint11_linear_12937_351)"/>
<path d="M11.63 25.2004H10.0078V27.4832H11.63V25.2004Z" fill="url(#paint12_linear_12937_351)"/>
<path d="M15.2865 25.2004H13.6643V27.4832H15.2865V25.2004Z" fill="url(#paint13_linear_12937_351)"/>
<path d="M18.9428 25.2004H17.3206V27.4832H18.9428V25.2004Z" fill="url(#paint14_linear_12937_351)"/>
<path d="M22.599 25.2004H20.9768V27.4832H22.599V25.2004Z" fill="url(#paint15_linear_12937_351)"/>
<path d="M11.63 29.312H10.0078V31.5948H11.63V29.312Z" fill="url(#paint16_linear_12937_351)"/>
<path d="M15.2863 29.312H13.6641V31.5948H15.2863V29.312Z" fill="url(#paint17_linear_12937_351)"/>
<path d="M18.943 29.312H17.3208V31.5948H18.943V29.312Z" fill="url(#paint18_linear_12937_351)"/>
<path d="M22.5992 29.312H20.9771V31.5948H22.5992V29.312Z" fill="url(#paint19_linear_12937_351)"/>
<path d="M11.63 33.4233H10.0078V35.7061H11.63V33.4233Z" fill="url(#paint20_linear_12937_351)"/>
<path d="M15.2863 33.4233H13.6641V35.7061H15.2863V33.4233Z" fill="url(#paint21_linear_12937_351)"/>
<path d="M18.943 33.4233H17.3208V35.7061H18.943V33.4233Z" fill="url(#paint22_linear_12937_351)"/>
<path d="M22.5992 33.4233H20.9771V35.7061H22.5992V33.4233Z" fill="url(#paint23_linear_12937_351)"/>
<path d="M11.63 37.5425H10.0078V39.8253H11.63V37.5425Z" fill="url(#paint24_linear_12937_351)"/>
<path d="M22.599 37.5425H20.9768V39.8253H22.599V37.5425Z" fill="url(#paint25_linear_12937_351)"/>
<path d="M25.4487 41.2856V3.2874L18.1961 6.05121L7.16684 0V41.2856H0V42.9164H32.6156V41.2856H25.4487ZM8.78904 2.74665L16.1962 6.81512L8.78904 9.63902V2.74665ZM15.295 41.2856V39.0883H17.3292V41.2856H15.295ZM18.9514 41.2856V37.4574H13.6728V41.2856H8.79762V11.3814L23.8265 5.6478V41.2856H18.9514Z" fill="url(#paint26_linear_12937_351)"/>
<defs>
<linearGradient id="paint0_linear_12937_351" x1="10.4057" y1="13.925" x2="11.2045" y2="15.2097" gradientUnits="userSpaceOnUse">
<stop stop-color="#7FC241"/>
<stop offset="1" stop-color="#103E13"/>
</linearGradient>
<linearGradient id="paint1_linear_12937_351" x1="14.062" y1="13.925" x2="14.8607" y2="15.2097" gradientUnits="userSpaceOnUse">
<stop stop-color="#7FC241"/>
<stop offset="1" stop-color="#103E13"/>
</linearGradient>
<linearGradient id="paint2_linear_12937_351" x1="17.7187" y1="13.925" x2="18.5175" y2="15.2097" gradientUnits="userSpaceOnUse">
<stop stop-color="#7FC241"/>
<stop offset="1" stop-color="#103E13"/>
</linearGradient>
<linearGradient id="paint3_linear_12937_351" x1="21.3749" y1="13.925" x2="22.1737" y2="15.2097" gradientUnits="userSpaceOnUse">
<stop stop-color="#7FC241"/>
<stop offset="1" stop-color="#103E13"/>
</linearGradient>
<linearGradient id="paint4_linear_12937_351" x1="10.4057" y1="18.0363" x2="11.2045" y2="19.321" gradientUnits="userSpaceOnUse">
<stop stop-color="#7FC241"/>
<stop offset="1" stop-color="#103E13"/>
</linearGradient>
<linearGradient id="paint5_linear_12937_351" x1="14.062" y1="18.0363" x2="14.8607" y2="19.321" gradientUnits="userSpaceOnUse">
<stop stop-color="#7FC241"/>
<stop offset="1" stop-color="#103E13"/>
</linearGradient>
<linearGradient id="paint6_linear_12937_351" x1="17.7187" y1="18.0363" x2="18.5175" y2="19.321" gradientUnits="userSpaceOnUse">
<stop stop-color="#7FC241"/>
<stop offset="1" stop-color="#103E13"/>
</linearGradient>
<linearGradient id="paint7_linear_12937_351" x1="21.3749" y1="18.0363" x2="22.1737" y2="19.321" gradientUnits="userSpaceOnUse">
<stop stop-color="#7FC241"/>
<stop offset="1" stop-color="#103E13"/>
</linearGradient>
<linearGradient id="paint8_linear_12937_351" x1="10.4057" y1="22.1552" x2="11.2045" y2="23.4399" gradientUnits="userSpaceOnUse">
<stop stop-color="#7FC241"/>
<stop offset="1" stop-color="#103E13"/>
</linearGradient>
<linearGradient id="paint9_linear_12937_351" x1="14.062" y1="22.1552" x2="14.8607" y2="23.4399" gradientUnits="userSpaceOnUse">
<stop stop-color="#7FC241"/>
<stop offset="1" stop-color="#103E13"/>
</linearGradient>
<linearGradient id="paint10_linear_12937_351" x1="17.7187" y1="22.1552" x2="18.5175" y2="23.4399" gradientUnits="userSpaceOnUse">
<stop stop-color="#7FC241"/>
<stop offset="1" stop-color="#103E13"/>
</linearGradient>
<linearGradient id="paint11_linear_12937_351" x1="21.3749" y1="22.1552" x2="22.1737" y2="23.4399" gradientUnits="userSpaceOnUse">
<stop stop-color="#7FC241"/>
<stop offset="1" stop-color="#103E13"/>
</linearGradient>
<linearGradient id="paint12_linear_12937_351" x1="10.4057" y1="26.2668" x2="11.2045" y2="27.5515" gradientUnits="userSpaceOnUse">
<stop stop-color="#7FC241"/>
<stop offset="1" stop-color="#103E13"/>
</linearGradient>
<linearGradient id="paint13_linear_12937_351" x1="14.0622" y1="26.2668" x2="14.861" y2="27.5515" gradientUnits="userSpaceOnUse">
<stop stop-color="#7FC241"/>
<stop offset="1" stop-color="#103E13"/>
</linearGradient>
<linearGradient id="paint14_linear_12937_351" x1="17.7185" y1="26.2668" x2="18.5172" y2="27.5515" gradientUnits="userSpaceOnUse">
<stop stop-color="#7FC241"/>
<stop offset="1" stop-color="#103E13"/>
</linearGradient>
<linearGradient id="paint15_linear_12937_351" x1="21.3747" y1="26.2668" x2="22.1735" y2="27.5515" gradientUnits="userSpaceOnUse">
<stop stop-color="#7FC241"/>
<stop offset="1" stop-color="#103E13"/>
</linearGradient>
<linearGradient id="paint16_linear_12937_351" x1="10.4057" y1="30.3784" x2="11.2045" y2="31.6631" gradientUnits="userSpaceOnUse">
<stop stop-color="#7FC241"/>
<stop offset="1" stop-color="#103E13"/>
</linearGradient>
<linearGradient id="paint17_linear_12937_351" x1="14.062" y1="30.3784" x2="14.8607" y2="31.6631" gradientUnits="userSpaceOnUse">
<stop stop-color="#7FC241"/>
<stop offset="1" stop-color="#103E13"/>
</linearGradient>
<linearGradient id="paint18_linear_12937_351" x1="17.7187" y1="30.3784" x2="18.5175" y2="31.6631" gradientUnits="userSpaceOnUse">
<stop stop-color="#7FC241"/>
<stop offset="1" stop-color="#103E13"/>
</linearGradient>
<linearGradient id="paint19_linear_12937_351" x1="21.3749" y1="30.3784" x2="22.1737" y2="31.6631" gradientUnits="userSpaceOnUse">
<stop stop-color="#7FC241"/>
<stop offset="1" stop-color="#103E13"/>
</linearGradient>
<linearGradient id="paint20_linear_12937_351" x1="10.4057" y1="34.4897" x2="11.2045" y2="35.7744" gradientUnits="userSpaceOnUse">
<stop stop-color="#7FC241"/>
<stop offset="1" stop-color="#103E13"/>
</linearGradient>
<linearGradient id="paint21_linear_12937_351" x1="14.062" y1="34.4897" x2="14.8607" y2="35.7744" gradientUnits="userSpaceOnUse">
<stop stop-color="#7FC241"/>
<stop offset="1" stop-color="#103E13"/>
</linearGradient>
<linearGradient id="paint22_linear_12937_351" x1="17.7187" y1="34.4897" x2="18.5175" y2="35.7744" gradientUnits="userSpaceOnUse">
<stop stop-color="#7FC241"/>
<stop offset="1" stop-color="#103E13"/>
</linearGradient>
<linearGradient id="paint23_linear_12937_351" x1="21.3749" y1="34.4897" x2="22.1737" y2="35.7744" gradientUnits="userSpaceOnUse">
<stop stop-color="#7FC241"/>
<stop offset="1" stop-color="#103E13"/>
</linearGradient>
<linearGradient id="paint24_linear_12937_351" x1="10.4057" y1="38.6088" x2="11.2045" y2="39.8936" gradientUnits="userSpaceOnUse">
<stop stop-color="#7FC241"/>
<stop offset="1" stop-color="#103E13"/>
</linearGradient>
<linearGradient id="paint25_linear_12937_351" x1="21.3747" y1="38.6088" x2="22.1735" y2="39.8936" gradientUnits="userSpaceOnUse">
<stop stop-color="#7FC241"/>
<stop offset="1" stop-color="#103E13"/>
</linearGradient>
<linearGradient id="paint26_linear_12937_351" x1="8" y1="20.0477" x2="22.5518" y2="45.0773" gradientUnits="userSpaceOnUse">
<stop stop-color="#7FC241"/>
<stop offset="1" stop-color="#103E13"/>
</linearGradient>
</defs>
</svg>
