<svg width="38" height="38" viewBox="0 0 38 38" fill="none" xmlns="http://www.w3.org/2000/svg">
<circle cx="19" cy="19" r="19" fill="#D9D9D9" fill-opacity="0.15"/>
<path d="M15.6 16.8801L20.19 12.2901C20.3773 12.1038 20.6308 11.9993 20.895 11.9993C21.1591 11.9993 21.4126 12.1038 21.6 12.2901C21.6937 12.383 21.7681 12.4936 21.8188 12.6155C21.8696 12.7373 21.8958 12.868 21.8958 13.0001C21.8958 13.1321 21.8696 13.2628 21.8188 13.3846C21.7681 13.5065 21.6937 13.6171 21.6 13.7101L17 18.2901C16.9062 18.383 16.8318 18.4936 16.7811 18.6155C16.7303 18.7373 16.7042 18.868 16.7042 19.0001C16.7042 19.1321 16.7303 19.2628 16.7811 19.3846C16.8318 19.5065 16.9062 19.6171 17 19.7101L21.6 24.2901C21.7883 24.477 21.8946 24.7312 21.8955 24.9965C21.8964 25.2619 21.7919 25.5168 21.605 25.7051C21.418 25.8934 21.1639 25.9997 20.8985 26.0006C20.6331 26.0016 20.3783 25.897 20.19 25.7101L15.6 21.1201C15.0382 20.5576 14.7226 19.7951 14.7226 19.0001C14.7226 18.2051 15.0382 17.4426 15.6 16.8801Z" fill="white"/>
</svg>
