<svg width="67" height="67" viewBox="0 0 67 67" fill="none" xmlns="http://www.w3.org/2000/svg">
<g clip-path="url(#clip0_13244_300)">
<path d="M19.5415 11.1667C22.6207 11.1667 25.1248 8.66254 25.1248 5.58333C25.1248 2.50412 22.6207 0 19.5415 0C16.4623 0 13.9582 2.50412 13.9582 5.58333C13.9582 8.66254 16.4623 11.1667 19.5415 11.1667ZM19.5415 2.79167C21.0797 2.79167 22.3332 4.04513 22.3332 5.58333C22.3332 7.12154 21.0797 8.375 19.5415 8.375C18.0033 8.375 16.7498 7.12154 16.7498 5.58333C16.7498 4.04513 18.0033 2.79167 19.5415 2.79167ZM33.4998 19.5417C36.5791 19.5417 39.0832 17.0375 39.0832 13.9583C39.0832 10.8791 36.5791 8.375 33.4998 8.375C30.4206 8.375 27.9165 10.8791 27.9165 13.9583C27.9165 17.0375 30.4206 19.5417 33.4998 19.5417ZM33.4998 11.1667C35.0381 11.1667 36.2915 12.4201 36.2915 13.9583C36.2915 15.4965 35.0381 16.75 33.4998 16.75C31.9616 16.75 30.7082 15.4965 30.7082 13.9583C30.7082 12.4201 31.9616 11.1667 33.4998 11.1667ZM47.4582 11.1667C50.5374 11.1667 53.0415 8.66254 53.0415 5.58333C53.0415 2.50412 50.5374 0 47.4582 0C44.379 0 41.8748 2.50412 41.8748 5.58333C41.8748 8.66254 44.379 11.1667 47.4582 11.1667ZM47.4582 2.79167C48.9964 2.79167 50.2499 4.04513 50.2499 5.58333C50.2499 7.12154 48.9964 8.375 47.4582 8.375C45.92 8.375 44.6665 7.12154 44.6665 5.58333C44.6665 4.04513 45.92 2.79167 47.4582 2.79167ZM66.9998 18.1458V46.3445C66.9998 51.9362 64.8223 57.1957 60.8666 61.1487L55.4228 66.5924C55.1492 66.866 54.7919 67 54.4346 67C54.0772 67 53.7199 66.8632 53.4463 66.5924C52.9019 66.048 52.9019 65.1631 53.4463 64.6187L58.8901 59.175C62.3182 55.7468 64.2054 51.1908 64.2054 46.3445V18.1458C64.2054 15.8371 62.3266 13.9583 60.0179 13.9583C57.7092 13.9583 55.8304 15.8371 55.8304 18.1458C55.8304 18.1458 55.8053 40.5825 55.7997 40.6383C55.7634 42.1765 55.2441 43.7063 54.2001 44.9486L46.8356 52.6145C46.5621 52.8993 46.1964 53.0417 45.8306 53.0417C45.4817 53.0417 45.1327 52.9133 44.8619 52.6508C44.3064 52.1176 44.2896 51.2327 44.8228 50.6771L52.1259 43.081C52.7568 42.3273 53.0639 41.3641 53.0415 40.3954V40.3843C53.0164 39.4155 52.6646 38.4468 51.9751 37.6763C50.4397 35.965 47.796 35.8171 46.0763 37.3525L38.4578 44.3652C37.0034 45.7052 35.8756 47.3076 35.0297 49.0887C35.8421 51.1685 36.2915 53.3934 36.2915 55.6658V65.6014C36.2915 66.3719 35.6662 66.9972 34.8957 66.9972C34.1252 66.9972 33.4998 66.3719 33.4998 65.6014V55.6658C33.4998 51.3834 31.6936 47.2657 28.5418 44.368L20.9094 37.3441C19.2093 35.8199 16.56 35.965 15.0246 37.6791C13.6455 39.2173 13.6092 41.5707 14.9353 43.1508L22.1741 50.6743C22.7073 51.2299 22.6905 52.1148 22.135 52.648C21.5766 53.184 20.6945 53.1645 20.1613 52.609L12.8583 45.0128C11.7974 43.7538 11.2223 42.2295 11.1637 40.7025C11.1498 40.6243 11.1637 18.1403 11.1637 18.1403C11.1637 15.8315 9.28493 13.9528 6.97622 13.9528C4.66751 13.9528 2.78872 15.8315 2.78872 18.1403V46.3389C2.78872 51.1852 4.67589 55.744 8.10406 59.1694L13.5478 64.6131C14.0922 65.1575 14.0922 66.0425 13.5478 66.5868C13.2742 66.8604 12.9169 66.9944 12.5596 66.9944C12.2022 66.9944 11.8449 66.8576 11.5713 66.5868L6.12755 61.1431C2.17176 57.1873 -0.0057373 51.9306 -0.0057373 46.3389V18.1458C-0.0057373 14.2989 3.12651 11.1667 6.97343 11.1667C10.1811 11.1667 12.8611 13.3525 13.6734 16.3061C15.22 14.8573 17.2858 13.9583 19.5359 13.9583C20.6889 13.9583 21.8056 14.1817 22.8636 14.6228C23.5755 14.9187 23.9105 15.7366 23.6146 16.4485C23.3186 17.1604 22.5035 17.501 21.7888 17.1995C21.0741 16.9035 20.3148 16.75 19.5331 16.75C16.8531 16.75 14.5249 18.5869 13.9498 21.1273V34.8958C16.5544 32.9445 20.2618 33.0282 22.7771 35.2783L30.4234 42.3161C31.6238 43.4188 32.6372 44.6862 33.4887 46.0457C34.3429 44.6778 35.3591 43.4216 36.5595 42.3161L44.1919 35.2923C46.7184 33.0282 50.4285 32.9445 53.0331 34.8958V21.1273C52.4581 18.5869 50.1298 16.75 47.4498 16.75C46.6681 16.75 45.9088 16.9007 45.1941 17.1995C44.4878 17.4982 43.6671 17.1604 43.3684 16.4485C43.0725 15.7366 43.4075 14.9187 44.1193 14.6228C45.1774 14.1817 46.2969 13.9583 47.447 13.9583C49.6971 13.9583 51.7629 14.8573 53.3095 16.3061C54.1247 13.3553 56.8047 11.1667 60.0095 11.1667C63.8564 11.1667 66.9887 14.2989 66.9887 18.1458H66.9998ZM23.4136 28.7011C25.3286 24.7733 29.2453 22.3333 33.6394 22.3333C38.0335 22.3333 41.953 24.7733 43.8653 28.7011C44.2031 29.3963 43.8067 30.8172 42.6118 30.7083C42.0926 30.7083 41.5985 30.4208 41.3556 29.9239C39.9123 26.9619 36.9559 25.125 33.6366 25.125C30.3173 25.125 27.361 26.9647 25.9177 29.9239C25.5799 30.6162 24.748 30.9093 24.0528 30.566C23.3605 30.2282 23.073 29.3935 23.4108 28.7011H23.4136Z" fill="white"/>
</g>
<defs>
<clipPath id="clip0_13244_300">
<rect width="67" height="67" fill="white"/>
</clipPath>
</defs>
</svg>
