<svg width="24" height="24" viewBox="0 0 24 24" fill="none" xmlns="http://www.w3.org/2000/svg">
<g clip-path="url(#clip0_12958_1385)">
<path d="M19.487 5C20.866 5 21.987 3.879 21.987 2.5C21.987 1.121 20.866 0 19.487 0C18.108 0 16.987 1.121 16.987 2.5C16.987 3.879 18.108 5 19.487 5ZM19.487 1C20.314 1 20.987 1.673 20.987 2.5C20.987 3.327 20.314 4 19.487 4C18.66 4 17.987 3.327 17.987 2.5C17.987 1.673 18.66 1 19.487 1ZM24 9.5V13.5C24 14.891 23.178 16.085 22 16.649V23.5C22 23.776 21.776 24 21.5 24C21.224 24 21 23.776 21 23.5V16.949C20.835 16.973 20.671 17 20.5 17H18V23.5C18 23.776 17.776 24 17.5 24C17.224 24 17 23.776 17 23.5V9.5C17 9.224 17.224 9 17.5 9C17.776 9 18 9.224 18 9.5V16H20.5C21.879 16 23 14.879 23 13.5V9.5C23 8.121 21.879 7 20.5 7H17.677C17.038 7 16.43 6.759 15.965 6.321L10.157 0.864C9.95597 0.675 9.94597 0.358 10.136 0.157C10.326 -0.044 10.642 -0.053 10.843 0.136L16.651 5.593C16.929 5.856 17.295 6 17.677 6H20.5C22.43 6 24 7.57 24 9.5ZM6.84297 16.636C7.04397 16.825 7.05397 17.142 6.86397 17.343C6.76497 17.447 6.63297 17.5 6.49997 17.5C6.37697 17.5 6.25397 17.455 6.15697 17.364L3.99997 15.331V23.499C3.99997 23.775 3.77597 23.999 3.49997 23.999C3.22397 23.999 2.99997 23.775 2.99997 23.499V15.33L0.842966 17.363C0.641966 17.552 0.325966 17.544 0.135966 17.342C-0.0530337 17.141 -0.0440337 16.824 0.156966 16.635L2.53897 14.391C3.03497 13.893 3.95397 13.882 4.47197 14.402L6.84297 16.636ZM13.843 11.636C14.044 11.825 14.054 12.142 13.864 12.343C13.765 12.447 13.633 12.5 13.5 12.5C13.377 12.5 13.254 12.455 13.157 12.364L11 10.331V23.499C11 23.775 10.776 23.999 10.5 23.999C10.224 23.999 9.99997 23.775 9.99997 23.499V10.33L7.84297 12.363C7.64197 12.551 7.32497 12.543 7.13597 12.342C6.94697 12.141 6.95597 11.824 7.15697 11.635L9.53897 9.391C10.035 8.893 10.954 8.882 11.472 9.402L13.843 11.636Z" fill="white"/>
</g>
<defs>
<clipPath id="clip0_12958_1385">
<rect width="24" height="24" fill="white"/>
</clipPath>
</defs>
</svg>
