<svg width="113" height="123" viewBox="0 0 113 123" fill="none" xmlns="http://www.w3.org/2000/svg">
<path d="M42.4372 100.184C42.4372 98.0787 42.4372 95.9767 42.4372 93.8716C42.4372 93.1404 42.5842 92.455 43.1753 91.9563C43.4509 91.7237 43.4539 91.4973 43.3284 91.1822C42.5475 89.2148 41.5339 87.4065 39.7455 86.1765C38.6645 85.433 37.5345 84.7568 36.4749 83.9766C35.2561 83.0831 34.0893 82.1377 32.99 81.0974C31.5047 79.6899 30.1726 78.1478 28.9538 76.5109C28.0841 75.3421 27.3185 74.0999 26.6111 72.8148C25.723 71.2023 24.9085 69.5593 24.2439 67.8489C23.6652 66.3619 23.3283 64.8075 22.9761 63.2502C22.5535 61.3899 22.3667 59.5112 22.1983 57.6234C22.0421 55.861 22.2351 54.1169 22.3453 52.3607C22.4739 50.3076 22.9731 48.3402 23.4784 46.379C23.7877 45.1765 24.2164 43.9832 24.7278 42.8297C25.3831 41.3488 26.1365 39.923 26.9419 38.5216C27.9769 36.7225 29.26 35.1101 30.5278 33.4762C31.6854 31.9861 33.0451 30.7102 34.4844 29.5353C35.7093 28.5378 37.0077 27.6199 38.3521 26.7663C39.3688 26.1207 40.4008 25.5057 41.4787 24.9794C42.5751 24.447 43.7081 23.985 44.8687 23.5872C45.9865 23.2048 47.1104 22.8499 48.2434 22.5133C51.8233 21.4516 55.4675 21.3108 59.1606 21.525C61.1634 21.6413 63.0865 22.0696 65.0372 22.5041C67.9311 23.1466 70.5892 24.343 73.1065 25.7994C76.573 27.8066 79.6874 30.2941 82.3609 33.3263C84.0114 35.2019 85.5028 37.1754 86.8074 39.2988C88.559 42.1505 89.7901 45.2224 90.5801 48.4626C91.2049 51.0205 91.5264 53.6366 91.456 56.271C91.3947 58.5535 91.2324 60.833 90.7271 63.0819C90.1912 65.4684 89.4624 67.7969 88.4855 70.0274C87.5607 72.1447 86.3725 74.1305 85.0343 76.0336C83.7266 77.8908 82.2506 79.5981 80.6214 81.1525C78.8361 82.8537 76.8885 84.3896 74.7234 85.6074C72.5032 86.8558 71.1313 88.7803 70.2493 91.1118C70.136 91.4116 70.133 91.6534 70.4024 91.8951C71.0057 92.4366 71.1925 93.1434 71.1895 93.942C71.1803 98.1032 71.1895 102.261 71.1987 106.423C71.2017 107.802 70.3871 108.644 69.0305 108.647C67.5392 108.65 67.5637 108.65 67.5208 110.149C67.481 111.587 66.9359 112.897 66.2744 114.139C64.8535 116.813 62.517 118.361 59.6445 119.007C58.3307 119.304 56.9251 119.282 55.5501 119.175C54.0864 119.062 52.6807 118.799 51.3762 118.068C49.8512 117.214 48.5343 116.159 47.6432 114.623C47.1839 113.83 46.8011 113.016 46.4673 112.156C46.0784 111.156 46.0508 110.161 46.0784 109.136C46.0875 108.748 45.9651 108.61 45.5761 108.641C45.2117 108.671 44.8412 108.647 44.4737 108.647C43.1814 108.647 42.3791 107.882 42.4097 106.572C42.4617 104.44 42.474 102.31 42.4372 100.184ZM56.8118 91.4606C59.8252 91.4606 62.8385 91.4667 65.8518 91.4514C66.0876 91.4514 66.3847 91.6228 66.5225 91.1393C67.0706 89.2148 67.8209 87.4004 69.1193 85.8063C70.2585 84.408 71.6366 83.3249 73.1371 82.4008C74.5305 81.5472 75.8473 80.5956 77.063 79.5186C78.6371 78.1264 80.11 76.6272 81.387 74.9443C83.3684 72.3313 84.9945 69.5348 86.0142 66.3955C86.9329 63.5684 87.527 60.6984 87.7199 57.7213C87.9619 54.0282 87.5331 50.4331 86.4031 46.9358C85.7386 44.8828 84.8658 42.8848 83.742 41.0337C82.2659 38.6043 80.5479 36.3554 78.536 34.3299C76.9252 32.7082 75.1399 31.2916 73.2596 30.0126C71.7284 28.9723 70.0656 28.1248 68.3568 27.3935C67.3799 26.9774 66.3969 26.5521 65.3802 26.2675C63.1355 25.6372 60.8541 25.2701 58.5053 25.1385C55.6022 24.9763 52.7328 25.1385 49.9185 25.7382C47.3615 26.2828 44.9177 27.2864 42.572 28.4369C40.8969 29.2569 39.3504 30.3278 37.8468 31.4568C35.5746 33.161 33.5902 35.156 31.9243 37.4171C30.0991 39.8955 28.6874 42.6247 27.6217 45.5375C26.7122 48.0159 26.1885 50.5524 25.9252 53.1654C25.5087 57.3174 26.014 61.3868 27.1807 65.3613C27.7197 67.2033 28.5159 68.984 29.456 70.6761C30.7238 72.9525 32.206 75.0728 33.976 77.0066C36.1258 79.3534 38.6063 81.2687 41.2919 82.9393C42.2903 83.5605 43.1753 84.3315 43.9592 85.179C45.4628 86.8007 46.3877 88.7803 47.0154 90.8823C47.1747 91.4116 47.3982 91.4667 47.8545 91.4637C50.8342 91.4514 53.823 91.4606 56.8118 91.4606ZM56.8363 95.1353C53.5045 95.1322 50.1758 95.1537 46.8439 95.1139C46.1641 95.1047 46.0416 95.3189 46.0508 95.9369C46.0845 98.7029 46.0875 101.466 46.0539 104.232C46.0447 104.853 46.2284 104.988 46.8256 104.988C53.5351 104.969 60.2447 104.969 66.9573 104.997C67.5024 105 67.5422 104.801 67.5392 104.369C67.5269 101.506 67.5147 98.6448 67.5484 95.7809C67.5545 95.1873 67.3462 95.12 66.8318 95.1231C63.5 95.1475 60.1681 95.1353 56.8363 95.1353ZM56.8149 108.644V108.641C54.6376 108.641 52.4633 108.641 50.286 108.641C49.9553 108.641 49.6888 108.61 49.6827 109.121C49.6674 110.523 49.9583 111.841 50.8219 112.943C51.5109 113.821 52.3439 114.546 53.4096 115.029C54.3528 115.455 55.3174 115.409 56.2759 115.467C57.7612 115.556 59.2984 115.571 60.6214 114.824C62.7466 113.628 63.9501 111.808 63.8736 109.259C63.8582 108.766 63.7449 108.635 63.2672 108.638C61.1205 108.653 58.9677 108.644 56.8149 108.644Z" fill="url(#paint0_linear_12953_1144)"/>
<path d="M104.94 59.4897C103.816 59.4897 102.689 59.453 101.568 59.4989C100.31 59.554 99.6544 58.7126 99.5839 58.0119C99.4523 56.7452 99.9269 56.1393 101.213 55.8731C101.449 55.8242 101.694 55.7905 101.936 55.7905C103.963 55.7844 105.993 55.7905 108.021 55.7875C108.517 55.7875 108.982 55.9037 109.448 56.0751C110.216 56.3596 110.385 57.0328 110.434 57.6998C110.492 58.4586 109.95 59.1164 109.252 59.3581C108.967 59.4561 108.682 59.4836 108.388 59.4805C107.24 59.4775 106.091 59.4805 104.943 59.4805C104.94 59.4836 104.94 59.4867 104.94 59.4897Z" fill="url(#paint1_linear_12953_1144)"/>
<path d="M8.66326 59.4928C7.46589 59.4928 6.26852 59.4806 5.07115 59.4959C3.29806 59.5204 2.82952 57.6509 3.55529 56.5892C3.99627 55.9436 4.68529 55.8151 5.34676 55.8028C7.54551 55.76 9.74733 55.7631 11.9461 55.8028C13.2353 55.8273 14.0162 56.5372 14.0254 57.553C14.0346 58.7952 13.3762 59.4745 12.1084 59.4928C10.96 59.5081 9.81164 59.4959 8.66326 59.4959C8.66326 59.4959 8.66326 59.4959 8.66326 59.4928Z" fill="url(#paint2_linear_12953_1144)"/>
<path d="M10.2005 83.435C10.1545 82.7588 10.6078 82.2815 11.211 81.9235C13.2199 80.7332 15.2349 79.5522 17.2561 78.3773C17.9727 77.9612 19.2588 78.2335 19.6753 78.8638C20.3062 79.8184 20.15 80.9015 19.2129 81.4676C17.5256 82.4834 15.8015 83.4441 14.0927 84.4263C13.6548 84.6772 13.2383 84.9648 12.7698 85.1729C11.453 85.7573 10.1943 84.974 10.2005 83.435Z" fill="url(#paint3_linear_12953_1144)"/>
<path d="M84.425 12.8538C84.5781 13.683 84.0116 14.2123 83.6839 14.8089C82.7499 16.504 81.7547 18.1685 80.7686 19.833C80.0826 20.9926 79.1701 21.2496 78.1534 20.604C77.2377 20.0227 77.1091 18.8997 77.7338 17.8564C78.5882 16.4275 79.3262 14.9283 80.2021 13.5147C80.6461 12.8018 80.9064 11.9603 81.6506 11.4249C82.2232 11.0118 82.7652 10.8099 83.4053 11.1556C84.0851 11.5228 84.6179 12.0032 84.425 12.8538Z" fill="url(#paint4_linear_12953_1144)"/>
<path d="M55.0393 9.40856C55.0393 8.30707 55.1097 7.20252 55.0179 6.10714C54.9291 5.04543 55.6824 4.15811 56.5919 4.17341C57.7648 4.19483 58.6651 4.84655 58.6927 6.02453C58.7447 8.37132 58.7325 10.7212 58.6957 13.068C58.6804 14.0379 57.5994 15.0323 56.7052 14.9283C55.8355 14.8242 54.9536 14.1848 55.024 12.9303C55.0914 11.7584 55.0393 10.5835 55.0393 9.40856Z" fill="url(#paint5_linear_12953_1144)"/>
<path d="M18.23 37.264C17.9942 37.3008 17.7339 37.2304 17.4981 37.0927C15.6301 36.0035 13.7651 34.905 11.894 33.8127C11.499 33.5832 11.0948 33.3843 10.7395 33.0692C10.1332 32.5307 9.95557 31.6097 10.4088 30.8479C10.8283 30.1411 11.8389 29.8106 12.5279 30.1625C14.151 30.9917 15.7158 31.9249 17.2899 32.8428C18.0126 33.265 18.7996 33.5557 19.4304 34.1462C20.0153 34.6939 20.1807 35.2905 19.899 36.031C19.605 36.799 19.0109 37.2518 18.23 37.264Z" fill="url(#paint6_linear_12953_1144)"/>
<path d="M95.0945 37.2579C94.6045 37.2487 93.9829 36.7928 93.7257 36.0952C93.4745 35.4099 93.6644 34.6694 94.1758 34.186C94.8924 33.5128 95.808 33.1549 96.6226 32.6439C97.967 31.8025 99.3757 31.0651 100.763 30.291C101.623 29.8137 102.799 30.0615 103.191 30.8387C103.727 31.9065 103.491 32.8917 102.511 33.4731C100.751 34.5164 98.9684 35.5231 97.1585 36.4808C96.5767 36.7867 96.053 37.2977 95.0945 37.2579Z" fill="url(#paint7_linear_12953_1144)"/>
<path d="M103.421 83.6951C103.406 84.9006 102.169 85.7451 100.993 85.1699C99.4186 84.3988 97.8935 83.5299 96.4175 82.5783C95.7775 82.1652 95.0425 81.9052 94.4331 81.434C93.4715 80.6874 93.3735 79.8521 93.9125 78.8822C94.2739 78.2305 95.658 78.004 96.3624 78.4385C98.3376 79.6593 100.444 80.6476 102.401 81.9021C103.047 82.3182 103.4 82.8292 103.421 83.6951Z" fill="url(#paint8_linear_12953_1144)"/>
<path d="M36.3314 19.1782C36.2701 19.9431 35.6087 20.7142 34.889 20.9284C34.3745 21.0813 33.4773 20.7264 33.1037 20.1604C32.5371 19.2945 31.992 18.4133 31.4715 17.5168C30.81 16.3755 30.2006 15.2067 29.5391 14.0655C28.8348 12.8508 29.0859 11.7676 30.2435 11.1802C30.9937 10.7977 31.9216 11.0149 32.3473 11.7493C33.2782 13.3525 34.151 14.9895 35.0758 16.5928C35.4954 17.321 36.0558 17.9727 36.2364 18.8233C36.264 18.964 36.3099 19.1017 36.3314 19.1782Z" fill="url(#paint9_linear_12953_1144)"/>
<path d="M55.9637 62.9258C57.2958 59.5632 59.0965 56.6351 62.0761 54.4963C63.9748 53.1317 66.0541 52.1679 68.2283 51.4764C69.9677 50.9226 71.8419 50.7941 73.6579 50.4973C75.3605 50.2189 77.0785 50.3504 78.7903 50.3566C80.2817 50.3627 81.1575 51.2775 81.1881 52.7064C81.2341 55.0501 81.1391 57.3755 80.7992 59.7131C80.3705 62.6688 79.4855 65.4592 78.0431 68.0263C76.7937 70.2507 75.042 72.0927 72.8372 73.4818C71.6245 74.2436 70.3781 74.9351 69.0399 75.388C67.4199 75.9357 65.7693 76.3793 64.0636 76.6639C62.22 76.9698 60.3827 77.1228 58.5238 77.0708C57.9665 77.0555 58.1257 77.4563 58.1227 77.7348C58.1135 80.256 58.1196 82.7771 58.1196 85.2983C58.1196 86.253 57.7123 86.9016 56.9467 87.1801C56.1076 87.486 55.3788 87.2718 54.748 86.562C54.4815 86.2621 54.4448 85.9195 54.4448 85.5431C54.4509 82.9974 54.4295 80.4518 54.4632 77.9061C54.4724 77.288 54.3529 77.0188 53.67 77.0616C50.7455 77.2544 47.9557 76.5445 45.2609 75.544C42.6854 74.5894 40.4499 73.0198 38.83 70.7739C37.4458 68.8555 36.5914 66.6801 36.0065 64.3577C35.5747 62.6382 35.4553 60.9033 35.2287 59.1716C35.0664 57.9293 35.2532 56.684 35.5104 55.4663C35.6023 55.0348 35.982 54.735 36.4505 54.5973C37.5713 54.273 38.7136 54.2485 39.865 54.3464C41.7576 54.5116 43.6715 54.5606 45.512 55.0593C46.7675 55.3959 47.9986 55.8365 49.1806 56.3964C51.1222 57.3143 52.7728 58.5841 54.1386 60.2455C54.7663 61.0074 55.2686 61.8396 55.7738 62.678C55.8198 62.7545 55.8841 62.8218 55.9637 62.9258ZM58.1227 71.4868C58.1227 71.9519 58.138 72.417 58.1165 72.8821C58.1012 73.237 58.1839 73.4053 58.5942 73.4083C61.6719 73.4267 64.6822 73.133 67.6006 72.0101C69.6003 71.2421 71.407 70.2599 72.975 68.779C74.3163 67.5092 75.2074 65.9641 75.8689 64.3057C76.5119 62.6963 76.9805 61.0166 77.2347 59.2786C77.4705 57.6784 77.5531 56.0782 77.5317 54.4657C77.5286 54.1934 77.5133 54.019 77.155 54.0007C74.1968 53.8507 71.3244 54.3586 68.5162 55.1939C67.0892 55.6162 65.7601 56.323 64.4892 57.143C62.511 58.4219 61.2187 60.2394 60.1867 62.2802C59.4119 63.8162 58.9219 65.4439 58.6341 67.1543C58.3891 68.5924 58.0675 70.0151 58.1227 71.4868ZM54.356 71.5909C54.2304 69.4277 53.8599 67.2461 52.9473 65.1686C52.1419 63.3389 51.0425 61.7539 49.3674 60.6127C47.9373 59.6397 46.3664 59.0033 44.6851 58.578C42.9182 58.1313 41.1083 58.1619 39.3169 57.9721C38.9678 57.9354 38.83 58.0884 38.8637 58.4372C38.9188 59.0461 38.9647 59.655 39.0015 60.2639C39.1025 62.0385 39.4302 63.7703 40.0488 65.4409C40.4071 66.4108 40.8634 67.341 41.4207 68.213C41.9352 69.0177 42.5538 69.7275 43.3193 70.3242C44.5688 71.2971 45.9254 71.9978 47.4412 72.4813C49.1225 73.0167 50.8221 73.341 52.5798 73.39C53.1402 73.4053 53.8752 73.5919 54.2212 73.3165C54.6193 73.0014 54.2519 72.2395 54.356 71.5909Z" fill="url(#paint10_linear_12953_1144)"/>
<path d="M70.1758 38.8307C69.9829 38.1239 70.4729 37.6374 70.972 37.31C71.6182 36.8878 72.3929 36.9582 73.0054 37.46C74.7264 38.8735 76.2852 40.437 77.5805 42.2667C78.2114 43.1541 78.8575 44.023 79.3659 44.9929C79.7793 45.7793 79.5864 46.8532 78.9249 47.2449C77.9327 47.8323 77.0783 47.6885 76.4628 46.8624C75.443 45.4978 74.6438 43.9802 73.4433 42.741C72.5614 41.8323 71.6366 40.9694 70.6934 40.1311C70.2677 39.7609 70.1054 39.3906 70.1758 38.8307Z" fill="url(#paint11_linear_12953_1144)"/>
<path d="M68.5682 35.6394C68.6754 37.0591 67.3831 37.9648 65.6988 37.1601C64.9087 36.7807 64.0789 36.542 63.2673 36.2299C62.3793 35.8903 62.0148 34.9204 62.3915 33.7975C62.6273 33.0968 63.5705 32.6531 64.3208 32.852C65.4661 33.158 66.5532 33.5894 67.622 34.1034C68.3447 34.4553 68.6264 34.9265 68.5682 35.6394Z" fill="url(#paint12_linear_12953_1144)"/>
<defs>
<linearGradient id="paint0_linear_12953_1144" x1="56.8026" y1="21.4398" x2="56.8026" y2="119.248" gradientUnits="userSpaceOnUse">
<stop stop-color="#00AD4D"/>
<stop offset="1" stop-color="#103E13"/>
</linearGradient>
<linearGradient id="paint1_linear_12953_1144" x1="105" y1="55.7875" x2="105" y2="59.5015" gradientUnits="userSpaceOnUse">
<stop stop-color="#00AD4D"/>
<stop offset="1" stop-color="#103E13"/>
</linearGradient>
<linearGradient id="paint2_linear_12953_1144" x1="8.62652" y1="55.7719" x2="8.62652" y2="59.5005" gradientUnits="userSpaceOnUse">
<stop stop-color="#00AD4D"/>
<stop offset="1" stop-color="#103E13"/>
</linearGradient>
<linearGradient id="paint3_linear_12953_1144" x1="15.1261" y1="78.1783" x2="15.1261" y2="85.3666" gradientUnits="userSpaceOnUse">
<stop stop-color="#00AD4D"/>
<stop offset="1" stop-color="#103E13"/>
</linearGradient>
<linearGradient id="paint4_linear_12953_1144" x1="80.9063" y1="10.9794" x2="80.9063" y2="20.9503" gradientUnits="userSpaceOnUse">
<stop stop-color="#00AD4D"/>
<stop offset="1" stop-color="#103E13"/>
</linearGradient>
<linearGradient id="paint5_linear_12953_1144" x1="56.8692" y1="4.17322" x2="56.8692" y2="14.9358" gradientUnits="userSpaceOnUse">
<stop stop-color="#00AD4D"/>
<stop offset="1" stop-color="#103E13"/>
</linearGradient>
<linearGradient id="paint6_linear_12953_1144" x1="15.0936" y1="30.0206" x2="15.0936" y2="37.2737" gradientUnits="userSpaceOnUse">
<stop stop-color="#00AD4D"/>
<stop offset="1" stop-color="#103E13"/>
</linearGradient>
<linearGradient id="paint7_linear_12953_1144" x1="98.5435" y1="30.0479" x2="98.5435" y2="37.2601" gradientUnits="userSpaceOnUse">
<stop stop-color="#00AD4D"/>
<stop offset="1" stop-color="#103E13"/>
</linearGradient>
<linearGradient id="paint8_linear_12953_1144" x1="98.5035" y1="78.2151" x2="98.5035" y2="85.3546" gradientUnits="userSpaceOnUse">
<stop stop-color="#00AD4D"/>
<stop offset="1" stop-color="#103E13"/>
</linearGradient>
<linearGradient id="paint9_linear_12953_1144" x1="32.7393" y1="10.9944" x2="32.7393" y2="20.964" gradientUnits="userSpaceOnUse">
<stop stop-color="#00AD4D"/>
<stop offset="1" stop-color="#103E13"/>
</linearGradient>
<linearGradient id="paint10_linear_12953_1144" x1="58.1835" y1="50.3202" x2="58.1835" y2="87.3157" gradientUnits="userSpaceOnUse">
<stop stop-color="#00AD4D"/>
<stop offset="1" stop-color="#103E13"/>
</linearGradient>
<linearGradient id="paint11_linear_12953_1144" x1="74.8579" y1="37.0336" x2="74.8579" y2="47.6021" gradientUnits="userSpaceOnUse">
<stop stop-color="#00AD4D"/>
<stop offset="1" stop-color="#103E13"/>
</linearGradient>
<linearGradient id="paint12_linear_12953_1144" x1="65.4099" y1="32.8043" x2="65.4099" y2="37.4619" gradientUnits="userSpaceOnUse">
<stop stop-color="#00AD4D"/>
<stop offset="1" stop-color="#103E13"/>
</linearGradient>
</defs>
</svg>
