<svg width="113" height="123" viewBox="0 0 113 123" fill="none" xmlns="http://www.w3.org/2000/svg">
<g clip-path="url(#clip0_12953_1163)">
<path d="M102.516 46.908C100.94 45.484 98.8479 44.812 96.7959 45.052C70.3279 48.24 60.5839 69.304 57.0199 83.004C57.0119 83.004 57.0039 83 56.9959 83C56.9879 83 56.9799 83.004 56.9719 83.004C53.4119 69.3 43.6679 48.24 17.1959 45.052C15.1479 44.824 13.0519 45.48 11.4759 46.908C9.84395 48.392 8.93595 50.508 8.99195 52.708H8.99995C9.35595 66.632 13.7799 77.58 22.1559 85.24C33.7639 95.856 49.3719 96.972 54.9999 97.004V107C54.9999 108.104 55.8959 109 56.9999 109C58.1039 109 58.9999 108.104 58.9999 107V97.004C64.6279 96.972 80.2399 95.856 91.8439 85.24C100.22 77.58 104.644 66.636 105 52.712C105.056 50.508 104.148 48.392 102.516 46.908ZM24.8319 82.264C17.3039 75.364 13.3239 65.388 12.9999 52.608C12.9719 51.568 13.4039 50.568 14.1759 49.868C14.8959 49.208 15.7719 48.9 16.7279 49.024C48.6079 52.864 53.9759 84.464 54.8399 92.992C49.5759 92.904 35.1759 91.744 24.8319 82.264ZM89.1679 82.264C78.8199 91.744 64.4239 92.9 59.1599 92.992C60.0279 84.464 65.396 52.864 97.2719 49.024C97.3999 49.008 97.5239 49 97.6519 49C98.4399 49 99.2039 49.3 99.8239 49.868C100.596 50.572 101.028 51.568 101 52.612C100.676 65.392 96.6959 75.364 89.1679 82.264ZM39.5679 30.396C38.7999 29.604 38.8159 28.34 39.6079 27.568L52.7759 14.74C53.8439 13.676 55.3119 13 56.9999 13C58.6879 13 60.1479 13.664 61.2439 14.756L74.396 27.564C75.188 28.336 75.2039 29.6 74.4359 30.392C74.0399 30.796 73.5199 30.996 73.0039 30.996C72.4999 30.996 71.9959 30.808 71.6079 30.428L59.0039 18.152V51C59.0039 52.104 58.1079 53 57.0039 53C55.8999 53 55.0039 52.104 55.0039 51V18.156L42.3999 30.432C41.6159 31.2 40.3519 31.188 39.5719 30.392L39.5679 30.396Z" fill="url(#paint0_linear_12953_1163)"/>
</g>
<defs>
<linearGradient id="paint0_linear_12953_1163" x1="56.9959" y1="13" x2="56.9959" y2="109" gradientUnits="userSpaceOnUse">
<stop stop-color="#00AD4D"/>
<stop offset="1" stop-color="#103E13"/>
</linearGradient>
<clipPath id="clip0_12953_1163">
<rect width="96" height="96" fill="white" transform="translate(9 13)"/>
</clipPath>
</defs>
</svg>
