<svg width="113" height="123" viewBox="0 0 113 123" fill="none" xmlns="http://www.w3.org/2000/svg">
<g clip-path="url(#clip0_12953_1182)">
<path d="M96.3598 72.424C96.7683 72.424 97.0519 72.424 97.3356 72.424C100.161 72.424 102.986 72.424 105.811 72.424C107.956 72.424 109.85 73.0007 111.121 74.8214C111.961 76.0314 112.278 77.4223 111.995 78.9037C111.62 80.894 110.338 82.2171 108.58 83.0087C107.717 83.3931 106.685 83.4497 105.698 83.4497C92.1731 83.4497 78.6598 83.4497 65.1352 83.4497C64.8742 83.4497 64.6019 83.4497 64.2615 83.4497C64.704 84.8519 65.1238 86.1863 65.5323 87.5207C65.9521 88.8777 66.3606 90.246 66.7917 91.6031C67.1888 92.8922 67.6086 94.1814 68.0171 95.4705C68.6525 97.4947 69.2652 99.5303 69.9006 101.554C70.2636 102.708 70.6948 103.827 70.9784 105.015C71.0692 105.388 71.3982 105.354 71.7046 105.354C72.8846 105.343 74.0306 105.411 75.1879 105.75C76.3906 106.1 77.2983 106.756 77.9677 107.751C78.6144 108.701 79.0683 109.73 79.0456 110.918C79.0115 112.614 78.2627 113.948 77.0146 115.057C75.8686 116.074 74.4617 116.357 73.0321 116.368C62.2873 116.402 51.5425 116.414 40.809 116.368C38.2675 116.357 36.3386 115.17 35.3515 112.772C34.6254 111.008 34.9317 109.335 36.0663 107.785C37.5186 105.806 39.5496 105.298 41.8302 105.377C42.5563 105.399 42.9194 105.343 43.169 104.449C43.7363 102.403 44.3717 100.367 45.0411 98.3429C45.7559 96.1943 46.4027 94.0117 47.0834 91.8405C47.7529 89.6693 48.3769 87.4868 49.1711 85.3608C49.3527 84.8859 49.4434 84.3883 49.6477 83.9133C49.7725 83.6306 49.6931 83.4384 49.33 83.461C49.0577 83.4723 48.7854 83.461 48.5244 83.461C35.204 83.461 21.8836 83.461 8.5519 83.461C6.90671 83.461 5.32959 83.2575 4.01344 82.1492C1.63075 80.1589 1.15421 76.97 3.12844 74.4934C3.65036 73.8488 4.35382 73.34 5.13671 73.0007C5.55652 72.8198 5.6019 72.5484 5.6019 72.1526C5.59056 65.6842 5.6019 59.2158 5.59056 52.7474C5.57921 49.9655 7.03152 48.0996 9.41421 47.1158C10.0382 46.8557 10.8098 46.8783 11.5132 46.8557C13.0336 46.8217 14.5654 46.8331 16.0857 46.8557C16.5396 46.867 16.6871 46.7426 16.6644 46.2789C16.6304 45.3517 16.6984 44.4131 16.6417 43.4858C16.4942 40.9414 18.2188 39.5391 20.5448 39.5052C24.1075 39.4487 27.6702 39.46 31.2329 39.5052C33.3886 39.5278 34.9204 41.1223 34.9317 43.2709C34.9431 44.2774 34.9544 45.2838 34.9204 46.2789C34.8977 46.7539 35.0565 46.8557 35.499 46.8444C36.9513 46.8217 38.4036 46.8104 39.8446 46.8444C41.1834 46.8783 42.4769 47.0027 43.6456 47.8621C45.234 49.0382 45.9602 50.6214 45.9715 52.4986C46.0169 58.8426 46.0056 65.1866 45.9715 71.5306C45.9715 72.2091 46.0963 72.4918 46.8338 72.424C47.6394 72.3448 48.4563 72.4014 49.2619 72.4127C49.5796 72.4127 49.8519 72.3674 50.0448 72.1074C51.3836 70.2754 53.2671 69.3255 55.4456 68.9071C57.885 68.4434 60.1088 68.9975 62.1171 70.4563C62.7865 70.9426 63.3879 71.4854 63.9211 72.1187C64.0913 72.3222 64.2842 72.4127 64.5565 72.4127C72.1244 72.4014 79.6923 72.4127 87.3283 72.4127C87.0333 71.6324 86.3638 71.2027 85.8646 70.7164C82.7558 67.6858 79.7377 64.5646 76.6742 61.5001C75.6984 60.5162 74.6319 59.6342 73.8604 58.4581C72.7711 56.7958 72.1017 54.9864 71.784 53.0301C71.3642 50.4291 71.9315 47.9865 73.1342 45.7248C74.3142 43.5084 76.0729 41.8121 78.3875 40.7039C80.7134 39.5957 83.0848 39.313 85.6263 39.7314C87.941 40.1159 89.8698 41.1336 91.549 42.6942C91.7873 42.909 91.9121 42.9203 92.139 42.6942C93.5119 41.258 95.2479 40.3533 97.1313 39.8671C98.7538 39.4374 100.433 39.4374 102.146 39.7088C104.279 40.0593 106.129 40.8961 107.729 42.2871C109.692 43.9946 111.098 46.1093 111.722 48.6424C112.324 51.085 112.142 53.5276 111.223 55.8798C110.611 57.463 109.714 58.8991 108.477 60.1204C105.788 62.7892 103.122 65.5032 100.433 68.1833C99.2417 69.382 98.0163 70.5468 96.825 71.7342C96.7002 71.9038 96.5867 72.1187 96.3598 72.424ZM108.387 51.7861C108.432 49.6488 107.933 48.0091 106.866 46.5956C105.459 44.7297 103.667 43.5197 101.25 43.2596C98.0617 42.9203 95.5315 44.006 93.6594 46.5617C92.6609 47.9187 91.22 47.9865 90.2215 46.6408C88.894 44.8428 87.2034 43.6215 84.9342 43.2709C83.1869 42.9995 81.4736 43.1578 79.9533 43.9946C77.6954 45.2386 76.1296 47.0818 75.6077 49.7167C75.1311 52.1254 75.5623 54.3305 76.8784 56.3774C77.65 57.576 78.7392 58.4581 79.7036 59.4872C81.1559 61.0251 82.6763 62.5065 84.1854 63.9992C85.0931 64.9039 86.0461 65.7633 86.9538 66.668C88.4969 68.2286 90.0513 69.7891 91.5944 71.361C91.8781 71.655 91.9461 71.6663 92.2298 71.3497C93.0808 70.445 93.9771 69.5856 94.8394 68.6922C96.6208 66.8376 98.5383 65.1074 100.376 63.2868C102.214 61.4548 104.018 59.5776 105.834 57.7117C107.502 55.9589 108.489 53.9234 108.387 51.7861ZM25.8094 72.4353C30.7223 72.4353 35.6352 72.4353 40.5594 72.4353C42.3181 72.4353 42.3181 72.4353 42.3181 70.7051C42.3181 66.9055 42.3067 63.1172 42.3294 59.3175C42.3294 58.7974 42.3067 58.6277 41.7054 58.8765C40.3098 59.4759 38.8688 59.9621 37.4619 60.5275C35.9642 61.1269 34.4779 61.7941 32.9802 62.3934C30.8925 63.2303 28.7934 64.0218 26.7057 64.8587C26.0704 65.1074 25.5031 65.1301 24.8677 64.8587C23.4267 64.2254 21.9857 63.5921 20.5107 63.0606C18.4457 62.3143 16.4261 61.4435 14.3838 60.6519C12.9656 60.0978 11.57 59.4872 10.1404 58.9331C9.30075 58.6051 9.26671 58.6503 9.26671 59.5663C9.26671 63.6034 9.2894 67.6518 9.25536 71.6889C9.25536 72.3335 9.4369 72.4466 10.0269 72.4353C15.2915 72.424 20.5561 72.4353 25.8094 72.4353ZM56.9092 105.365C60.1088 105.365 63.2971 105.365 66.4967 105.365C67.3477 105.365 67.3817 105.298 67.1207 104.495C66.6782 103.138 66.2131 101.781 65.7932 100.424C65.1579 98.3768 64.5452 96.3187 63.9098 94.2605C63.5127 92.994 63.0815 91.7388 62.6844 90.4722C62.2646 89.1378 61.8902 87.7921 61.4817 86.4464C61.3796 86.1185 61.2775 85.9262 60.8236 86.1863C60.4832 86.3786 60.0748 86.5256 59.689 86.6613C57.4425 87.385 55.2527 87.1702 53.1536 86.1637C52.7452 85.9715 52.6317 86.0732 52.5296 86.3899C52.1211 87.6338 51.724 88.8664 51.3382 90.1217C50.8957 91.5465 50.5327 93.0053 50.0334 94.4189C49.5456 95.7872 49.1484 97.1781 48.7173 98.569C48.0819 100.616 47.4579 102.674 46.7771 104.71C46.5502 105.377 46.7317 105.377 47.265 105.377C50.4759 105.354 53.6982 105.365 56.9092 105.365ZM25.73 50.5309C23.5175 50.5309 21.305 50.5309 19.0925 50.5309C16.4375 50.5309 13.7825 50.5535 11.1275 50.5196C10.0836 50.5083 9.07382 51.2773 9.25536 52.4081C9.34613 52.9622 9.31209 53.5389 9.25536 54.0931C9.19863 54.6245 9.41421 54.8846 9.89075 55.0656C11.0934 55.5066 12.2848 55.9702 13.4761 56.4452C14.9852 57.0559 16.4715 57.6891 17.9806 58.2998C20.0909 59.1479 22.19 60.0074 24.3231 60.7876C25.0152 61.0477 25.6732 61.5566 26.5696 61.0364C27.0461 60.7537 27.6588 60.5502 28.2375 60.3466C29.6217 59.8603 30.9832 59.2836 32.3334 58.7182C33.434 58.2659 34.5006 57.7457 35.6011 57.3159C37.5413 56.5583 39.4929 55.8685 41.4331 55.1334C42.0344 54.9073 42.4656 54.568 42.3067 53.799C42.2386 53.4711 42.2954 53.1205 42.2954 52.77C42.284 51.2546 41.5352 50.5083 40.0034 50.5083C35.2607 50.5309 30.4954 50.5309 25.73 50.5309ZM86.6361 76.1105C80.0781 76.1105 73.5086 76.1105 66.9506 76.1105C65.9634 76.1105 65.9634 76.1105 66.145 77.0604C66.2584 77.6711 66.2584 78.2817 66.1563 78.8924C65.9975 79.7971 65.9861 79.7971 66.9279 79.7971C79.8284 79.7971 92.7404 79.7971 105.641 79.7971C105.959 79.7971 106.288 79.8423 106.594 79.7858C107.944 79.5483 108.387 79.1299 108.398 77.8746C108.409 76.823 107.615 76.1332 106.481 76.1332C99.8658 76.1105 93.2509 76.1105 86.6361 76.1105ZM27.3411 76.1105C22.5757 76.1105 17.8104 76.1105 13.045 76.1105C11.1502 76.1105 9.26671 76.1105 7.3719 76.1105C6.62306 76.1105 6.06709 76.4611 5.7494 77.1396C5.4544 77.7842 5.57921 78.768 6.07844 79.1977C6.61171 79.6614 7.2244 79.7745 7.88248 79.7745C21.0327 79.7858 34.1715 79.7858 47.3217 79.7971C47.9457 79.7971 48.0479 79.5596 47.9117 79.062C47.7302 78.3609 47.7302 77.6485 47.8323 76.9474C47.9571 76.0992 47.9911 76.0992 47.1061 76.0992C40.514 76.1105 33.9332 76.1105 27.3411 76.1105ZM57.0227 109.041C52.4502 109.041 47.889 109.041 43.3165 109.041C42.3067 109.041 41.2969 109.007 40.2984 109.052C39.595 109.086 39.0277 109.459 38.7894 110.138C38.5398 110.839 38.5171 111.506 39.1184 112.128C39.6857 112.727 40.3892 112.693 41.07 112.693C48.9102 112.716 56.739 112.705 64.5792 112.705C67.4498 112.705 70.3317 112.716 73.2023 112.693C73.7696 112.693 74.3823 112.727 74.8134 112.207C75.3694 111.528 75.5736 110.805 75.1425 109.979C74.7681 109.255 74.1554 109.029 73.3952 109.029C67.9263 109.041 62.4802 109.041 57.0227 109.041ZM51.4631 77.9877C51.5311 81.041 53.8344 83.4497 57.0794 83.4271C60.2563 83.4045 62.5029 81.041 62.4688 77.999C62.4348 74.7874 60.1882 72.5258 57 72.4805C53.6529 72.424 51.6106 74.9797 51.4631 77.9877ZM25.7413 46.8557C27.3865 46.8557 29.0317 46.8444 30.6769 46.867C31.1194 46.8783 31.2896 46.7652 31.2669 46.3016C31.2329 45.4195 31.2442 44.5374 31.2669 43.6554C31.2782 43.3274 31.1875 43.1691 30.8244 43.1804C27.4319 43.1917 24.0507 43.1917 20.6582 43.1804C20.2271 43.1804 20.1817 43.3727 20.1931 43.7119C20.2044 44.5714 20.2384 45.4308 20.1817 46.2789C20.1477 46.8104 20.3632 46.8783 20.8171 46.867C22.4509 46.8331 24.0961 46.8444 25.7413 46.8557Z" fill="url(#paint0_linear_12953_1182)"/>
<path d="M77.128 26.7493C77.1053 37.9107 68.0398 46.9574 56.6936 46.7765C45.5517 46.5955 36.9059 37.8994 36.8038 26.8624C36.6903 15.6218 45.5971 6.81255 56.7503 6.6203C67.9717 6.41675 77.2075 15.6557 77.128 26.7493ZM56.2851 43.1125C65.3394 43.6214 73.0775 36.4293 73.554 27.5296C74.0192 18.9578 67.4044 10.4765 57.3176 10.2164C48.5698 9.99021 40.9225 16.6848 40.4232 25.9125C39.9467 34.7104 46.9019 42.8638 56.2851 43.1125Z" fill="url(#paint1_linear_12953_1182)"/>
<path d="M48.7059 25.8333C49.7384 25.6976 50.1355 26.5571 50.7028 27.0772C51.7921 28.1063 52.8246 29.2032 53.8798 30.2662C54.0953 30.4811 54.2428 30.3567 54.413 30.1531C55.9334 28.3438 57.4311 26.5231 58.9969 24.759C60.7101 22.8366 62.2759 20.7898 64.0686 18.9352C64.5224 18.4602 65.6571 18.3471 66.213 18.7203C66.9165 19.184 67.2001 20.0773 66.9278 20.8011C66.5307 21.8188 65.6798 22.486 65.0217 23.3002C63.6942 24.9286 62.3099 26.5005 60.9484 28.095C59.5415 29.746 58.1346 31.3971 56.705 33.0255C56.183 33.6248 55.7405 34.3033 55.003 34.7104C54.2315 35.1401 53.5961 34.88 53.0628 34.3712C51.1567 32.5392 49.2732 30.6733 47.4351 28.7848C46.9473 28.2872 46.6976 27.6313 47.0494 26.9076C47.4011 26.2178 47.8663 25.7089 48.7059 25.8333Z" fill="url(#paint2_linear_12953_1182)"/>
</g>
<defs>
<linearGradient id="paint0_linear_12953_1182" x1="56.9968" y1="39.4669" x2="56.9968" y2="116.398" gradientUnits="userSpaceOnUse">
<stop stop-color="#00AD4D"/>
<stop offset="1" stop-color="#103E13"/>
</linearGradient>
<linearGradient id="paint1_linear_12953_1182" x1="56.9656" y1="6.617" x2="56.9656" y2="46.7791" gradientUnits="userSpaceOnUse">
<stop stop-color="#00AD4D"/>
<stop offset="1" stop-color="#103E13"/>
</linearGradient>
<linearGradient id="paint2_linear_12953_1182" x1="56.9572" y1="18.4979" x2="56.9572" y2="34.927" gradientUnits="userSpaceOnUse">
<stop stop-color="#00AD4D"/>
<stop offset="1" stop-color="#103E13"/>
</linearGradient>
<clipPath id="clip0_12953_1182">
<rect width="113" height="123" fill="white"/>
</clipPath>
</defs>
</svg>
