<svg width="38" height="38" viewBox="0 0 38 38" fill="none" xmlns="http://www.w3.org/2000/svg">
<circle cx="19" cy="19" r="19" fill="#D9D9D9" fill-opacity="0.15"/>
<path d="M15.6 16.88L20.19 12.29C20.3773 12.1037 20.6308 11.9992 20.895 11.9992C21.1591 11.9992 21.4126 12.1037 21.6 12.29C21.6937 12.383 21.7681 12.4936 21.8188 12.6154C21.8696 12.7373 21.8958 12.868 21.8958 13C21.8958 13.132 21.8696 13.2627 21.8188 13.3846C21.7681 13.5064 21.6937 13.617 21.6 13.71L17 18.29C16.9062 18.383 16.8318 18.4936 16.7811 18.6154C16.7303 18.7373 16.7042 18.868 16.7042 19C16.7042 19.132 16.7303 19.2627 16.7811 19.3846C16.8318 19.5064 16.9062 19.617 17 19.71L21.6 24.29C21.7883 24.477 21.8946 24.7311 21.8955 24.9965C21.8964 25.2618 21.7919 25.5167 21.605 25.705C21.418 25.8933 21.1639 25.9996 20.8985 26.0006C20.6331 26.0015 20.3783 25.897 20.19 25.71L15.6 21.12C15.0382 20.5575 14.7226 19.795 14.7226 19C14.7226 18.205 15.0382 17.4425 15.6 16.88Z" fill="white"/>
</svg>
