<svg width="43" height="38" viewBox="0 0 43 38" fill="none" xmlns="http://www.w3.org/2000/svg">
<path d="M5.93942 16.9564C6.27375 16.9564 6.60667 16.9564 6.94099 16.9564C18.7764 16.9564 30.6104 16.9592 42.4459 16.9492C42.8662 16.9492 43.0313 17.029 43.0031 17.493C42.9593 18.2189 42.9748 18.9491 42.9988 19.6764C43.0101 20.0066 42.8944 20.0963 42.5897 20.0707C42.3034 20.0465 42.0128 20.065 41.7236 20.065C29.9855 20.065 18.246 20.065 6.50792 20.065C6.31889 20.065 6.13128 20.065 5.80824 20.065C6.1736 20.4479 6.45149 20.7453 6.73645 21.0343C11.2252 25.5648 15.7139 30.0968 20.2111 34.6202C20.4664 34.8764 20.5313 35.023 20.2294 35.2977C19.6835 35.7959 19.1672 36.3311 18.6636 36.8734C18.4393 37.1154 18.3095 37.1353 18.0626 36.8848C15.4769 34.2544 12.8785 31.6369 10.2814 29.0165C6.93535 25.6417 3.59209 22.2655 0.236134 18.9021C-0.0629234 18.6032 -0.0911369 18.448 0.227673 18.1292C6.13692 12.1938 12.0349 6.24702 17.9216 0.288841C18.2615 -0.0541878 18.4562 -0.128204 18.799 0.268913C19.2603 0.804096 19.7794 1.29088 20.2886 1.78194C20.4932 1.97979 20.5158 2.09224 20.2943 2.31428C16.4446 6.18296 12.6076 10.063 8.76498 13.9388C7.80573 14.9067 6.83943 15.8689 5.87595 16.8325C5.8957 16.8738 5.91827 16.9151 5.93942 16.9564Z" fill="#333333"/>
</svg>
