<svg width="8" height="14" viewBox="0 0 8 14" fill="none" xmlns="http://www.w3.org/2000/svg">
<path d="M0.877419 4.88079L5.46742 0.290792C5.65478 0.104542 5.90823 0 6.17242 0C6.43661 0 6.69006 0.104542 6.87742 0.290792C6.97115 0.383755 7.04554 0.494356 7.09631 0.616216C7.14708 0.738075 7.17322 0.868781 7.17322 1.00079C7.17322 1.1328 7.14708 1.26351 7.09631 1.38537C7.04554 1.50723 6.97115 1.61783 6.87742 1.71079L2.27742 6.29079C2.18369 6.38376 2.1093 6.49436 2.05853 6.61622C2.00776 6.73807 1.98162 6.86878 1.98162 7.00079C1.98162 7.1328 2.00776 7.26351 2.05853 7.38537C2.1093 7.50723 2.18369 7.61783 2.27742 7.71079L6.87742 12.2908C7.06572 12.4778 7.17204 12.7319 7.17298 12.9973C7.17391 13.2626 7.0694 13.5175 6.88242 13.7058C6.69544 13.8941 6.44132 14.0004 6.17595 14.0013C5.91059 14.0023 5.65572 13.8978 5.46742 13.7108L0.877419 9.12079C0.315618 8.55829 5.81741e-05 7.79579 5.81741e-05 7.00079C5.81741e-05 6.20579 0.315618 5.44329 0.877419 4.88079Z" fill="white"/>
</svg>
