<svg width="28" height="28" viewBox="0 0 28 28" fill="none" xmlns="http://www.w3.org/2000/svg">
<g clip-path="url(#clip0_13144_471)">
<path d="M22.9574 12.8438C23.1102 11.97 23.2362 11.0763 23.3237 10.1675C23.4042 9.34267 23.1476 8.5575 22.6016 7.9555C22.0532 7.35117 21.2576 7.00467 20.4187 7.00467L2.90707 7.00117C2.07057 7.00117 1.27724 7.3465 0.731237 7.9485C0.18407 8.54933 -0.0725966 9.33333 0.00790339 10.1582C0.532903 15.5645 2.34474 20.4458 3.7739 23.5888C4.9919 26.2687 7.69624 28 10.6631 28H12.6697C15.6389 28 18.3456 26.2617 19.5671 23.5713C19.6021 23.4932 19.6382 23.4138 19.6744 23.3333H22.0707C25.3397 23.3333 27.9997 20.6733 27.9997 17.4043C27.9997 14.7047 26.2101 13.0888 22.9574 12.8438ZM9.9164 13.0748L11.1542 14.3127C11.4844 14.644 11.6664 15.0827 11.6664 15.5505V17.5C11.6664 18.1428 11.1426 18.6667 10.4997 18.6667H9.33307C8.69024 18.6667 8.1664 18.1428 8.1664 17.5V15.5505C8.1664 15.0827 8.3484 14.644 8.67857 14.3127L9.9164 13.0748ZM12.6697 26.8333H10.6631C8.1524 26.8333 5.86457 25.3703 4.83557 23.1058C3.4449 20.0433 1.67857 15.2915 1.16874 10.045C1.1209 9.55267 1.2714 9.08717 1.5934 8.7325C1.92474 8.3685 2.39024 8.16783 2.9059 8.16783H9.33307V12.0085L7.85374 13.4878C7.30307 14.0385 6.99974 14.7712 6.99974 15.5505V17.5C6.99974 18.7868 8.04624 19.8333 9.33307 19.8333H10.4997C11.7866 19.8333 12.8331 18.7868 12.8331 17.5V15.5505C12.8331 14.7712 12.5297 14.0385 11.9791 13.4878L10.4997 12.0085V8.169L20.4187 8.17133C20.9367 8.17133 21.4046 8.37317 21.7371 8.7395C22.0591 9.09533 22.2107 9.562 22.1629 10.0543C21.6531 15.2892 19.8926 20.0328 18.5054 23.0895C17.4729 25.3633 15.1816 26.8333 12.6697 26.8333ZM22.0707 22.1667H20.1784C21.1036 19.9453 22.0871 17.1278 22.7357 13.9977H22.7509C25.4587 14.1703 26.8331 15.316 26.8331 17.4043C26.8331 20.0305 24.6969 22.1667 22.0707 22.1667ZM10.4997 4.08333V0.583333C10.4997 0.261333 10.7611 0 11.0831 0C11.4051 0 11.6664 0.261333 11.6664 0.583333V4.08333C11.6664 4.40533 11.4051 4.66667 11.0831 4.66667C10.7611 4.66667 10.4997 4.40533 10.4997 4.08333ZM15.1664 4.08333V0.583333C15.1664 0.261333 15.4277 0 15.7497 0C16.0717 0 16.3331 0.261333 16.3331 0.583333V4.08333C16.3331 4.40533 16.0717 4.66667 15.7497 4.66667C15.4277 4.66667 15.1664 4.40533 15.1664 4.08333ZM5.83307 4.08333V0.583333C5.83307 0.261333 6.0944 0 6.4164 0C6.7384 0 6.99974 0.261333 6.99974 0.583333V4.08333C6.99974 4.40533 6.7384 4.66667 6.4164 4.66667C6.0944 4.66667 5.83307 4.40533 5.83307 4.08333Z" fill="white"/>
</g>
<defs>
<clipPath id="clip0_13144_471">
<rect width="28" height="28" fill="white"/>
</clipPath>
</defs>
</svg>
