<svg width="51" height="51" viewBox="0 0 51 51" fill="none" xmlns="http://www.w3.org/2000/svg">
<path d="M25.5 0C11.4389 0 0 11.4389 0 25.5C0 39.5611 11.4389 51 25.5 51C39.5611 51 51 39.5611 51 25.5C51 11.4389 39.5611 0 25.5 0ZM27.625 46.6416V44.625C27.625 43.452 26.6751 42.5 25.5 42.5C24.3249 42.5 23.375 43.452 23.375 44.625V46.6416C13.3514 45.6407 5.35713 37.6486 4.35838 27.625H6.375C7.55013 27.625 8.5 26.673 8.5 25.5C8.5 24.327 7.55013 23.375 6.375 23.375H4.35838C5.35713 13.3514 13.3514 5.35713 23.375 4.35838V6.375C23.375 7.548 24.3249 8.5 25.5 8.5C26.6751 8.5 27.625 7.548 27.625 6.375V4.35838C37.6486 5.35925 45.6429 13.3514 46.6416 23.375H44.625C43.4499 23.375 42.5 24.327 42.5 25.5C42.5 26.673 43.4499 27.625 44.625 27.625H46.6416C45.6407 37.6486 37.6486 45.6429 27.625 46.6416ZM24.4375 32.9375C24.4375 34.697 23.0095 36.125 21.25 36.125C19.4905 36.125 18.0625 34.697 18.0625 32.9375C18.0625 31.178 19.4905 29.75 21.25 29.75C23.0095 29.75 24.4375 31.178 24.4375 32.9375ZM32.9375 32.9375C32.9375 34.697 31.5095 36.125 29.75 36.125C27.9905 36.125 26.5625 34.697 26.5625 32.9375C26.5625 31.178 27.9905 29.75 29.75 29.75C31.5095 29.75 32.9375 31.178 32.9375 32.9375ZM36.125 23.375H35.0625C34 19.0846 31.2991 12.75 28.6875 12.75C28.101 12.75 27.6016 12.9774 27.1426 13.3131C26.6454 13.6765 26.0716 13.8593 25.5 13.8593C24.9284 13.8593 24.3546 13.6765 23.8574 13.3131C23.3984 12.9774 22.899 12.75 22.3125 12.75C19.7009 12.75 17 19.0846 15.9375 23.375H14.875C13.702 23.375 12.75 24.327 12.75 25.5C12.75 26.673 13.702 27.625 14.875 27.625H36.125C37.298 27.625 38.25 26.673 38.25 25.5C38.25 24.327 37.298 23.375 36.125 23.375Z" fill="url(#paint0_linear_15648_238)"/>
<defs>
<linearGradient id="paint0_linear_15648_238" x1="25.5" y1="6.37932e-07" x2="4.09527" y2="47.3556" gradientUnits="userSpaceOnUse">
<stop stop-color="#00AD4D"/>
<stop offset="1" stop-color="#7FC241"/>
</linearGradient>
</defs>
</svg>
