<svg width="26" height="26" viewBox="0 0 26 26" fill="none" xmlns="http://www.w3.org/2000/svg">
<g clip-path="url(#clip0_13159_237)">
<path d="M9.75 13C13.3348 13 16.25 10.0848 16.25 6.5C16.25 2.91525 13.3348 0 9.75 0C6.16525 0 3.25 2.91525 3.25 6.5C3.25 10.0848 6.16525 13 9.75 13ZM9.75 1.08333C12.7368 1.08333 15.1667 3.51325 15.1667 6.5C15.1667 9.48675 12.7368 11.9167 9.75 11.9167C6.76325 11.9167 4.33333 9.48675 4.33333 6.5C4.33333 3.51325 6.76325 1.08333 9.75 1.08333ZM13.3185 17.017C12.194 16.5089 10.9937 16.25 9.75 16.25C4.97142 16.25 1.08333 20.1381 1.08333 24.9167V25.4583C1.08333 25.7573 0.840667 26 0.541667 26C0.242667 26 0 25.7573 0 25.4583V24.9167C0 19.5412 4.3745 15.1667 9.75 15.1667C11.1486 15.1667 12.4995 15.457 13.7648 16.029C14.0368 16.1525 14.1581 16.4732 14.0357 16.7462C13.9122 17.0181 13.5915 17.1405 13.3185 17.017ZM26 21.125C26 21.424 25.7573 21.6667 25.4583 21.6667H23.4195C23.2429 21.6667 23.0577 21.8454 22.9569 22.1108L21.8216 25.1258C21.6168 25.6685 21.1824 26 20.6798 26C20.6635 26 20.6473 26 20.631 26C20.1023 25.9773 19.6538 25.5818 19.487 24.9914L17.3864 17.5543C17.3388 17.3853 17.2456 17.3344 17.238 17.3344C17.2196 17.3344 17.1578 17.3745 17.1069 17.5077L15.9716 20.5227C15.7094 21.2193 15.1298 21.6688 14.4961 21.6688H12.4573C12.1583 21.6688 11.9156 21.4262 11.9156 21.1272C11.9156 20.8282 12.1583 20.5855 12.4573 20.5855H14.4961C14.6727 20.5855 14.8579 20.4067 14.9587 20.1413L16.094 17.1264C16.3053 16.5653 16.7624 16.2218 17.2846 16.2533C17.8133 16.276 18.2618 16.6714 18.4286 17.2618L20.5292 24.6989C20.5768 24.8679 20.6733 24.9156 20.6776 24.9188C20.696 24.9188 20.7578 24.8787 20.8087 24.7455L21.944 21.7306C22.2062 21.034 22.7858 20.5844 23.4195 20.5844H25.4583C25.7573 20.5844 26 20.826 26 21.125Z" fill="white"/>
</g>
<defs>
<clipPath id="clip0_13159_237">
<rect width="26" height="26" fill="white"/>
</clipPath>
</defs>
</svg>
