<svg width="24" height="24" viewBox="0 0 24 24" fill="none" xmlns="http://www.w3.org/2000/svg">
<g clip-path="url(#clip0_15552_613)">
<path d="M22.926 6.26395C24.356 4.83195 24.356 2.50495 22.926 1.07595C21.496 -0.356047 19.166 -0.356047 17.737 1.07595L6.79998 12.011C5.29098 11.928 3.75498 12.462 2.60398 13.612C1.10298 15.114 0.254979 19.353 0.0169786 21.383C-0.0670214 22.096 0.174979 22.795 0.680979 23.301C1.11998 23.741 1.70598 23.982 2.32098 23.982C2.41398 23.982 2.50698 23.976 2.59898 23.965C2.83998 23.937 8.53698 23.247 10.388 21.396C11.538 20.246 12.071 18.71 11.988 17.201L22.926 6.26395ZM8.97298 19.981C8.11898 20.835 4.87798 21.682 2.36398 21.978C2.22898 21.999 2.13598 21.928 2.09398 21.886C2.05298 21.845 1.98598 21.755 2.00198 21.615C2.29598 19.113 3.17598 15.868 4.01798 15.025C4.70198 14.342 5.59798 14.001 6.49598 14.001C7.39398 14.001 8.28998 14.343 8.97398 15.025C10.34 16.391 10.34 18.614 8.97398 19.98L8.97298 19.981ZM10.387 13.612C9.97598 13.201 9.51498 12.868 9.02398 12.615L19.15 2.48895C19.8 1.83895 20.861 1.83895 21.511 2.48895C22.161 3.13895 22.161 4.19795 21.511 4.84895L11.384 14.975C11.13 14.484 10.798 14.023 10.387 13.612Z" fill="#00AD4D"/>
<path d="M4.72201 9.91007C4.91701 10.1051 5.17301 10.2031 5.42901 10.2031C5.68501 10.2031 5.94101 10.1051 6.13601 9.91007C6.52701 9.51907 6.52701 8.88707 6.13601 8.49607L2.49001 4.85007C1.83901 4.19907 1.83901 3.14007 2.49001 2.48907C3.14101 1.83907 4.20101 1.83907 4.85001 2.48907L8.49601 6.13607C8.88701 6.52707 9.51901 6.52707 9.91001 6.13607C10.301 5.74507 10.301 5.11307 9.91001 4.72207L6.26401 1.07507C4.83201 -0.354934 2.50501 -0.354934 1.07501 1.07407C-0.354989 2.50307 -0.355989 4.83307 1.07501 6.26307L4.72101 9.90907L4.72201 9.91007Z" fill="#00AD4D"/>
<path d="M22.242 17.0539L19.287 14.0979C18.896 13.7069 18.264 13.7069 17.873 14.0979C17.482 14.4889 17.482 15.1209 17.873 15.5119L20.828 18.4679C21.573 19.2119 22 20.2419 22 21.2959V21.9999H21.297C20.228 21.9999 19.223 21.5839 18.468 20.8279L15.512 17.8729C15.121 17.4819 14.489 17.4819 14.098 17.8729C13.707 18.2639 13.707 18.8959 14.098 19.2869L17.054 22.2419C18.186 23.3759 19.694 23.9999 21.297 23.9999H23C23.553 23.9999 24 23.5529 24 22.9999V21.2959C24 19.7159 23.359 18.1689 22.242 17.0539Z" fill="#00AD4D"/>
</g>
<defs>
<clipPath id="clip0_15552_613">
<rect width="24" height="24" fill="white"/>
</clipPath>
</defs>
</svg>
