<svg width="28" height="28" viewBox="0 0 28 28" fill="none" xmlns="http://www.w3.org/2000/svg">
<g clip-path="url(#clip0_13142_425)">
<path d="M25.3505 9.863C25.0798 10.0368 25.0005 10.3973 25.1755 10.6692C26.1543 12.194 26.6922 13.9417 26.7913 15.75H20.9697C20.937 14.9438 20.8565 14.126 20.692 13.3023C20.6278 12.9862 20.3152 12.7785 20.006 12.845C19.6898 12.908 19.4857 13.2148 19.5475 13.531C19.6968 14.2777 19.7703 15.0197 19.8018 15.75H12.859C12.999 12.5603 14.2322 9.7265 15.2892 7.8715C15.449 7.5915 15.351 7.23567 15.0698 7.07583C14.7887 6.916 14.4352 7.014 14.2742 7.294C13.1472 9.27267 11.8312 12.3083 11.6912 15.75H5.859C6.12267 11.0763 9.51067 7.05483 14.1213 6.06667C14.4375 5.999 14.637 5.68867 14.5705 5.37367C14.5017 5.0575 14.1902 4.85917 13.8775 4.92567C8.54 6.069 4.6655 10.8663 4.6655 16.3333C4.6655 22.7663 9.89917 28 16.3322 28C22.7652 28 27.9988 22.7663 27.9988 16.3333C27.9988 14.0933 27.3618 11.9163 26.1567 10.038C25.9817 9.76617 25.62 9.688 25.3505 9.86183V9.863ZM19.8088 16.9167C19.6152 21.2998 17.3227 25.0262 16.3322 26.4355C15.3428 25.0262 13.0503 21.2998 12.8555 16.9167H19.8088ZM5.8625 16.9167H11.6888C11.865 21.329 13.9673 25.0378 15.1317 26.7587C10.0975 26.1823 6.146 22.0325 5.8625 16.9167ZM17.5338 26.7587C18.697 25.0367 20.7993 21.329 20.9767 16.9167H26.803C26.5195 22.0325 22.568 26.1823 17.5338 26.7587ZM17.871 6.1705C18.3155 6.69783 18.9653 7 19.6537 7H20.342L19.6257 8.84217C19.4798 9.21667 19.5277 9.639 19.754 9.97033C19.9815 10.3017 20.3572 10.5 20.7585 10.5H21.1307C21.8178 10.5 22.4502 10.1255 22.7267 9.60167L24.7812 7H26.2488C27.2137 7 27.9988 6.21483 27.9988 5.25C27.9988 4.28517 27.2137 3.5 26.2488 3.5H24.7788L22.7617 0.98C22.4327 0.375667 21.8003 0 21.1108 0H20.7632C20.3595 0 19.9838 0.198333 19.7575 0.532C19.5312 0.865667 19.4845 1.288 19.6327 1.66367L20.3572 3.5H19.9465L18.8825 2.77083C18.2198 2.10933 17.0065 2.26683 16.5352 3.07767C16.2657 3.54317 16.2633 4.09967 16.5912 4.65383L17.871 6.1705ZM17.5455 3.66333C17.5735 3.61433 17.6587 3.5 17.8278 3.5C17.913 3.5 17.9982 3.535 18.1382 3.66217L19.4332 4.56167C19.5312 4.62933 19.6478 4.6655 19.7657 4.6655H21.2135C21.406 4.6655 21.5868 4.56983 21.6953 4.41C21.805 4.25017 21.826 4.04717 21.756 3.8675L20.7632 1.1655H21.1108C21.3722 1.1655 21.6125 1.30783 21.7933 1.62167L24.0438 4.44617C24.1547 4.585 24.3215 4.6655 24.5 4.6655H26.25C26.5708 4.6655 26.8333 4.92683 26.8333 5.24883C26.8333 5.57083 26.5708 5.83217 26.25 5.83217H24.5C24.3215 5.83217 24.1523 5.91383 24.0415 6.05383L21.7583 8.95883C21.6335 9.18867 21.3932 9.331 21.1318 9.331H20.713L21.7385 6.6255C21.8085 6.44583 21.7852 6.244 21.6767 6.08533C21.567 5.92667 21.3873 5.831 21.1948 5.831H19.6548C19.3107 5.831 18.9863 5.67933 18.7623 5.41683L17.5443 3.9865C17.4603 3.8395 17.5175 3.71 17.5443 3.661L17.5455 3.66333ZM5.558 27.006C5.78433 27.2347 5.782 27.6045 5.55333 27.8308C5.32583 28.0583 4.95483 28.056 4.7285 27.8273C1.67883 24.7485 0 20.6675 0 16.3333C0 8.75817 5.34917 2.667 13.3093 1.176C13.6208 1.12117 13.93 1.32417 13.9895 1.64267C14.049 1.95883 13.8402 2.26333 13.524 2.32283C6.13317 3.70767 1.16667 9.33683 1.16667 16.3333C1.16667 20.3572 2.7265 24.1477 5.558 27.006Z" fill="white"/>
</g>
<defs>
<clipPath id="clip0_13142_425">
<rect width="28" height="28" fill="white"/>
</clipPath>
</defs>
</svg>
