<svg width="28" height="28" viewBox="0 0 28 28" fill="none" xmlns="http://www.w3.org/2000/svg">
<g clip-path="url(#clip0_13144_466)">
<path d="M19.7867 26.1228C19.9127 26.4192 19.775 26.7622 19.4787 26.8882C17.7427 27.6267 15.9005 28.0012 14 28.0012C6.28017 28 0 21.7198 0 14C0 6.28017 6.28017 0 14 0C14.2042 0 14.4072 0.0035 14.609 0.0128333C14.931 0.0268333 15.1807 0.299833 15.1667 0.620667C15.1527 0.942667 14.8808 1.21333 14.5588 1.17833C14.3733 1.17017 14.1878 1.16667 14.0012 1.16667C6.92417 1.16667 1.16667 6.92417 1.16667 14C1.16667 21.0758 6.92417 26.8333 14 26.8333C15.7418 26.8333 17.4312 26.4903 19.0213 25.8137C19.3188 25.6865 19.6607 25.8253 19.7867 26.1217V26.1228ZM14 5.83333C14.1832 5.83333 14.364 5.83917 14.5437 5.852C14.5577 5.852 14.5705 5.852 14.5845 5.852C14.889 5.852 15.1445 5.61633 15.1667 5.30833C15.1888 4.98633 14.9462 4.70867 14.6242 4.6865C14.4188 4.6725 14.21 4.6655 14.0012 4.6655C8.855 4.6655 4.66783 8.85267 4.66783 13.9988C4.66783 19.145 8.855 23.3322 14.0012 23.3322C16.0405 23.3322 17.9772 22.687 19.6023 21.4655C19.8602 21.2718 19.9115 20.9067 19.719 20.6488C19.5253 20.3922 19.1602 20.3408 18.9023 20.5322C17.4802 21.6008 15.7862 22.1655 14.0023 22.1655C9.499 22.1655 5.83567 18.5022 5.83567 13.9988C5.83567 9.4955 9.499 5.83217 14.0023 5.83217L14 5.83333ZM27.4167 0C27.0947 0 26.8333 0.261333 26.8333 0.583333V8.75C26.8333 10.801 25.3073 12.488 23.3333 12.7738V0.583333C23.3333 0.261333 23.072 0 22.75 0C22.428 0 22.1667 0.261333 22.1667 0.583333V12.7738C20.1927 12.488 18.6667 10.801 18.6667 8.75V0.583333C18.6667 0.261333 18.4053 0 18.0833 0C17.7613 0 17.5 0.261333 17.5 0.583333V8.75C17.5 11.445 19.5487 13.6465 22.1667 13.9405V27.4167C22.1667 27.7387 22.428 28 22.75 28C23.072 28 23.3333 27.7387 23.3333 27.4167V13.9405C25.9513 13.6465 28 11.445 28 8.75V0.583333C28 0.261333 27.7387 0 27.4167 0Z" fill="white"/>
</g>
<defs>
<clipPath id="clip0_13144_466">
<rect width="28" height="28" fill="white"/>
</clipPath>
</defs>
</svg>
