<svg width="23" height="19" viewBox="0 0 23 19" fill="none" xmlns="http://www.w3.org/2000/svg">
<path d="M22.1667 9.43158C22.1683 10.4829 21.7629 11.4804 21.0235 12.2277L14.82 18.6893C14.6648 18.8508 14.4574 18.9316 14.25 18.9316C14.0521 18.9316 13.8558 18.8587 13.7006 18.7099C13.3855 18.4091 13.376 17.9056 13.6784 17.5905L19.8898 11.121C20.1479 10.8597 20.3363 10.5542 20.4519 10.2232H0.791667C0.354667 10.2232 0 9.86858 0 9.43158C0 8.99458 0.354667 8.63991 0.791667 8.63991H20.4424C20.3237 8.31058 20.1321 8.00974 19.8756 7.75483L13.6151 1.34391C13.3095 1.03199 13.3158 0.530076 13.6278 0.224492C13.9413 -0.0795076 14.4432 -0.0747578 14.7472 0.238742L20.9982 6.64016C21.7407 7.37166 22.1588 8.37549 22.1667 9.43158Z" fill="#7FC241"/>
</svg>
