<svg width="23" height="19" viewBox="0 0 23 19" fill="none" xmlns="http://www.w3.org/2000/svg">
<path d="M1.90735e-05 9.43158C-0.00156403 10.4829 0.40377 11.4804 1.14319 12.2277L7.34669 18.6893C7.50185 18.8508 7.70927 18.9316 7.91669 18.9316C8.1146 18.9316 8.31094 18.8587 8.4661 18.7099C8.78119 18.4091 8.79069 17.9056 8.48827 17.5905L2.27685 11.121C2.01877 10.8597 1.83035 10.5542 1.71477 10.2232H21.375C21.812 10.2232 22.1667 9.86858 22.1667 9.43158C22.1667 8.99458 21.812 8.63991 21.375 8.63991H1.72427C1.84302 8.31058 2.0346 8.00974 2.2911 7.75483L8.5516 1.34391C8.85719 1.03199 8.85085 0.530076 8.53894 0.224492C8.22544 -0.0795076 7.72352 -0.0747578 7.41952 0.238742L1.16852 6.64016C0.425938 7.37166 0.00793648 8.37549 1.90735e-05 9.43158Z" fill="#808080"/>
</svg>
