<svg width="24" height="24" viewBox="0 0 24 24" fill="none" xmlns="http://www.w3.org/2000/svg">
<g clip-path="url(#clip0_12958_1360)">
<path d="M5.00002 6C6.65402 6 8.00002 4.654 8.00002 3C8.00002 1.346 6.65402 0 5.00002 0C3.34602 0 2.00002 1.346 2.00002 3C2.00002 4.654 3.34602 6 5.00002 6ZM5.00002 1C6.10302 1 7.00002 1.897 7.00002 3C7.00002 4.103 6.10302 5 5.00002 5C3.89702 5 3.00002 4.103 3.00002 3C3.00002 1.897 3.89702 1 5.00002 1ZM17.5 16C19.981 16 22 13.981 22 11.5C22 9.019 19.981 7 17.5 7C15.019 7 13 9.019 13 11.5C13 13.981 15.019 16 17.5 16ZM17.5 8C19.43 8 21 9.57 21 11.5C21 13.43 19.43 15 17.5 15C15.57 15 14 13.43 14 11.5C14 9.57 15.57 8 17.5 8ZM8.41402 19.086C8.79202 19.464 9.00002 19.966 9.00002 20.5C9.00002 21.034 8.79202 21.536 8.41402 21.914L6.47502 23.853C6.37702 23.951 6.24902 23.999 6.12102 23.999C5.99302 23.999 5.86502 23.95 5.76702 23.853C5.57202 23.658 5.57202 23.341 5.76702 23.146L7.70602 21.207C7.76902 21.144 7.82202 21.074 7.86502 21H3.99902C1.79302 21 -0.000976562 19.206 -0.000976562 17V14.5C-0.000976562 14.224 0.223023 14 0.499023 14C0.775023 14 0.999023 14.224 0.999023 14.5V17C0.999023 18.654 2.34502 20 3.99902 20H7.86502C7.82202 19.926 7.76902 19.856 7.70602 19.793L5.76702 17.854C5.57202 17.659 5.57202 17.342 5.76702 17.147C5.96202 16.952 6.27902 16.952 6.47402 17.147L8.41402 19.086ZM23.584 23.993C23.556 23.998 23.527 24 23.499 24C23.26 24 23.049 23.828 23.007 23.584C22.555 20.928 20.238 19 17.5 19C14.762 19 12.445 20.928 11.993 23.584C11.947 23.856 11.689 24.041 11.416 23.993C11.144 23.946 10.961 23.688 11.007 23.416C11.541 20.277 14.271 18 17.5 18C20.729 18 23.458 20.277 23.993 23.416C24.039 23.688 23.856 23.946 23.584 23.993ZM9.96902 11.445C9.99902 11.719 9.80202 11.966 9.52702 11.997C9.50802 11.999 9.49002 12 9.47202 12C9.22102 12 9.00402 11.811 8.97502 11.555C8.75102 9.529 7.04202 8 5.00002 8C2.95802 8 1.24902 9.528 1.02502 11.555C0.995023 11.829 0.751023 12.033 0.473023 11.997C0.198023 11.967 2.34358e-05 11.72 0.0310234 11.445C0.311023 8.911 2.44802 7 5.00002 7C7.55202 7 9.68902 8.911 9.96902 11.445Z" fill="white"/>
</g>
<defs>
<clipPath id="clip0_12958_1360">
<rect width="24" height="24" fill="white"/>
</clipPath>
</defs>
</svg>
