<svg width="43" height="38" viewBox="0 0 43 38" fill="none" xmlns="http://www.w3.org/2000/svg">
<path d="M37.0667 16.9564C36.7324 16.9564 36.3995 16.9564 36.0651 16.9564C24.2297 16.9564 12.3957 16.9592 0.560275 16.9492C0.139899 16.9492 -0.0251479 17.029 0.00306531 17.493C0.0467957 18.2189 0.0312784 18.9491 0.00729724 19.6764C-0.00398802 20.0066 0.111686 20.0963 0.416388 20.0707C0.702752 20.0465 0.993347 20.065 1.28253 20.065C13.0206 20.065 24.7601 20.065 36.4982 20.065C36.6872 20.065 36.8749 20.065 37.1979 20.065C36.8325 20.4479 36.5546 20.7453 36.2697 21.0343C31.781 25.5648 27.2922 30.0968 22.7951 34.6202C22.5397 34.8764 22.4749 35.023 22.7767 35.2977C23.3227 35.7959 23.839 36.3311 24.3426 36.8734C24.5669 37.1154 24.6966 37.1353 24.9435 36.8848C27.5292 34.2544 30.1277 31.6369 32.7247 29.0165C36.0708 25.6417 39.414 22.2655 42.77 18.9021C43.069 18.6032 43.0973 18.448 42.7785 18.1292C36.8692 12.1938 30.9712 6.24702 25.0846 0.288841C24.7446 -0.0541878 24.5499 -0.128204 24.2071 0.268913C23.7459 0.804096 23.2267 1.29088 22.7175 1.78194C22.5129 1.97979 22.4904 2.09224 22.7118 2.31428C26.5615 6.18296 30.3985 10.063 34.2411 13.9388C35.2004 14.9067 36.1667 15.8689 37.1302 16.8325C37.1104 16.8738 37.0879 16.9151 37.0667 16.9564Z" fill="white"/>
</svg>
