<svg width="8" height="14" viewBox="0 0 8 14" fill="none" xmlns="http://www.w3.org/2000/svg">
<path d="M6.35701 4.88079L1.72238 0.290792C1.5332 0.104542 1.27728 0 1.01053 0C0.743774 0 0.487858 0.104542 0.298674 0.290792C0.204034 0.383755 0.128917 0.494356 0.0776549 0.616216C0.0263926 0.738075 0 0.868781 0 1.00079C0 1.1328 0.0263926 1.26351 0.0776549 1.38537C0.128917 1.50723 0.204034 1.61783 0.298674 1.71079L4.9434 6.29079C5.03804 6.38376 5.11315 6.49436 5.16442 6.61622C5.21568 6.73807 5.24207 6.86878 5.24207 7.00079C5.24207 7.1328 5.21568 7.26351 5.16442 7.38537C5.11315 7.50723 5.03804 7.61783 4.9434 7.71079L0.298674 12.2908C0.10854 12.4778 0.00119139 12.7319 0.000244588 12.9973C-0.00070221 13.2626 0.104831 13.5175 0.293626 13.7058C0.482422 13.8941 0.739015 14.0004 1.00696 14.0013C1.2749 14.0023 1.53225 13.8978 1.72238 13.7108L6.35701 9.12079C6.92427 8.55829 7.2429 7.79579 7.2429 7.00079C7.2429 6.20579 6.92427 5.44329 6.35701 4.88079Z" fill="white"/>
</svg>
