<svg width="30" height="30" viewBox="0 0 30 30" fill="none" xmlns="http://www.w3.org/2000/svg">
<g clip-path="url(#clip0_13141_410)">
<path d="M17.2875 6.58503C18.675 5.84503 20.3638 4.60878 21.1125 2.72628C21.3538 2.11878 21.2788 1.45378 20.905 0.903779C20.5213 0.337529 19.8863 -0.0012207 19.205 -0.0012207H10.795C10.115 -0.0012207 9.47875 0.337529 9.095 0.903779C8.72125 1.45378 8.64625 2.11878 8.88625 2.72628C9.635 4.60878 11.3238 5.84503 12.7113 6.58503C6.5475 8.27503 1.25 16.3675 1.25 22.8125C1.25 26.775 4.475 30 8.4375 30H21.5625C25.525 30 28.75 26.775 28.75 22.8125C28.75 16.3675 23.4525 8.27503 17.2875 6.58503ZM10.0488 2.26503C9.93125 1.97003 10.0488 1.72503 10.1288 1.60753C10.28 1.38378 10.5288 1.25128 10.795 1.25128H19.205C19.47 1.25128 19.72 1.38378 19.8713 1.60753C19.9513 1.72628 20.0688 1.97003 19.9513 2.26628C18.9663 4.74378 15.78 5.95628 15 6.22003C14.2188 5.95753 11.0388 4.75253 10.05 2.26503H10.0488ZM21.5625 28.75H8.4375C5.16375 28.75 2.5 26.0863 2.5 22.8125C2.5 16.1263 8.56125 7.50003 15 7.50003C21.4388 7.50003 27.5 16.1263 27.5 22.8125C27.5 26.0863 24.8363 28.75 21.5625 28.75ZM20 21.7175C20 23.5275 18.5275 25 16.7175 25H15.625V26.875C15.625 27.22 15.345 27.5 15 27.5C14.655 27.5 14.375 27.22 14.375 26.875V25H13.2175C11.9938 25 10.8538 24.3425 10.2413 23.2825C10.0675 22.9838 10.17 22.6013 10.4688 22.4288C10.7675 22.2538 11.1488 22.3575 11.3225 22.6563C11.7125 23.3313 12.44 23.75 13.2175 23.75H16.7175C17.8375 23.75 18.75 22.8388 18.75 21.7175C18.75 20.7138 18.0313 19.87 17.04 19.7113L12.7625 19.0238C11.1625 18.7663 10.0013 17.4038 10.0013 15.7825C10.0013 13.9725 11.4738 12.5 13.2838 12.5H14.3763V10.625C14.3763 10.28 14.6563 10 15.0013 10C15.3463 10 15.6263 10.28 15.6263 10.625V12.5H16.7838C18.0063 12.5 19.1475 13.1588 19.76 14.2188C19.9338 14.5175 19.8313 14.9 19.5325 15.0725C19.2313 15.245 18.8525 15.1425 18.6788 14.845C18.2888 14.17 17.5613 13.7513 16.7838 13.7513H13.2838C12.1638 13.7513 11.2513 14.6625 11.2513 15.7838C11.2513 16.7875 11.97 17.6313 12.9613 17.79L17.2388 18.4775C18.8388 18.735 20 20.0963 20 21.7175Z" fill="white"/>
</g>
<defs>
<clipPath id="clip0_13141_410">
<rect width="30" height="30" fill="white"/>
</clipPath>
</defs>
</svg>
