<svg width="62" height="58" viewBox="0 0 62 58" fill="none" xmlns="http://www.w3.org/2000/svg">
<path d="M49.125 4.84961C55.2025 4.84961 60.1503 9.76167 60.1504 15.7998V35C60.1504 41.0382 55.2026 45.9502 49.125 45.9502H32.3584V50.4502H41.875C42.6238 50.4502 43.2333 51.0537 43.2334 51.7998C43.2334 52.546 42.6239 53.1504 41.875 53.1504H20.125C19.3761 53.1504 18.7666 52.546 18.7666 51.7998C18.7667 51.0537 19.3762 50.4502 20.125 50.4502H29.6416V45.9502H12.875C6.79739 45.9502 1.84961 41.0382 1.84961 35V15.7998C1.84972 9.76167 6.79745 4.84961 12.875 4.84961H49.125ZM12.875 7.5498C8.29276 7.5498 4.56651 11.2517 4.56641 15.7998V35C4.56641 39.5482 8.2927 43.25 12.875 43.25H49.125C53.7073 43.25 57.4336 39.5482 57.4336 35V15.7998C57.4335 11.2517 53.7072 7.5498 49.125 7.5498H12.875Z" fill="#00AD4D" stroke="#00AD4D" stroke-width="0.3"/>
</svg>
