<svg width="43" height="51" viewBox="0 0 43 51" fill="none" xmlns="http://www.w3.org/2000/svg">
<path d="M35.2346 4.54752L21.9215 0.108398C21.4856 -0.0367839 21.0144 -0.0367839 20.5785 0.108398L7.26538 4.54752C5.14868 5.25065 3.30739 6.60294 2.00312 8.41228C0.698857 10.2216 -0.00204356 12.396 4.4755e-06 14.6264V25.5C4.4755e-06 41.5714 19.55 50.4475 20.3873 50.8173C20.6589 50.9379 20.9528 51.0003 21.25 51.0003C21.5472 51.0003 21.8411 50.9379 22.1128 50.8173C22.95 50.4475 42.5 41.5714 42.5 25.5V14.6264C42.5021 12.396 41.8012 10.2216 40.4969 8.41228C39.1926 6.60294 37.3513 5.25065 35.2346 4.54752ZM31.2758 20.6486L22.1978 29.7267C21.8263 30.1006 21.3842 30.3971 20.8972 30.5988C20.4102 30.8005 19.888 30.9035 19.3609 30.9018H19.2908C18.7529 30.8935 18.2223 30.7763 17.731 30.5572C17.2398 30.338 16.7981 30.0215 16.4326 29.6268L11.5324 24.5268C11.3202 24.3299 11.1504 24.0917 11.0335 23.8268C10.9167 23.562 10.8552 23.276 10.8528 22.9866C10.8504 22.6971 10.9072 22.4102 11.0196 22.1434C11.1321 21.8767 11.2979 21.6357 11.5068 21.4353C11.7157 21.2349 11.9634 21.0794 12.2346 20.9781C12.5059 20.8769 12.7949 20.8322 13.084 20.8467C13.3732 20.8611 13.6563 20.9345 13.916 21.0624C14.1758 21.1902 14.4066 21.3698 14.5945 21.59L19.363 26.5625L28.2625 17.6375C28.6633 17.2504 29.2001 17.0363 29.7572 17.0411C30.3144 17.0459 30.8474 17.2694 31.2414 17.6634C31.6354 18.0574 31.8588 18.5904 31.8637 19.1475C31.8685 19.7047 31.6543 20.2415 31.2673 20.6423L31.2758 20.6486Z" fill="url(#paint0_linear_15614_476)"/>
<defs>
<linearGradient id="paint0_linear_15614_476" x1="21.25" y1="-0.000487643" x2="-2.65214" y2="44.0662" gradientUnits="userSpaceOnUse">
<stop stop-color="#00AD4D"/>
<stop offset="1" stop-color="#7FC241"/>
</linearGradient>
</defs>
</svg>
