<svg width="57" height="57" viewBox="0 0 57 57" fill="none" xmlns="http://www.w3.org/2000/svg">
<g clip-path="url(#clip0_15327_578)">
<path d="M44.1299 5.08258L29.2505 0.121209C28.7633 -0.0410539 28.2367 -0.0410539 27.7495 0.121209L12.8701 5.08258C10.5044 5.86843 8.44649 7.37982 6.98878 9.40202C5.53108 11.4242 4.74772 13.8544 4.75001 16.3472V28.5001C4.75001 46.4622 26.6 56.3826 27.5358 56.7958C27.8393 56.9307 28.1678 57.0004 28.5 57.0004C28.8322 57.0004 29.1607 56.9307 29.4643 56.7958C30.4 56.3826 52.25 46.4622 52.25 28.5001V16.3472C52.2523 13.8544 51.4689 11.4242 50.0112 9.40202C48.5535 7.37982 46.4956 5.86843 44.1299 5.08258ZM47.5 28.5001C47.5 41.4557 32.4924 49.9535 28.5 51.9865C24.5029 49.9606 9.50001 41.489 9.50001 28.5001V16.3472C9.50014 14.8516 9.97091 13.394 10.8456 12.1808C11.7203 10.9677 12.9545 10.0606 14.3735 9.58796L28.5 4.87833L42.6265 9.58796C44.0455 10.0606 45.2797 10.9677 46.1544 12.1808C47.0291 13.394 47.4999 14.8516 47.5 16.3472V28.5001Z" fill="#00AD4D"/>
<path d="M36.3376 19.7126L26.3911 29.6876L21.0616 24.1301C20.8477 23.8962 20.5892 23.7075 20.3013 23.5751C20.0134 23.4427 19.7018 23.3693 19.3851 23.3592C19.0683 23.349 18.7528 23.4024 18.457 23.5161C18.1612 23.6298 17.8911 23.8015 17.6627 24.0212C17.4343 24.2409 17.2522 24.5041 17.127 24.7952C17.0019 25.0864 16.9363 25.3997 16.9341 25.7166C16.932 26.0335 16.9932 26.3476 17.1143 26.6405C17.2354 26.9333 17.4139 27.199 17.6392 27.4218L23.116 33.1218C23.5244 33.563 24.0181 33.9167 24.5672 34.1616C25.1162 34.4066 25.7092 34.5376 26.3104 34.5468H26.3887C26.9779 34.5488 27.5615 34.4337 28.1058 34.2082C28.6501 33.9827 29.1442 33.6514 29.5594 33.2334L39.7054 23.0874C39.927 22.8663 40.1028 22.6037 40.2229 22.3146C40.3431 22.0255 40.405 21.7156 40.4054 21.4025C40.4057 21.0895 40.3444 20.7794 40.2249 20.4901C40.1054 20.2007 39.9301 19.9377 39.7089 19.7161C39.4878 19.4945 39.2252 19.3186 38.9361 19.1985C38.647 19.0784 38.3371 19.0164 38.024 19.0161C37.711 19.0158 37.4009 19.0771 37.1116 19.1966C36.8222 19.3161 36.5592 19.4914 36.3376 19.7126Z" fill="#00AD4D"/>
</g>
<defs>
<clipPath id="clip0_15327_578">
<rect width="57" height="57" fill="white"/>
</clipPath>
</defs>
</svg>
