<svg width="56" height="56" viewBox="0 0 56 56" fill="none" xmlns="http://www.w3.org/2000/svg">
<g clip-path="url(#clip0_12742_455)">
<path d="M43.3557 4.99341L28.7373 0.119074C28.2587 -0.0403422 27.7413 -0.0403422 27.2627 0.119074L12.6443 4.99341C10.3201 5.76546 8.2983 7.25034 6.86616 9.23706C5.43403 11.2238 4.66441 13.6113 4.66666 16.0604V28.0001C4.66666 45.6471 26.1333 55.3934 27.0527 55.7994C27.3509 55.9319 27.6736 56.0004 28 56.0004C28.3264 56.0004 28.6491 55.9319 28.9473 55.7994C29.8667 55.3934 51.3333 45.6471 51.3333 28.0001V16.0604C51.3356 13.6113 50.566 11.2238 49.1338 9.23706C47.7017 7.25034 45.6799 5.76546 43.3557 4.99341ZM39.0087 22.6731L29.0407 32.6411C28.6328 33.0517 28.1473 33.3772 27.6126 33.5987C27.0779 33.8202 26.5045 33.9333 25.9257 33.9314H25.8487C25.2581 33.9224 24.6755 33.7936 24.136 33.553C23.5966 33.3124 23.1116 32.9648 22.7103 32.5314L17.3297 26.9314C17.0966 26.7152 16.9102 26.4537 16.7819 26.1629C16.6536 25.872 16.586 25.5581 16.5834 25.2402C16.5808 24.9223 16.6431 24.6073 16.7666 24.3144C16.8901 24.0215 17.0722 23.7569 17.3016 23.5369C17.531 23.3168 17.803 23.146 18.1008 23.0349C18.3986 22.9237 18.716 22.8746 19.0334 22.8905C19.3509 22.9064 19.6618 22.987 19.947 23.1274C20.2322 23.2677 20.4857 23.4649 20.692 23.7067L25.928 29.1667L35.7 19.3667C36.1401 18.9417 36.7295 18.7065 37.3413 18.7118C37.9531 18.7172 38.5383 18.9625 38.9709 19.3952C39.4035 19.8278 39.6489 20.413 39.6542 21.0248C39.6596 21.6366 39.4244 22.226 38.9993 22.6661L39.0087 22.6731Z" fill="url(#paint0_linear_12742_455)"/>
</g>
<defs>
<linearGradient id="paint0_linear_12742_455" x1="28" y1="-0.000487581" x2="1.75451" y2="48.3865" gradientUnits="userSpaceOnUse">
<stop stop-color="#00AD4D"/>
<stop offset="1" stop-color="#7FC241"/>
</linearGradient>
<clipPath id="clip0_12742_455">
<rect width="56" height="56" fill="white"/>
</clipPath>
</defs>
</svg>
