<svg width="26" height="26" viewBox="0 0 26 26" fill="none" xmlns="http://www.w3.org/2000/svg">
<path d="M8.125 14.0833C7.16082 14.0833 6.21828 13.7974 5.41659 13.2618C4.61491 12.7261 3.99006 11.9647 3.62109 11.0739C3.25211 10.1831 3.15557 9.20293 3.34367 8.25727C3.53177 7.31161 3.99607 6.44297 4.67785 5.76119C5.35964 5.07941 6.22828 4.61511 7.17393 4.42701C8.11959 4.2389 9.09979 4.33545 9.99058 4.70442C10.8814 5.0734 11.6427 5.69824 12.1784 6.49993C12.7141 7.30162 13 8.24415 13 9.20834C12.9986 10.5008 12.4845 11.74 11.5706 12.6539C10.6566 13.5678 9.41749 14.0819 8.125 14.0833ZM8.125 6.5C7.58934 6.5 7.06571 6.65884 6.62033 6.95644C6.17495 7.25403 5.82781 7.67702 5.62283 8.1719C5.41784 8.66679 5.3642 9.21134 5.46871 9.73671C5.57321 10.2621 5.83115 10.7446 6.20992 11.1234C6.58869 11.5022 7.07127 11.7601 7.59663 11.8646C8.122 11.9691 8.66655 11.9155 9.16144 11.7105C9.65632 11.5055 10.0793 11.1584 10.3769 10.713C10.6745 10.2676 10.8333 9.74399 10.8333 9.20834C10.8333 8.49004 10.548 7.80117 10.0401 7.29325C9.53217 6.78534 8.8433 6.5 8.125 6.5ZM16.25 21.6667C16.2483 20.2306 15.677 18.8539 14.6616 17.8384C13.6461 16.823 12.2694 16.2517 10.8333 16.25H5.41667C3.98061 16.2517 2.60385 16.823 1.5884 17.8384C0.572955 18.8539 0.00172018 20.2306 0 21.6667L0 26H2.16667V21.6667C2.16667 20.8047 2.50908 19.9781 3.11857 19.3686C3.72806 18.7591 4.55471 18.4167 5.41667 18.4167H10.8333C11.6953 18.4167 12.5219 18.7591 13.1314 19.3686C13.7409 19.9781 14.0833 20.8047 14.0833 21.6667V26H16.25V21.6667ZM18.9583 9.75C17.9942 9.75 17.0516 9.46409 16.2499 8.92842C15.4482 8.39275 14.8234 7.63137 14.4544 6.74058C14.0854 5.84979 13.9889 4.86959 14.177 3.92394C14.3651 2.97828 14.8294 2.10964 15.5112 1.42786C16.193 0.746076 17.0616 0.281777 18.0073 0.093674C18.9529 -0.094429 19.9331 0.00211227 20.8239 0.371089C21.7147 0.740067 22.4761 1.36491 23.0117 2.1666C23.5474 2.96829 23.8333 3.91082 23.8333 4.875C23.8319 6.16749 23.3178 7.40663 22.4039 8.32056C21.49 9.23449 20.2508 9.74857 18.9583 9.75ZM18.9583 2.16667C18.4227 2.16667 17.899 2.32551 17.4537 2.62311C17.0083 2.9207 16.6611 3.34368 16.4562 3.83857C16.2512 4.33345 16.1975 4.87801 16.302 5.40337C16.4065 5.92874 16.6645 6.41132 17.0433 6.79008C17.422 7.16885 17.9046 7.42679 18.43 7.5313C18.9553 7.6358 19.4999 7.58216 19.9948 7.37718C20.4897 7.17219 20.9126 6.82505 21.2102 6.37967C21.5078 5.93429 21.6667 5.41066 21.6667 4.875C21.6667 4.15671 21.3813 3.46783 20.8734 2.95992C20.3655 2.45201 19.6766 2.16667 18.9583 2.16667ZM26 17.3333C25.9983 15.8973 25.427 14.5205 24.4116 13.5051C23.3961 12.4896 22.0194 11.9184 20.5833 11.9167H16.25V14.0833H20.5833C21.4453 14.0833 22.2719 14.4257 22.8814 15.0352C23.4909 15.6447 23.8333 16.4714 23.8333 17.3333V21.6667H26V17.3333Z" fill="#00AD4D"/>
</svg>
