<svg width="24" height="24" viewBox="0 0 24 24" fill="none" xmlns="http://www.w3.org/2000/svg">
<g clip-path="url(#clip0_15536_337)">
<path d="M22.5 3.97595H19.414C19.2162 3.97599 19.0229 4.03467 18.8585 4.14455C18.6941 4.25443 18.566 4.4106 18.4903 4.5933C18.4146 4.776 18.3948 4.97703 18.4334 5.17098C18.472 5.36494 18.5672 5.5431 18.707 5.68295L19.793 6.76895L16.207 10.354C16.0164 10.536 15.763 10.6377 15.4995 10.6377C15.2359 10.6377 14.9825 10.536 14.792 10.354L14.622 10.183C14.0506 9.63702 13.2907 9.33238 12.5005 9.33238C11.7102 9.33238 10.9504 9.63702 10.379 10.183L5.27897 15.283C5.09106 15.4714 4.98571 15.7268 4.98608 15.9929C4.98646 16.259 5.09253 16.514 5.28097 16.702C5.46941 16.8899 5.72477 16.9952 5.99088 16.9948C6.257 16.9945 6.51206 16.8884 6.69997 16.7L11.8 11.6C11.9904 11.4176 12.2438 11.3159 12.5075 11.3159C12.7711 11.3159 13.0246 11.4176 13.215 11.6L13.385 11.771C13.9566 12.3164 14.7164 12.6208 15.5065 12.6208C16.2966 12.6208 17.0564 12.3164 17.628 11.771L21.214 8.18495L22.3 9.27095C22.4403 9.4085 22.618 9.50166 22.811 9.5388C23.0039 9.57594 23.2036 9.55541 23.3849 9.47977C23.5663 9.40414 23.7213 9.27675 23.8307 9.11352C23.9401 8.95028 23.999 8.75844 24 8.56195V5.47595C24 5.07813 23.8419 4.6966 23.5606 4.41529C23.2793 4.13399 22.8978 3.97595 22.5 3.97595Z" fill="#00AD4D"/>
<path d="M23 21.976H5C4.20435 21.976 3.44129 21.6599 2.87868 21.0973C2.31607 20.5347 2 19.7717 2 18.976V1C2 0.734784 1.89464 0.48043 1.70711 0.292893C1.51957 0.105357 1.26522 0 1 0C0.734784 0 0.48043 0.105357 0.292893 0.292893C0.105357 0.48043 0 0.734784 0 1L0 18.976C0.00158786 20.3016 0.528882 21.5724 1.46622 22.5098C2.40356 23.4471 3.67441 23.9744 5 23.976H23C23.2652 23.976 23.5196 23.8706 23.7071 23.6831C23.8946 23.4956 24 23.2412 24 22.976C24 22.7108 23.8946 22.4564 23.7071 22.2689C23.5196 22.0814 23.2652 21.976 23 21.976Z" fill="#00AD4D"/>
</g>
<defs>
<clipPath id="clip0_15536_337">
<rect width="24" height="24" fill="white"/>
</clipPath>
</defs>
</svg>
