<svg width="19" height="29" viewBox="0 0 19 29" fill="none" xmlns="http://www.w3.org/2000/svg">
<path d="M13.4375 28.5H5.5625C2.77138 28.5 0.5 26.1445 0.5 23.25V5.75C0.5 2.8555 2.77138 0.5 5.5625 0.5H13.4375C16.2286 0.5 18.5 2.8555 18.5 5.75V23.25C18.5 26.1445 16.2286 28.5 13.4375 28.5ZM5.5625 1.66667C3.39125 1.66667 1.625 3.49833 1.625 5.75V23.25C1.625 25.5017 3.39125 27.3333 5.5625 27.3333H13.4375C15.6088 27.3333 17.375 25.5017 17.375 23.25V5.75C17.375 3.49833 15.6088 1.66667 13.4375 1.66667H5.5625ZM11.75 24.4167C11.75 24.0947 11.498 23.8333 11.1875 23.8333H7.8125C7.502 23.8333 7.25 24.0947 7.25 24.4167C7.25 24.7387 7.502 25 7.8125 25H11.1875C11.498 25 11.75 24.7387 11.75 24.4167Z" fill="#00AD4D" stroke="#00AD4D"/>
</svg>
