<svg width="26" height="15" viewBox="0 0 26 15" fill="none" xmlns="http://www.w3.org/2000/svg">
<g clip-path="url(#clip0_15552_646)">
<path d="M6.84891 13.2126C6.56833 13.2126 6.2872 13.115 6.06618 12.9178L0.363131 7.83162C0.131496 7.62496 0 7.33607 0 7.03365C0 6.73124 0.131496 6.44235 0.363131 6.23569L3.21462 3.69249L6.06618 1.14947C6.52842 0.737192 7.25371 0.760263 7.68616 1.20094C8.11862 1.64161 8.09442 2.33306 7.63218 2.74534L2.82383 7.03365L7.63218 11.322C8.09442 11.7342 8.11862 12.4257 7.68616 12.8664C7.46054 13.0963 7.15508 13.2126 6.84891 13.2126Z" fill="#34373F"/>
<path d="M19.151 13.2126C18.8449 13.2126 18.5395 13.0963 18.3138 12.8664C17.8814 12.4257 17.9055 11.7342 18.3678 11.322L23.1761 7.03365L21.2193 5.28842L18.3678 2.74534C17.9056 2.33306 17.8814 1.64161 18.3138 1.20094C18.7463 0.760263 19.4716 0.737192 19.9338 1.14947L22.7853 3.69255L25.6369 6.23575C25.8686 6.44235 26 6.73124 26 7.03371C26 7.33619 25.8685 7.62501 25.6369 7.83168L19.9338 12.9179C19.7128 13.1151 19.4316 13.2127 19.151 13.2127V13.2126Z" fill="#34373F"/>
<path d="M10.4483 15C10.3154 15 10.1805 14.9778 10.0487 14.9311C9.45549 14.7206 9.1535 14.0916 9.37428 13.526L14.3756 0.711904C14.5963 0.146332 15.2563 -0.141571 15.8495 0.0689063C16.4428 0.279384 16.7447 0.908446 16.524 1.47402L11.5227 14.2881C11.351 14.728 10.9134 15 10.4483 15H10.4483Z" fill="#34373F"/>
</g>
<defs>
<clipPath id="clip0_15552_646">
<rect width="26" height="15" fill="white"/>
</clipPath>
</defs>
</svg>
