<svg width="56" height="56" viewBox="0 0 56 56" fill="none" xmlns="http://www.w3.org/2000/svg">
<g clip-path="url(#clip0_12745_465)">
<path d="M56 16.3333V35C56 41.433 50.7663 46.6667 44.3333 46.6667H30.3333V51.3333H39.6667C40.9547 51.3333 42 52.3763 42 53.6667C42 54.957 40.9547 56 39.6667 56H16.3333C15.0453 56 14 54.957 14 53.6667C14 52.3763 15.0453 51.3333 16.3333 51.3333H25.6667V46.6667H11.6667C5.23367 46.6667 0 41.433 0 35V16.3333C0 15.043 1.04533 14 2.33333 14C3.62133 14 4.66667 15.043 4.66667 16.3333V35C4.66667 38.8593 7.80733 42 11.6667 42H44.3333C48.1927 42 51.3333 38.8593 51.3333 35V16.3333C51.3333 15.043 52.3787 14 53.6667 14C54.9547 14 56 15.043 56 16.3333ZM39.6667 23.3333C40.9547 23.3333 42 22.2903 42 21V9.33333C42 8.04533 43.0477 7 44.3333 7H47.313C48.1203 8.38833 49.609 9.33333 51.3333 9.33333C53.9117 9.33333 56 7.245 56 4.66667C56 2.08833 53.9117 0 51.3333 0C49.6113 0 48.1227 0.945 47.313 2.33333H44.3333C40.474 2.33333 37.3333 5.474 37.3333 9.33333V21C37.3333 22.2903 38.3787 23.3333 39.6667 23.3333ZM4.66667 9.33333C6.38867 9.33333 7.87733 8.38833 8.687 7H11.6667C12.9523 7 14 8.04533 14 9.33333V21C14 22.2903 15.0453 23.3333 16.3333 23.3333C17.6213 23.3333 18.6667 22.2903 18.6667 21V9.33333C18.6667 5.474 15.526 2.33333 11.6667 2.33333H8.687C7.87967 0.945 6.391 0 4.66667 0C2.08833 0 0 2.08833 0 4.66667C0 7.245 2.08833 9.33333 4.66667 9.33333ZM25.6667 8.687V21C25.6667 22.2903 26.712 23.3333 28 23.3333C29.288 23.3333 30.3333 22.2903 30.3333 21V8.687C31.7217 7.87967 32.6667 6.391 32.6667 4.66667C32.6667 2.08833 30.5783 0 28 0C25.4217 0 23.3333 2.08833 23.3333 4.66667C23.3333 6.38867 24.2783 7.87733 25.6667 8.687Z" fill="url(#paint0_linear_12745_465)"/>
</g>
<defs>
<linearGradient id="paint0_linear_12745_465" x1="28" y1="7.00474e-07" x2="4.49676" y2="51.9983" gradientUnits="userSpaceOnUse">
<stop stop-color="#00AD4D"/>
<stop offset="1" stop-color="#7FC241"/>
</linearGradient>
<clipPath id="clip0_12745_465">
<rect width="56" height="56" fill="white"/>
</clipPath>
</defs>
</svg>
