<svg width="16" height="16" viewBox="0 0 16 16" fill="none" xmlns="http://www.w3.org/2000/svg">
<path d="M12.9937 1.84961C12.8781 1.96518 12.763 2.08027 12.6475 2.19585C8.55599 6.28731 4.466 10.3793 0.371096 14.4673C0.225774 14.6126 0.196176 14.6971 0.365778 14.8472C0.630963 15.0822 0.877138 15.3391 1.11941 15.5979C1.22926 15.7156 1.30014 15.7065 1.39665 15.5923C1.48731 15.485 1.59414 15.3909 1.69411 15.291C5.75193 11.2331 9.81023 7.17483 13.8681 3.11702C13.9334 3.05167 13.9983 2.98681 14.1099 2.87514C14.1155 3.13334 14.1219 3.33189 14.123 3.52993C14.1319 6.64238 14.1414 9.75533 14.145 12.8683C14.145 13.0448 14.1731 13.1177 14.3721 13.108C14.7324 13.0909 15.0953 13.0968 15.4562 13.1095C15.6171 13.1153 15.6688 13.0773 15.6679 12.9057C15.6556 11.1057 15.6522 9.30567 15.6472 7.50519C15.6414 5.18589 15.6341 2.86707 15.6356 0.548282C15.636 0.341928 15.5923 0.27873 15.3723 0.279107C11.2848 0.27724 7.19728 0.26755 3.10976 0.250035C2.87406 0.249392 2.78127 0.291192 2.79957 0.546494C2.82447 0.890323 2.8127 1.23747 2.80582 1.58268C2.80326 1.72155 2.8342 1.76809 2.98725 1.76802C5.65079 1.76991 8.31386 1.78011 10.9774 1.78689C11.6424 1.78871 12.308 1.78613 12.973 1.78501C12.9804 1.80605 12.9868 1.82807 12.9937 1.84961Z" fill="black" stroke="black" stroke-width="0.5"/>
</svg>
