<svg width="30" height="30" viewBox="0 0 30 30" fill="none" xmlns="http://www.w3.org/2000/svg">
<path d="M4.98376 3.8325C4.63251 3.23875 4.82751 2.4725 5.42251 2.12C6.01501 1.76875 6.78251 1.96375 7.13501 2.55875L7.87626 3.80875C8.22751 4.4025 8.03251 5.16875 7.43751 5.52125C6.85376 5.87 6.07876 5.6825 5.72501 5.0825L4.98376 3.8325ZM26.4875 17.8425C24.625 20.2825 20.6563 24.375 15 24.375C9.19376 24.375 5.29876 20.3337 3.49376 17.9237C2.21626 16.2187 2.21876 13.8537 3.50001 12.1725C5.36376 9.7275 9.33626 5.625 15 5.625C20.755 5.625 24.67 9.67375 26.4925 12.0875C27.7775 13.79 27.775 16.1563 26.4875 17.8425ZM24.4975 13.5938C22.9563 11.5513 19.6725 8.125 15 8.125C10.4138 8.125 7.07251 11.6113 5.48876 13.6888C4.87251 14.4975 4.87501 15.5975 5.49501 16.425C7.02001 18.46 10.2825 21.875 15 21.875C19.58 21.875 22.9175 18.3987 24.5 16.3262C25.12 15.515 25.1188 14.4175 24.4975 13.5938ZM20 15C20 17.7575 17.7575 20 15 20C12.2425 20 10 17.7575 10 15C10 12.2425 12.2425 10 15 10C17.7575 10 20 12.2425 20 15ZM17.5 15C17.5 13.6212 16.3788 12.5 15 12.5C13.6213 12.5 12.5 13.6212 12.5 15C12.5 16.3788 13.6213 17.5 15 17.5C16.3788 17.5 17.5 16.3788 17.5 15ZM15 3.75C15.69 3.75 16.25 3.19 16.25 2.5V1.25C16.25 0.56 15.69 0 15 0C14.31 0 13.75 0.56 13.75 1.25V2.5C13.75 3.19 14.31 3.75 15 3.75ZM22.5625 5.52125C23.1463 5.87 23.9213 5.6825 24.275 5.0825L25.0163 3.8325C25.3675 3.23875 25.1725 2.4725 24.5775 2.12C23.985 1.76875 23.2175 1.96375 22.865 2.55875L22.1238 3.80875C21.7725 4.4025 21.9675 5.16875 22.5625 5.52125ZM24.275 24.9175C23.9225 24.3225 23.1563 24.1275 22.5625 24.4788C21.9688 24.83 21.7725 25.5975 22.1238 26.1912L22.865 27.4412C23.2188 28.04 23.9938 28.2275 24.5775 27.88C25.1713 27.5275 25.3675 26.7613 25.0163 26.1675L24.275 24.9175ZM15 26.25C14.31 26.25 13.75 26.81 13.75 27.5V28.75C13.75 29.44 14.31 30 15 30C15.69 30 16.25 29.44 16.25 28.75V27.5C16.25 26.81 15.69 26.25 15 26.25ZM7.43751 24.4788C6.84376 24.1263 6.07751 24.3225 5.72501 24.9175L4.98376 26.1675C4.63251 26.7613 4.82751 27.5275 5.42251 27.88C6.00626 28.2288 6.78126 28.0412 7.13501 27.4412L7.87626 26.1912C8.22751 25.5975 8.03251 24.8313 7.43751 24.4788Z" fill="white"/>
</svg>
